<?xml version="1.0" encoding="UTF-8"?><svg id="Layer_1" xmlns="http://www.w3.org/2000/svg" viewBox="0 0 765.28 957.29"><defs><style>.cls-1{fill:#10332f;stroke:#000;stroke-miterlimit:10;stroke-width:.5px;}</style></defs><path class="cls-1" d="M687.81,957.04H49.24c-27.01,0-48.99-21.98-48.99-48.99V49.24C.25,22.23,22.23.25,49.24.25h638.57c27.01,0,48.99,21.98,48.99,48.99v77.37c0,8.47-6.87,15.34-15.34,15.34s-15.34-6.87-15.34-15.34V49.24c0-10.1-8.22-18.32-18.32-18.32H49.24c-10.1,0-18.32,8.22-18.32,18.32v858.81c0,10.1,8.22,18.32,18.32,18.32h638.57c10.1,0,18.32-8.22,18.32-18.32v-445.43c0-8.47,6.87-15.34,15.34-15.34s15.34,6.87,15.34,15.34v445.43c0,27.01-21.98,48.99-48.99,48.99Z"/><path class="cls-1" d="M633.39,957.04H49.24c-27.02,0-48.99-21.98-48.99-48.99V49.24C.25,22.23,22.23.25,49.24.25h584.15c27.02,0,48.99,21.98,48.99,48.99v61.59h33.65c27.02,0,48.99,21.98,48.99,48.99v203.79c0,27.01-21.98,48.99-48.99,48.99h-33.65v495.43c0,27.02-21.98,48.99-48.99,48.99ZM49.24,30.92c-10.1,0-18.32,8.22-18.32,18.32v858.8c0,10.1,8.22,18.32,18.32,18.32h584.15c10.1,0,18.32-8.22,18.32-18.32v-510.77c0-8.47,6.87-15.34,15.34-15.34h48.99c10.1,0,18.32-8.22,18.32-18.32v-203.79c0-10.1-8.22-18.32-18.32-18.32h-48.99c-8.47,0-15.34-6.87-15.34-15.34V49.24c0-10.1-8.22-18.32-18.32-18.32H49.24Z"/><path class="cls-1" d="M522.81,657.28h-232.68c-8.47,0-15.34-6.87-15.34-15.34s6.87-15.34,15.34-15.34h232.68c7.82,0,14.18-6.36,14.18-14.18s-6.36-14.18-14.18-14.18H191.15c-7.82,0-14.18,6.36-14.18,14.18s6.36,14.18,14.18,14.18h33.64c8.47,0,15.34,6.87,15.34,15.34s-6.87,15.34-15.34,15.34h-33.64c-24.73,0-44.85-20.12-44.85-44.85s20.12-44.85,44.85-44.85h331.67c24.73,0,44.85,20.12,44.85,44.85s-20.12,44.85-44.85,44.85Z"/><path class="cls-1" d="M460.43,272.55h-60.22v-60.22c0-8.83-7.16-16-16-16h-54.48c-8.83,0-16,7.16-16,16v60.22h-60.22c-8.83,0-16,7.16-16,16v54.48c0,8.83,7.16,16,16,16h60.22v60.22c0,8.83,7.16,16,16,16h54.48c8.83,0,16-7.16,16-16v-60.22h60.22c8.83,0,16-7.16,16-16v-54.48c0-8.83-7.16-16-16-16Z"/><path class="cls-1" d="M356.98,513.86c-109.22,0-198.07-88.85-198.07-198.07s88.85-198.07,198.07-198.07,198.07,88.85,198.07,198.07-88.85,198.07-198.07,198.07ZM356.98,148.39c-92.3,0-167.4,75.09-167.4,167.4s75.09,167.4,167.4,167.4,167.4-75.09,167.4-167.4-75.09-167.4-167.4-167.4Z"/><path class="cls-1" d="M552.33,722.4H161.64c-8.47,0-15.34-6.87-15.34-15.34s6.87-15.34,15.34-15.34h390.69c8.47,0,15.34,6.87,15.34,15.34s-6.87,15.34-15.34,15.34Z"/><path class="cls-1" d="M552.33,780.98H161.64c-8.47,0-15.34-6.87-15.34-15.34s6.87-15.34,15.34-15.34h390.69c8.47,0,15.34,6.87,15.34,15.34s-6.87,15.34-15.34,15.34Z"/><path class="cls-1" d="M439.09,839.57h-164.22c-8.47,0-15.34-6.87-15.34-15.34s6.87-15.34,15.34-15.34h164.22c8.47,0,15.34,6.87,15.34,15.34s-6.87,15.34-15.34,15.34Z"/><path class="cls-1" d="M664.95,333.13c-8.47,0-15.34-6.87-15.34-15.34v-121.44c0-8.47,6.87-15.34,15.34-15.34s15.34,6.87,15.34,15.34v121.44c0,8.47-6.87,15.34-15.34,15.34Z"/></svg>