<?xml version="1.0" encoding="UTF-8"?><svg id="Layer_1" xmlns="http://www.w3.org/2000/svg" viewBox="0 0 1017.51 1076.95"><defs><style>.cls-1{fill:#10332f;}</style></defs><path class="cls-1" d="M509.32,572.74h-31.92v-25.99c0-42.49-15.24-83.81-42.92-116.33-19.94-23.44-45.43-41.26-73.72-51.99,24.61-23.73,39.93-56.84,39.93-93.43,0-71.99-59.21-130.56-131.99-130.56s-131.99,58.57-131.99,130.56c0,36.6,15.32,69.7,39.93,93.43-28.3,10.73-53.78,28.55-73.72,51.99-27.67,32.52-42.92,73.84-42.92,116.33v25.99h-31.92c-15.48,0-28.08,12.6-28.08,28.08v39.09c0,15.48,12.6,28.08,28.08,28.08h6.13v96.61c0,15.48,12.59,28.08,28.07,28.08h412.84c15.48,0,28.07-12.6,28.07-28.08v-96.61h6.13c15.48,0,28.08-12.6,28.08-28.08v-39.09c0-15.48-12.59-28.07-28.07-28.07h0ZM91.67,546.74c0-70.53,49.28-130.73,117.89-145.08,17.8,8.86,37.88,13.89,59.13,13.89s41.33-5.02,59.13-13.89c68.61,14.36,117.89,74.55,117.89,145.08v25.99H91.67v-25.99ZM973.31,74.28h-30.08v-30.08c0-24.37-19.83-44.2-44.2-44.2h-419.62c-24.37,0-44.2,19.83-44.2,44.2v275.97c0,24.37,19.83,44.2,44.2,44.2h17.93v88.73c0,11.79,7.61,21.9,18.93,25.16,2.32.67,4.67.99,7,.99,7.92,0,15.67-3.75,21.28-10.61l24.56-30.01h253.72l85.35,104.29c5.61,6.85,13.35,10.6,21.28,10.6,2.33,0,4.69-.33,7-.99,11.32-3.27,18.93-13.38,18.93-25.17v-88.73h17.93c24.37,0,44.2-19.83,44.2-44.2V118.48c0-24.37-19.83-44.2-44.2-44.2h0ZM650.49,205.08h-59.92v-45.79h59.92c8.75,0,15.84-7.09,15.84-15.84v-59.92h45.79v59.92c0,8.75,7.09,15.84,15.84,15.84h59.92v45.79h-59.92c-8.75,0-15.84,7.09-15.84,15.84v59.92h-45.79v-59.92c0-8.75-7.09-15.84-15.84-15.84ZM985.84,394.45c0,6.91-5.62,12.53-12.53,12.53h-33.76c-8.75,0-15.84,7.09-15.84,15.84v89.09l-81.12-99.12c-3.01-3.67-7.51-5.81-12.26-5.81h-235.31l34.87-42.6h269.14c24.37,0,44.2-19.83,44.2-44.2V105.96h30.08c6.91,0,12.53,5.62,12.53,12.53v275.97ZM873.8,800.37c24.61-23.73,39.93-56.84,39.93-93.43,0-71.99-59.21-130.56-131.99-130.56s-131.99,58.57-131.99,130.56c0,36.6,15.32,69.7,39.93,93.43-28.3,10.73-53.78,28.55-73.73,51.99-27.67,32.52-42.92,73.84-42.92,116.33v82.48c0,14.22,11.57,25.79,25.79,25.79h365.83c14.22,0,25.78-11.57,25.78-25.79v-82.48c0-42.49-15.24-83.81-42.92-116.33-19.94-23.44-45.43-41.26-73.72-51.99h0ZM958.77,1045.27h-354.05v-76.59c0-70.53,49.28-130.73,117.9-145.08,17.8,8.86,37.88,13.89,59.13,13.89s41.33-5.02,59.13-13.89c68.61,14.35,117.9,74.55,117.9,145.08v76.59Z"/></svg>