<?xml version="1.0" encoding="UTF-8"?><svg id="Layer_1" xmlns="http://www.w3.org/2000/svg" viewBox="0 0 1038.67 1080"><defs><style>.cls-1{fill:#10332f;fill-rule:evenodd;}</style></defs><path class="cls-1" d="M731.36,145.41h-125.28v-66.27h167.45c28.62.09,51.8,23.27,51.89,51.89v369.58c-11,6.67-21.15,14.63-30.25,23.73l-5.16,5.16-5.16-5.16c-7.81-7.79-16.4-14.75-25.63-20.78V173.2c-.06-15.35-12.5-27.77-27.85-27.79h0ZM759.2,952.5v33.44c-.06,15.35-12.49,27.79-27.84,27.84H94.06c-15.35-.06-27.79-12.49-27.84-27.84V173.2c.06-15.34,12.5-27.76,27.84-27.79h125.29v-66.27H51.89C23.27,79.24.09,102.41,0,131.04v897.08c.09,28.62,23.27,51.8,51.89,51.89h721.64c28.62-.09,51.8-23.27,51.89-51.89v-80.28l-35.41,35.47-30.8-30.8ZM575.71,167.79H249.7v-102.72c.03-7.11,5.8-12.85,12.91-12.85h98.67c-.05-.24-.07-.49-.06-.74,0-28.43,23.05-51.48,51.48-51.48s51.48,23.05,51.48,51.48v.74h98.67c7.09.02,12.83,5.76,12.85,12.85v102.72ZM428.05,51.48c-.02-8.38-6.81-15.17-15.19-15.19h-.25c-8.39,0-15.19,6.8-15.19,15.19s6.8,15.19,15.19,15.19h.25c8.38-.02,15.16-6.81,15.18-15.19h0ZM202.01,925.7c0,8.39,6.8,15.19,15.19,15.19h470.15c8.39,0,15.19-6.79,15.2-15.17,0-8.39-6.79-15.19-15.17-15.2H217.19c-8.36-.03-15.16,6.73-15.18,15.09,0,.03,0,.06,0,.1h0ZM551.06,743.86H217.19c-8.39,0-15.19,6.79-15.2,15.17,0,8.39,6.79,15.19,15.17,15.2h363.77l-22.99-22.99c-2.39-2.41-4.67-4.86-6.88-7.38ZM217.19,690.93h302.88c-3.43-9.87-5.9-20.04-7.38-30.37H217.19c-8.39,0-15.19,6.79-15.2,15.17,0,8.39,6.79,15.19,15.17,15.2h.03,0ZM217.19,827.22c-8.37,0-15.15,6.78-15.15,15.15s6.78,15.15,15.15,15.15h447.04l-30.37-30.31H217.19ZM169.61,743.86h-31.47c-8.39,0-15.19,6.79-15.2,15.17,0,8.39,6.79,15.19,15.17,15.2h31.5c8.39,0,15.19-6.79,15.2-15.17,0-8.39-6.79-15.19-15.17-15.2h-.03ZM169.61,577.27h-31.47c-8.39,0-15.19,6.79-15.2,15.17,0,8.39,6.79,15.19,15.17,15.2h31.5c8.39,0,15.19-6.79,15.2-15.17,0-8.39-6.79-15.19-15.17-15.2h-.03ZM169.61,910.52h-31.47c-8.39,0-15.19,6.79-15.2,15.17,0,8.39,6.79,15.19,15.17,15.2h31.5c8.39,0,15.19-6.79,15.2-15.17,0-8.39-6.79-15.19-15.17-15.2h-.03ZM169.61,660.56h-31.47c-8.39,0-15.19,6.79-15.2,15.17,0,8.39,6.79,15.19,15.17,15.2h31.5c8.39,0,15.19-6.79,15.2-15.17,0-8.39-6.79-15.19-15.17-15.2h-.03ZM169.61,827.22h-31.47c-8.37,0-15.15,6.78-15.15,15.15s6.78,15.15,15.15,15.15h31.47c8.37,0,15.15-6.78,15.15-15.15s-6.78-15.15-15.15-15.15ZM202.01,592.45c0,8.39,6.8,15.19,15.19,15.19h296.73c1.96-10.4,4.94-20.57,8.91-30.37H217.2c-8.36-.03-15.16,6.72-15.19,15.09,0,.03,0,.07,0,.1h0ZM1000.55,729.78l-210.55,210.55-210.62-210.55c-50.81-50.79-50.82-133.15-.03-183.96,50.79-50.81,133.15-50.82,183.96-.03l26.68,26.68,26.62-26.68c50.81-50.79,133.17-50.78,183.96.03,50.79,50.81,50.78,133.17-.03,183.96h0ZM972.46,697.93c-.02-8.38-6.81-15.17-15.19-15.19h-69.65v.06c-5.86,0-11.2,3.37-13.71,8.67l-9.04,19.06c-3.69-8.36-7.25-16.66-10.76-25.08-7.62-18.32-14.82-36.51-21.88-55.14-2.95-7.81-11.67-11.76-19.48-8.81-3.89,1.47-7.01,4.48-8.61,8.32l-34.17,81.21-32.4-67.67c-3.15-7.74-11.98-11.47-19.72-8.32-3.48,1.42-6.31,4.08-7.94,7.46l-19.49,40.26h-67.74c-8.39,0-15.19,6.79-15.2,15.17,0,8.39,6.79,15.19,15.17,15.2h77.3c6.22.01,11.81-3.79,14.08-9.59l9.47-19.55,33.69,70.45c3.62,7.54,12.67,10.73,20.22,7.1,3.32-1.59,5.94-4.33,7.38-7.72l32.77-77.83c2.83,7.07,5.72,14.13,8.61,21.09,7.68,18.44,15.86,36.89,24.84,55.88,3.57,7.57,12.59,10.81,20.17,7.25,3.18-1.54,5.74-4.12,7.25-7.32l18.81-39.77h60.06c8.39,0,15.19-6.8,15.18-15.19h0s0-.01,0-.01ZM561.94,373.36c.02,82.42-66.78,149.24-149.2,149.26-82.42.02-149.24-66.78-149.26-149.2-.02-82.42,66.78-149.24,149.2-149.26h.06c82.33.18,149.02,66.87,149.2,149.2ZM497.27,310.29c-5.87-5.92-15.43-5.97-21.36-.1-.03.03-.07.07-.1.1l-93.99,93.99-32.15-32.21c-5.92-5.94-15.54-5.95-21.48-.03s-5.95,15.54-.03,21.48l42.97,42.91c5.87,5.92,15.43,5.97,21.36.1.03-.03.07-.07.1-.1l104.69-104.69c5.9-5.93,5.9-15.52,0-21.45h0Z"/></svg>