<?xml version="1.0" encoding="UTF-8"?><svg id="Layer_1" xmlns="http://www.w3.org/2000/svg" viewBox="0 0 1026.35 1046.61"><defs><style>.cls-1{fill:#10332f;fill-rule:evenodd;}</style></defs><path class="cls-1" d="M644.67,1009.32c-41.97,11.11-86.05,17.03-131.5,17.03C229.95,1026.35,0,796.4,0,513.18S229.95,0,513.18,0s513.18,229.95,513.18,513.18c0,111.93-35.91,215.53-96.83,299.91l-16.59-28.74c52.59-77.33,83.33-170.69,83.33-271.18,0-266.62-216.46-483.09-483.09-483.09S30.09,246.55,30.09,513.18s216.46,483.09,483.09,483.09c52.36,0,102.79-8.35,150.02-23.79l-12.34,21.38-.02.03c-2.87,4.98-4.93,10.17-6.17,15.43h0ZM864.14,760.02l143.7,248.88c4.63,8,4.63,17.14,0,25.14-4.61,8-12.53,12.57-21.77,12.57h-287.39c-9.24,0-17.16-4.57-21.77-12.57-4.61-8-4.61-17.14,0-25.14l143.7-248.88c4.61-8,12.55-12.57,21.77-12.57s17.16,4.57,21.77,12.57h0ZM842.37,999.86c7.54,0,13.66-6.14,13.66-13.66s-6.12-13.68-13.66-13.68-13.66,6.14-13.66,13.68,6.14,13.66,13.66,13.66ZM857.42,946.38v-98.69c0-8.3-6.74-15.04-15.04-15.04s-15.04,6.74-15.04,15.04v98.69c0,8.3,6.74,15.04,15.04,15.04s15.04-6.74,15.04-15.04ZM141.11,482.3c-14.1-35.05-21.93-70.1-21.93-105.15,0-97.03,88.23-175.81,196.98-175.81,86.28,0,134.77,33.74,178.6,101.17,4.14,6.42,10.75,10,18.43,10s14.24-3.58,18.43-10c43.79-67.43,92.28-101.17,178.56-101.17,108.75,0,196.98,78.78,196.98,175.81,0,35.06-7.84,70.11-21.94,105.17l-216.77.07c-9.65,0-18.85,3.09-26.4,8.54l-8.11-20.93c-7.27-18.79-26.12-30.47-46.18-28.65-14.28,1.3-26.72,9.23-34.05,20.83l-7.82-54.62c-2.98-20.79-19.89-36.77-40.81-38.57-20.92-1.8-40.32,11.07-46.79,31.04l-31.43,96.92c-8.4-9.18-20.41-14.67-33.3-14.67h-252.44ZM836.03,572.6c-71.93,106.28-189.18,212.56-308.22,318.82-8.38,7.49-20.89,7.49-29.27,0-119.05-106.27-236.32-212.56-308.24-318.85h173.37l28.5,67.17c7.36,17.34,24.71,28.29,43.53,27.46,18.82-.83,35.14-13.25,40.95-31.17l7.47-23.04,17.3,120.8c3.13,21.84,21.59,38.22,43.65,38.72s41.25-15.02,45.36-36.7l19.69-103.71c6.11,3.67,13.11,5.9,20.5,6.35,17.61,1.06,34.23-8.24,42.54-23.81l22.39-41.99,140.47-.05ZM92.13,542.48c-8.3,0-15.04-6.74-15.04-15.04s6.74-15.04,15.04-15.04h301.43c6.04,0,11.49,3.61,13.85,9.17l24.43,57.59,55.07-169.82c2.16-6.66,8.62-10.95,15.6-10.35,6.97.6,12.61,5.93,13.6,12.86l32.07,223.94,28.91-152.28c1.25-6.6,6.72-11.57,13.41-12.18s12.97,3.29,15.39,9.55l29.62,76.49,19.69-36.91c2.61-4.9,7.71-7.96,13.27-7.96l274.17-.09c8.3,0,15.05,6.74,15.05,15.04,0,8.3-6.74,15.05-15.04,15.05l-265.15.09-30.88,57.91c-2.77,5.19-8.31,8.29-14.18,7.94-5.87-.35-11-4.1-13.12-9.58l-22.48-58.05-35.96,189.41c-1.37,7.23-7.77,12.4-15.12,12.23-7.35-.17-13.51-5.63-14.55-12.91l-35.69-249.21-47.49,146.44c-1.94,5.97-7.38,10.11-13.65,10.39-6.27.28-12.06-3.37-14.51-9.15l-36.28-85.51H92.13Z"/></svg>