<?xml version="1.0" encoding="UTF-8"?><svg id="Layer_1" xmlns="http://www.w3.org/2000/svg" viewBox="0 0 1076.54 956.79"><defs><style>.cls-1{fill:#10332f;}</style></defs><g id="_12_Online_Counseling"><path class="cls-1" d="M796.18,926.21h-21.53c-29.55-12.37-50.39-38.6-56.46-69.17h-209.13c-6.07,30.58-26.91,56.8-56.46,69.17h-21.65c-8.36,0-15.23,6.87-15.23,15.35s6.87,15.23,15.23,15.23h365.22c8.48,0,15.35-6.87,15.35-15.23,0-8.48-6.87-15.35-15.34-15.35h0Z"/><path class="cls-1" d="M1039.09,163.7h-164.12l-1.72,32.75h173.51v462.34H199.73v-392.25h-49.02v530.14c0,20.73,16.72,37.45,37.45,37.45h850.93c20.73,0,37.45-16.72,37.45-37.45V201.15c0-20.62-16.84-37.45-37.45-37.45ZM613.63,778.7c-16.49,0-29.89-13.4-29.89-29.78s13.4-29.89,29.89-29.89,29.89,13.28,29.89,29.89-13.4,29.78-29.89,29.78Z"/><path class="cls-1" d="M537.47,164.73v-1.03h-19.7v32.76h21.42l-1.72-31.72Z"/><path class="cls-1" d="M706.4,635.89c34.93-163.77,41.92-196.64,42.95-201.8,0-.12.12-.23.12-.34s0-.12,0-.12l.12-.46c-17.41,16.15-43.63,40.31-44.44,41l-44.32-41c.23.92.23,1.15.23,1.15,1.38,6.18,8.82,40.77,43.06,201.57h2.29Z"/><path class="cls-1" d="M582.25,522.05l-6.99-5.73c-7.9-6.53-12.71-16.15-13.06-26.46l-1.26-36.42c-26.46,10.88-52.22,21.99-74.67,31.95-44.78,19.81-73.64,64.02-73.64,112.92v37.57h202.25l-39.17-69.17c-6.87-12.37-5.95-27.6,2.29-38.94l4.24-5.73Z"/><path class="cls-1" d="M997.63,598.33c0-48.9-28.86-93.11-73.52-112.92-22.56-9.96-48.33-21.07-74.79-31.95l-1.15,36.42c-.34,10.31-5.15,19.93-13.06,26.46l-6.98,5.73,4.24,5.73c8.25,11.34,9.16,26.57,2.29,38.82l-39.17,69.29h202.14v-37.57Z"/><path class="cls-1" d="M814.74,555.38c2.52-4.47,2.18-9.96-.92-14.09l-9.74-13.28c-4.01-5.5-3.09-13.28,2.29-17.64l14.2-11.68c2.86-2.41,4.58-5.84,4.7-9.62l1.38-42.26c.23-5.04-2.52-9.74-6.98-12.02l-27.26-13.97c-7.56-4.01-16.84.46-18.67,8.82l-43.98,206.26h39.4l45.58-80.51Z"/><path class="cls-1" d="M680.63,635.89l-43.98-206.26c-1.83-8.36-11.11-12.83-18.67-8.82l-27.26,13.97c-4.47,2.29-7.22,6.98-7.1,12.02l1.49,42.26c.11,3.78,1.83,7.22,4.7,9.62l14.2,11.68c5.27,4.35,6.3,12.14,2.18,17.64l-9.74,13.28c-2.98,4.12-3.32,9.62-.8,14.09l45.58,80.51h39.4Z"/><path class="cls-1" d="M583.05,288.07c0,64.13,77.08,124.95,123.12,124.95,8.7,0,18.44-2.18,28.63-6.18-5.95,1.83-12.37,2.86-19.24,2.86-30.69,0-54.63-19.93-54.63-45.35s23.94-45.24,54.63-45.24c17.06,0,31.95,6.18,41.92,15.92h58.87c8.02-14.89,12.94-30.81,12.94-46.96.97,0,1.89-.19,2.84-.31,1.53,1.3,3.45,2.17,5.61,2.17,1.28,0,2.5-.22,3.73-.38v35.9c0,17.9-14.56,32.46-32.46,32.46h-63.21c-3.93-9.19-15.92-15.9-30.24-15.9-17.51,0-31.73,9.95-31.73,22.31s14.22,22.46,31.73,22.46c14.26,0,26.19-6.74,30.18-15.9h63.27c25.05,0,45.43-20.38,45.43-45.43v-40.82c7.56-5.29,12.53-14.02,12.53-23.95v-25.09c0-11.92-7.16-22.13-17.39-26.69l2.45-45.33c0-80.57-68.11-137.34-145.82-137.34s-145.82,56.78-145.82,138.5l3.21,58.34c-3.1,4.13-4.94,9.23-4.94,14.84v25.54c0,13.51,10.88,24.51,24.4,24.62h0Z"/><path class="cls-1" d="M406.33,323.26c8.68,9.42,24.42,3.28,24.42-9.54v-70.1h36.88c14.99,0,27.29-12.29,27.29-27.39V27.4c0-15.1-12.29-27.4-27.29-27.4H27.4C12.26,0,0,12.26,0,27.4v188.84c0,15.13,12.26,27.39,27.39,27.39h305.53l73.4,79.63ZM64.06,50.63h366.9c5.96,0,10.78,4.83,10.78,10.78s-4.83,10.78-10.78,10.78H64.06c-5.96,0-10.78-4.83-10.78-10.78s4.83-10.78,10.78-10.78ZM64.06,111.03h366.9c5.96,0,10.78,4.83,10.78,10.78s-4.83,10.78-10.78,10.78H64.06c-5.96,0-10.78-4.83-10.78-10.78s4.83-10.78,10.78-10.78ZM53.28,182.21c0-5.95,4.83-10.78,10.78-10.78h366.9c5.96,0,10.78,4.83,10.78,10.78s-4.83,10.78-10.78,10.78H64.06c-5.95,0-10.78-4.83-10.78-10.78Z"/></g></svg>