<?xml version="1.0" encoding="UTF-8"?><svg id="Layer_1" xmlns="http://www.w3.org/2000/svg" viewBox="0 0 1027.6 1027.6"><defs><style>.cls-1{fill:#10332f;fill-rule:evenodd;}</style></defs><path class="cls-1" d="M513.8,162.84c-38.42,0-69.61,31.19-69.61,69.61s31.19,69.62,69.61,69.62,69.61-31.2,69.61-69.62-31.19-69.61-69.61-69.61ZM513.8,162.84c-38.42,0-69.61,31.19-69.61,69.61s31.19,69.62,69.61,69.62,69.61-31.2,69.61-69.62-31.19-69.61-69.61-69.61ZM513.8,162.84c-38.42,0-69.61,31.19-69.61,69.61s31.19,69.62,69.61,69.62,69.61-31.2,69.61-69.62-31.19-69.61-69.61-69.61ZM513.8,162.84c-38.42,0-69.61,31.19-69.61,69.61s31.19,69.62,69.61,69.62,69.61-31.2,69.61-69.62-31.19-69.61-69.61-69.61ZM513.8,162.84c-38.42,0-69.61,31.19-69.61,69.61s31.19,69.62,69.61,69.62,69.61-31.2,69.61-69.62-31.19-69.61-69.61-69.61ZM513.8,162.84c-38.42,0-69.61,31.19-69.61,69.61s31.19,69.62,69.61,69.62,69.61-31.2,69.61-69.62-31.19-69.61-69.61-69.61ZM1001.59,352.09c-2.12-6.39-4.36-12.72-6.72-19-1.18-3.13-2.39-6.26-3.63-9.37-1.24-3.1-2.51-6.2-3.81-9.27-.65-1.54-1.31-3.08-1.97-4.61-1.33-3.06-2.68-6.11-4.07-9.14-1.39-3.03-2.8-6.05-4.24-9.05-1.08-2.25-2.18-4.49-3.29-6.72-1.12-2.23-2.24-4.45-3.39-6.66-.77-1.48-1.54-2.95-2.31-4.42-2.33-4.4-4.73-8.76-7.18-13.08h0c-.62-1.09-1.23-2.17-1.85-3.24-1.24-2.15-2.5-4.29-3.77-6.42-.64-1.07-1.28-2.13-1.92-3.19h0c-1.71-2.84-3.45-5.64-5.23-8.44h0c-1.99-3.15-4.02-6.27-6.07-9.37-2.05-3.09-4.14-6.16-6.26-9.2-.01,0-.01-.01-.01-.01-1.06-1.52-2.13-3.04-3.2-4.55-3.22-4.53-6.53-9.02-9.9-13.44h0c-3.99-5.25-8.08-10.42-12.28-15.5-1.05-1.27-2.11-2.54-3.16-3.81-5.29-6.3-10.73-12.47-16.33-18.51-1.12-1.21-2.25-2.41-3.37-3.62-10.25-10.87-20.97-21.29-32.13-31.24-4.78-4.26-9.63-8.43-14.57-12.52h-.01c-1.39-1.15-2.78-2.29-4.18-3.42-2.81-2.27-5.63-4.51-8.48-6.72-4.28-3.32-8.61-6.57-12.99-9.75-1.46-1.06-2.93-2.11-4.4-3.16-3.93-2.79-7.91-5.54-11.92-8.22C717.34,31.84,619.26,0,513.8,0c-37.44,0-73.97,4.01-109.15,11.65-1.13.25-2.27.5-3.4.75h-.01c-2.58.58-5.16,1.17-7.73,1.8-2.58.62-5.14,1.25-7.7,1.91-2.73.7-5.45,1.43-8.16,2.17-1.4.39-2.8.77-4.19,1.17-5.28,1.5-10.53,3.08-15.74,4.74-1.3.42-2.61.84-3.9,1.26-1.95.64-3.89,1.29-5.83,1.95-1.7.58-3.39,1.17-5.08,1.76-3.37,1.19-6.73,2.42-10.07,3.68-3.35,1.26-6.67,2.55-9.98,3.88-4.96,1.99-9.89,4.06-14.77,6.2-2.49,1.08-4.96,2.19-7.42,3.32-1.23.56-2.45,1.13-3.68,1.7-1.64.76-3.27,1.53-4.89,2.31-1.08.52-2.16,1.04-3.24,1.57-1.08.52-2.16,1.05-3.24,1.58-6.88,3.42-13.68,6.99-20.38,10.71-38.58-7.64-97.14-34.1-118.78-49.55C122.18,31.9,51.42,63.09,14.56,66.01v115.24c0,36.29,17.99,69.76,42.96,96.27-2.37,4.57-4.68,9.18-6.91,13.83-1.27,2.63-2.51,5.27-3.74,7.93-.61,1.32-1.21,2.65-1.82,3.99-1.65,3.66-3.26,7.35-4.83,11.06-.78,1.86-1.55,3.72-2.32,5.58-1.72,4.2-3.38,8.43-4.98,12.69-.53,1.42-1.06,2.84-1.59,4.26-1.39,3.8-2.74,7.62-4.05,11.46-.95,2.79-1.88,5.59-2.78,8.41-1.45,4.5-2.84,9.03-4.16,13.59-.33,1.14-.66,2.28-.98,3.42s-.64,2.28-.96,3.43c-.31,1.14-.63,2.29-.93,3.44-.39,1.45-.77,2.89-1.15,4.34-.22.85-.44,1.71-.65,2.57-2.05,8.08-3.9,16.24-5.56,24.47-.24,1.17-.47,2.35-.7,3.53-.49,2.51-.96,5.03-1.41,7.56-.16.88-.31,1.77-.47,2.65-.37,2.17-.73,4.33-1.08,6.5-.17,1.04-.33,2.08-.49,3.12,0,.09-.02.18-.03.26-.2,1.24-.38,2.48-.56,3.73-.15,1-.29,2.01-.43,3.01-.22,1.56-.43,3.12-.63,4.69-.17,1.28-.33,2.57-.49,3.86-.46,3.75-.87,7.51-1.25,11.27-.12,1.22-.24,2.43-.35,3.65-.23,2.46-.44,4.93-.64,7.41-.09,1.18-.18,2.37-.26,3.56-.09,1.23-.17,2.45-.25,3.68-.06.95-.12,1.91-.18,2.86-.04.69-.08,1.39-.12,2.08-.04.81-.08,1.62-.12,2.42-.06,1.23-.12,2.46-.17,3.69-.21,4.93-.36,9.88-.43,14.84-.03,2.47-.05,4.94-.05,7.42v.04c0,56.49,9.14,110.85,26.01,161.71,2.12,6.39,4.36,12.72,6.72,19,1.18,3.13,2.39,6.26,3.63,9.37,1.24,3.1,2.51,6.2,3.81,9.27.65,1.54,1.31,3.08,1.97,4.61,1.33,3.06,2.69,6.11,4.07,9.14,1.38,3.03,2.8,6.05,4.24,9.05,1.09,2.25,2.18,4.49,3.29,6.72,1.12,2.23,2.24,4.45,3.39,6.66.76,1.48,1.53,2.95,2.31,4.42,2.33,4.4,4.72,8.76,7.18,13.08h0c.61,1.09,1.23,2.17,1.85,3.24,1.25,2.15,2.5,4.29,3.77,6.42.63,1.07,1.28,2.13,1.92,3.19h0c1.72,2.84,3.47,5.65,5.23,8.44h0c1.99,3.15,4.01,6.27,6.07,9.37,2.06,3.09,4.15,6.16,6.26,9.2,0,.01.01.01.01.01,1.06,1.52,2.12,3.04,3.2,4.55,3.23,4.53,6.53,9.02,9.9,13.44h0c4,5.25,8.1,10.42,12.28,15.5,1.04,1.28,2.1,2.54,3.16,3.81,5.31,6.3,10.75,12.47,16.33,18.51,1.11,1.21,2.24,2.42,3.37,3.62,10.25,10.87,20.98,21.3,32.13,31.24,4.78,4.27,9.64,8.44,14.57,12.52h.01c1.39,1.15,2.78,2.29,4.18,3.42,2.81,2.27,5.63,4.51,8.48,6.72,4.28,3.32,8.61,6.57,12.99,9.75,1.46,1.06,2.92,2.12,4.4,3.16,3.93,2.79,7.91,5.53,11.92,8.22,81.61,54.58,179.7,86.42,285.15,86.42s203.23-31.75,284.76-86.18v52.25c0,10.7,8.67,19.37,19.37,19.37h71.55c10.7,0,19.37-8.67,19.37-19.37v-84.82h84.82c10.7,0,19.37-8.67,19.37-19.37v-71.55c0-10.7-8.67-19.37-19.37-19.37h-52.25c3.46-5.17,6.82-10.42,10.09-15.72.41-.66.81-1.33,1.21-1.99.51-.82,1.01-1.66,1.51-2.48.01-.02.02-.03.03-.05,1.01-1.69,2.03-3.38,3.03-5.09.06-.11.13-.22.19-.33,1-1.71,2-3.44,2.98-5.17.5-.86.98-1.73,1.47-2.6.49-.86.97-1.74,1.46-2.61.72-1.31,1.45-2.62,2.16-3.94.14-.25.28-.5.41-.75.21-.38.42-.76.62-1.14.34-.63.68-1.26,1.01-1.89,1.39-2.62,2.77-5.24,4.12-7.88,1.4-2.74,2.78-5.5,4.13-8.27.93-1.91,1.85-3.82,2.76-5.74,1.36-2.88,2.7-5.77,4-8.68,1.31-2.9,2.59-5.82,3.85-8.76,1.67-3.92,3.3-7.86,4.88-11.82,1.58-3.97,3.11-7.96,4.59-11.97,1.08-2.92,2.13-5.85,3.16-8.79,1.28-3.68,2.52-7.37,3.73-11.09.6-1.86,1.19-3.72,1.77-5.59,1.09-3.5,2.14-7.01,3.15-10.55,1.69-5.88,3.28-11.81,4.76-17.78.85-3.44,1.67-6.9,2.46-10.36.26-1.16.52-2.31.77-3.47,1.35-6.18,2.59-12.4,3.72-18.66.24-1.31.47-2.62.7-3.94.08-.43.15-.86.22-1.29.5-2.95.98-5.92,1.43-8.89v-.02c.45-2.97.87-5.94,1.27-8.92.2-1.5.4-2.99.58-4.49.13-1.02.25-2.04.37-3.06.15-1.19.28-2.39.41-3.58.14-1.22.27-2.45.4-3.68.01-.09.02-.19.03-.28.16-1.52.31-3.05.45-4.59.01-.07.02-.15.02-.22.14-1.43.27-2.86.39-4.3.17-1.91.32-3.82.46-5.73.11-1.44.21-2.88.3-4.33.08-1.18.15-2.36.22-3.55.06-.83.1-1.67.14-2.51.08-1.27.14-2.55.2-3.83.06-1.2.11-2.41.15-3.62.09-1.99.16-3.99.21-6,.04-1.38.07-2.77.1-4.15.07-3.52.11-7.05.11-10.59,0-56.49-9.14-110.87-26.01-161.73ZM71.47,153.21c5.68-5.69,14.91-5.69,20.59,0l39.77,39.77,69.03-69.02c5.68-5.68,14.91-5.68,20.59,0,5.69,5.68,5.69,14.91,0,20.59l-79.32,79.32c-5.69,5.69-14.91,5.69-20.59,0l-50.07-50.07c-5.69-5.68-5.69-14.91,0-20.59ZM998.46,518.28c0,.79-.02,1.58-.03,2.37-.01.98-.03,1.95-.05,2.93-.03,1.59-.07,3.18-.12,4.77,0,.11,0,.23-.01.34-.04,1.54-.09,3.08-.16,4.62v.03c-.05,1.25-.1,2.49-.16,3.73-.04.77-.07,1.54-.12,2.31-.05,1.02-.1,2.03-.17,3.04-.01.32-.03.64-.05.95-.06,1.09-.13,2.17-.21,3.25-.13,2.01-.28,4.02-.44,6.02-.09,1.24-.2,2.48-.31,3.72-.31,3.56-.65,7.11-1.04,10.64-.35,3.17-.73,6.34-1.14,9.5-.19,1.48-.39,2.96-.59,4.44-.03.22-.06.45-.1.67-.18,1.31-.37,2.61-.56,3.91-.5,3.34-1.03,6.68-1.59,10-.26,1.5-.52,2.99-.79,4.48-.27,1.55-.55,3.08-.85,4.62-.62,3.29-1.28,6.57-1.98,9.84-.28,1.36-.57,2.72-.88,4.07-.33,1.53-.67,3.06-1.03,4.59-.32,1.39-.65,2.78-.98,4.16-.08.35-.17.7-.26,1.06-.32,1.31-.64,2.61-.97,3.91-.36,1.46-.73,2.92-1.12,4.37-.02.12-.05.24-.09.35-.38,1.45-.77,2.9-1.16,4.35-1.23,4.51-2.53,9-3.88,13.46-1.35,4.46-2.77,8.9-4.26,13.31-.98,2.93-1.99,5.85-3.03,8.75,0,.01-.01.03-.02.04-.51,1.42-1.02,2.84-1.54,4.25,0,.06-.04.11-.06.17-.53,1.42-1.06,2.84-1.6,4.26-.55,1.44-1.1,2.88-1.66,4.32-1.12,2.87-2.27,5.73-3.45,8.58-1.17,2.84-2.37,5.67-3.6,8.49-.61,1.41-1.23,2.82-1.86,4.22s-1.26,2.8-1.9,4.2c-.96,2.1-1.93,4.18-2.92,6.26-.98,2.07-1.99,4.14-3.01,6.2-.68,1.37-1.36,2.74-2.05,4.11-.69,1.36-1.39,2.73-2.09,4.09-1.76,3.4-3.56,6.77-5.39,10.12-1.83,3.34-3.7,6.67-5.62,9.97-.77,1.32-1.54,2.64-2.31,3.95-.78,1.31-1.56,2.62-2.35,3.93-.79,1.3-1.58,2.6-2.38,3.9-.8,1.3-1.61,2.59-2.42,3.88-.23.36-.46.72-.69,1.08-4.66,7.36-9.52,14.58-14.56,21.66v-80.78c0-10.69-8.67-19.36-19.37-19.36h-71.55c-10.7,0-19.37,8.67-19.37,19.36v84.82h-84.82c-10.69,0-19.36,8.67-19.36,19.37v71.55c0,10.7,8.67,19.37,19.36,19.37h80.78c-7.09,5.05-14.32,9.92-21.69,14.58-.35.23-.7.45-1.05.67-1.93,1.23-3.88,2.44-5.83,3.62-1.95,1.2-3.91,2.37-5.88,3.53-2.62,1.56-5.26,3.09-7.92,4.59-3.81,2.16-7.66,4.27-11.53,6.33-1.29.69-2.59,1.37-3.89,2.04-.23.13-.46.25-.7.36-1.36.7-2.73,1.4-4.09,2.09-1.37.69-2.74,1.38-4.11,2.05-1.38.68-2.75,1.35-4.13,2.02-8.93,4.3-18.02,8.34-27.24,12.1-2.05.84-4.11,1.66-6.17,2.47-1.04.41-2.07.81-3.11,1.2-8.41,3.23-16.94,6.23-25.57,8.99-2.91.93-5.84,1.84-8.77,2.72-2.2.66-4.42,1.3-6.63,1.93-2.21.63-4.43,1.25-6.66,1.84-2.51.67-5.02,1.32-7.54,1.96-37.84,9.49-77.44,14.53-118.21,14.53-79.14,0-153.89-19.01-219.9-52.7-1.18-.6-2.36-1.2-3.53-1.82-2.35-1.22-4.68-2.47-7.01-3.72-3.48-1.89-6.94-3.82-10.38-5.79-2.29-1.32-4.56-2.65-6.83-4-1.34-.8-2.68-1.6-4.02-2.42-2.67-1.63-5.31-3.27-7.95-4.95-2.63-1.68-5.25-3.38-7.85-5.1-6.5-4.31-12.89-8.78-19.16-13.39-1.57-1.15-3.14-2.32-4.71-3.5-1.17-.88-2.33-1.77-3.49-2.66-2.03-1.56-4.05-3.14-6.06-4.73-6.02-4.78-11.93-9.7-17.71-14.75h-.01c-2.94-2.57-5.84-5.17-8.71-7.8-5.75-5.27-11.38-10.68-16.87-16.22-6.6-6.65-12.99-13.49-19.18-20.51-2.33-2.62-4.63-5.28-6.89-7.96-.76-.89-1.51-1.79-2.26-2.69-1-1.2-2-2.41-2.98-3.62-1.98-2.42-3.93-4.85-5.86-7.3h0c-1.92-2.47-3.83-4.94-5.72-7.43h0c-2.82-3.75-5.59-7.53-8.31-11.35-.91-1.28-1.81-2.56-2.7-3.85-1.78-2.56-3.54-5.15-5.29-7.75-2.61-3.91-5.16-7.85-7.66-11.84-1.25-1.99-2.48-3.99-3.7-6.01-1.22-2.01-2.43-4.03-3.62-6.06-.79-1.35-1.58-2.72-2.36-4.08-1.56-2.72-3.1-5.46-4.61-8.22-1.51-2.75-3-5.52-4.46-8.32-.73-1.4-1.46-2.8-2.17-4.2-1.43-2.8-2.83-5.61-4.21-8.45-.69-1.42-1.37-2.85-2.05-4.27-.68-1.43-1.35-2.86-2.01-4.29-1.32-2.86-2.62-5.74-3.89-8.64-6.35-14.49-12.02-29.34-16.95-44.52-15.33-47.17-23.61-97.49-23.61-149.74,0-1.22,0-2.44.01-3.65.02-1.78.04-3.55.07-5.32,0-.64.03-1.28.04-1.92.06-2.69.14-5.37.24-8.04.04-.93.08-1.86.12-2.78.04-1.02.09-2.03.14-3.04.11-2.08.22-4.15.36-6.21.05-.87.11-1.74.17-2.61.07-1.11.15-2.22.24-3.33.19-2.62.41-5.23.65-7.84.17-1.8.34-3.6.53-5.4,0-.03,0-.07.01-.11.21-2.02.43-4.05.67-6.07.03-.35.07-.69.12-1.04.13-1.16.27-2.31.42-3.47.37-3,.78-5.99,1.21-8.97.15-1.08.31-2.17.48-3.25.19-1.27.39-2.53.59-3.79.14-.9.29-1.8.44-2.69.2-1.24.41-2.47.62-3.7.16-.92.32-1.84.49-2.76.38-2.15.78-4.29,1.19-6.43.42-2.13.84-4.27,1.29-6.39.49-2.35.99-4.7,1.51-7.03.25-1.14.51-2.27.77-3.4.52-2.27,1.06-4.52,1.62-6.77.27-1.13.55-2.25.84-3.38.28-1.12.57-2.24.87-3.36.29-1.12.59-2.24.89-3.36.29-1.12.6-2.23.91-3.34.31-1.12.62-2.23.94-3.34.63-2.22,1.28-4.43,1.94-6.64.64-2.12,1.29-4.23,1.95-6.34.38-1.19.75-2.37,1.14-3.56.35-1.09.71-2.18,1.07-3.27.36-1.09.73-2.18,1.1-3.27.37-1.09.74-2.17,1.12-3.25.37-1.09.75-2.17,1.14-3.25,1.72-4.82,3.5-9.6,5.36-14.34.3-.75.6-1.51.9-2.26.39-.99.79-1.98,1.19-2.96,1.19-2.96,2.42-5.9,3.68-8.83.05-.11.1-.22.14-.33.79-1.84,1.59-3.68,2.41-5.5.43-.97.87-1.94,1.31-2.9,2.48-5.51,5.07-10.97,7.76-16.36,21.58,17.19,45.48,29.57,66.68,35.26,56.42-15.14,131.9-77.61,131.9-151.98v-91.11c69.72-38.87,150.01-61.02,235.44-61.02,95.74,0,185.02,27.82,260.21,75.82,2.51,1.6,5,3.22,7.47,4.86,2.48,1.65,4.94,3.31,7.38,5,1.31.91,2.61,1.81,3.9,2.72,2.58,1.82,5.15,3.67,7.7,5.55,1.27.94,2.54,1.88,3.81,2.83,1.78,1.34,3.55,2.69,5.32,4.04,5.28,4.07,10.47,8.25,15.57,12.55,1.71,1.44,3.4,2.88,5.09,4.32,1.68,1.45,3.35,2.91,5,4.39.84.74,1.67,1.49,2.5,2.22,1.65,1.48,3.28,2.97,4.91,4.49.82.76,1.64,1.52,2.45,2.27,1.62,1.51,3.22,3.04,4.82,4.59,2.4,2.31,4.77,4.65,7.13,7,1.57,1.58,3.13,3.16,4.67,4.75.76.8,1.54,1.6,2.31,2.41.77.8,1.54,1.61,2.3,2.42,1.52,1.61,3.04,3.24,4.54,4.87.75.82,1.5,1.64,2.24,2.46,3.73,4.12,7.38,8.3,10.97,12.54,1.44,1.7,2.86,3.4,4.27,5.12,1.41,1.72,2.81,3.44,4.2,5.18.96,1.21,1.92,2.43,2.88,3.65,6.69,8.51,13.09,17.26,19.19,26.23.87,1.28,1.73,2.57,2.6,3.86,1.72,2.58,3.42,5.18,5.09,7.79,5.02,7.84,9.82,15.83,14.39,23.97h0c2,3.57,3.95,7.16,5.87,10.77,1.92,3.62,3.78,7.26,5.6,10.93.52,1.05,1.04,2.1,1.55,3.15.68,1.41,1.36,2.81,2.03,4.22,1.35,2.82,2.66,5.66,3.95,8.51.64,1.43,1.28,2.86,1.91,4.29,1.89,4.3,3.73,8.63,5.5,13,.59,1.45,1.17,2.91,1.75,4.37,1.15,2.92,2.28,5.86,3.37,8.81,1.65,4.43,3.23,8.88,4.75,13.37.65,1.88,1.27,3.76,1.88,5.64,15.33,47.17,23.61,97.49,23.61,149.74,0,1.49-.01,2.97-.02,4.46ZM513.8,162.84c-38.42,0-69.61,31.19-69.61,69.61s31.19,69.62,69.61,69.62,69.61-31.2,69.61-69.62-31.19-69.61-69.61-69.61ZM513.8,162.84c-38.42,0-69.61,31.19-69.61,69.61s31.19,69.62,69.61,69.62,69.61-31.2,69.61-69.62-31.19-69.61-69.61-69.61ZM513.8,162.84c-38.42,0-69.61,31.19-69.61,69.61s31.19,69.62,69.61,69.62,69.61-31.2,69.61-69.62-31.19-69.61-69.61-69.61ZM513.8,162.84c-38.42,0-69.61,31.19-69.61,69.61s31.19,69.62,69.61,69.62,69.61-31.2,69.61-69.62-31.19-69.61-69.61-69.61ZM513.8,162.84c-38.42,0-69.61,31.19-69.61,69.61s31.19,69.62,69.61,69.62,69.61-31.2,69.61-69.62-31.19-69.61-69.61-69.61Z"/><path class="cls-1" d="M513.8,148.3c-46.46,0-84.18,37.72-84.18,84.17s37.72,84.18,84.18,84.18,84.18-37.72,84.18-84.18-37.72-84.17-84.18-84.17ZM513.8,287.53c-30.38,0-55.05-24.67-55.05-55.06s24.67-55.05,55.05-55.05,55.05,24.67,55.05,55.05-24.67,55.06-55.05,55.06ZM769.17,313.89c-14.49-25.09-46.67-33.81-71.77-19.33l-93.25,53.84c-5.49,3.17-11.71,4.84-18.05,4.84h-144.63c-6.33,0-12.56-1.67-18.05-4.84l-93.19-53.8c-12.07-6.97-26.42-8.86-39.88-5.25-13.42,3.59-23.27,9.83-31.84,24.37-15.26,25.87-6,57.38,19.17,71.91h.02s121.64,69.97,121.64,69.97v352.9c.01,18.57,6.66,36.34,18.31,49.46,12.23,13.79,28.9,21.38,46.21,21.38s33.97-7.59,46.2-21.38c1.32-1.48,2.57-3.02,3.76-4.62,11.91,15.94,29.99,26,49.92,26h.01c35.12,0,64.5-31.26,64.5-70.83v-210.52s-.01-142.12-.01-142.12l121.72-70.28c25.1-14.49,33.7-46.59,19.21-71.7ZM563.75,850.22h-.04c-20.04-.02-35.35-19.13-35.35-41.71v-148.08c0-8.04-6.52-14.56-14.56-14.56s-14.56,6.52-14.56,14.56v148.08c0,11.28-3.88,22.14-10.96,30.12-6.5,7.32-15.24,11.59-24.42,11.59s-17.93-4.27-24.43-11.59c-7.08-7.98-10.96-18.84-10.96-30.13v-195.95s170.65,0,170.65,0v195.96c.01,22.59-15.32,41.71-35.37,41.71ZM735.4,360.37l-128.88,74.41c-5.71,3.3-7.16,7.59-7.4,12.4-1.24,24.77,0,136.25,0,136.25h-170.66v-136.25c0-5.21-2.79-10.03-7.3-12.63l-128.93-74.14c-11.17-6.46-15.41-20.41-8.64-31.9,3.86-6.54,8.25-9.41,14.3-11.03,6-1.61,12.39-.77,17.78,2.34l93.19,53.8c9.92,5.73,21.16,8.74,32.61,8.74h144.63c11.45,0,22.7-3.01,32.61-8.74l93.25-53.83c11.19-6.46,25.53-2.52,31.99,8.66,6.45,11.18,2.62,25.47-8.55,31.92ZM769.17,313.89c-14.49-25.09-46.67-33.81-71.77-19.33l-93.25,53.84c-5.49,3.17-11.71,4.84-18.05,4.84h-144.63c-6.33,0-12.56-1.67-18.05-4.84l-93.19-53.8c-12.07-6.97-26.42-8.86-39.88-5.25-13.42,3.59-23.27,9.83-31.84,24.37-15.26,25.87-6,57.38,19.17,71.91h.02s121.64,69.97,121.64,69.97v352.9c.01,18.57,6.66,36.34,18.31,49.46,12.23,13.79,28.9,21.38,46.21,21.38s33.97-7.59,46.2-21.38c1.32-1.48,2.57-3.02,3.76-4.62,11.91,15.94,29.99,26,49.92,26h.01c35.12,0,64.5-31.26,64.5-70.83v-210.52s-.01-142.12-.01-142.12l121.72-70.28c25.1-14.49,33.7-46.59,19.21-71.7ZM563.75,850.22h-.04c-20.04-.02-35.35-19.13-35.35-41.71v-148.08c0-8.04-6.52-14.56-14.56-14.56s-14.56,6.52-14.56,14.56v148.08c0,11.28-3.88,22.14-10.96,30.12-6.5,7.32-15.24,11.59-24.42,11.59s-17.93-4.27-24.43-11.59c-7.08-7.98-10.96-18.84-10.96-30.13v-195.95s170.65,0,170.65,0v195.96c.01,22.59-15.32,41.71-35.37,41.71ZM735.4,360.37l-128.88,74.41c-5.71,3.3-7.16,7.59-7.4,12.4-1.24,24.77,0,136.25,0,136.25h-170.66v-136.25c0-5.21-2.79-10.03-7.3-12.63l-128.93-74.14c-11.17-6.46-15.41-20.41-8.64-31.9,3.86-6.54,8.25-9.41,14.3-11.03,6-1.61,12.39-.77,17.78,2.34l93.19,53.8c9.92,5.73,21.16,8.74,32.61,8.74h144.63c11.45,0,22.7-3.01,32.61-8.74l93.25-53.83c11.19-6.46,25.53-2.52,31.99,8.66,6.45,11.18,2.62,25.47-8.55,31.92ZM513.8,148.3c-46.46,0-84.18,37.72-84.18,84.17s37.72,84.18,84.18,84.18,84.18-37.72,84.18-84.18-37.72-84.17-84.18-84.17ZM513.8,287.53c-30.38,0-55.05-24.67-55.05-55.06s24.67-55.05,55.05-55.05,55.05,24.67,55.05,55.05-24.67,55.06-55.05,55.06ZM513.8,148.3c-46.46,0-84.18,37.72-84.18,84.17s37.72,84.18,84.18,84.18,84.18-37.72,84.18-84.18-37.72-84.17-84.18-84.17ZM513.8,287.53c-30.38,0-55.05-24.67-55.05-55.06s24.67-55.05,55.05-55.05,55.05,24.67,55.05,55.05-24.67,55.06-55.05,55.06ZM769.17,313.89c-14.49-25.09-46.67-33.81-71.77-19.33l-93.25,53.84c-5.49,3.17-11.71,4.84-18.05,4.84h-144.63c-6.33,0-12.56-1.67-18.05-4.84l-93.19-53.8c-12.07-6.97-26.42-8.86-39.88-5.25-13.42,3.59-23.27,9.83-31.84,24.37-15.26,25.87-6,57.38,19.17,71.91h.02s121.64,69.97,121.64,69.97v352.9c.01,18.57,6.66,36.34,18.31,49.46,12.23,13.79,28.9,21.38,46.21,21.38s33.97-7.59,46.2-21.38c1.32-1.48,2.57-3.02,3.76-4.62,11.91,15.94,29.99,26,49.92,26h.01c35.12,0,64.5-31.26,64.5-70.83v-210.52s-.01-142.12-.01-142.12l121.72-70.28c25.1-14.49,33.7-46.59,19.21-71.7ZM563.75,850.22h-.04c-20.04-.02-35.35-19.13-35.35-41.71v-148.08c0-8.04-6.52-14.56-14.56-14.56s-14.56,6.52-14.56,14.56v148.08c0,11.28-3.88,22.14-10.96,30.12-6.5,7.32-15.24,11.59-24.42,11.59s-17.93-4.27-24.43-11.59c-7.08-7.98-10.96-18.84-10.96-30.13v-195.95s170.65,0,170.65,0v195.96c.01,22.59-15.32,41.71-35.37,41.71ZM735.4,360.37l-128.88,74.41c-5.71,3.3-7.16,7.59-7.4,12.4-1.24,24.77,0,136.25,0,136.25h-170.66v-136.25c0-5.21-2.79-10.03-7.3-12.63l-128.93-74.14c-11.17-6.46-15.41-20.41-8.64-31.9,3.86-6.54,8.25-9.41,14.3-11.03,6-1.61,12.39-.77,17.78,2.34l93.19,53.8c9.92,5.73,21.16,8.74,32.61,8.74h144.63c11.45,0,22.7-3.01,32.61-8.74l93.25-53.83c11.19-6.46,25.53-2.52,31.99,8.66,6.45,11.18,2.62,25.47-8.55,31.92ZM769.17,313.89c-14.49-25.09-46.67-33.81-71.77-19.33l-93.25,53.84c-5.49,3.17-11.71,4.84-18.05,4.84h-144.63c-6.33,0-12.56-1.67-18.05-4.84l-93.19-53.8c-12.07-6.97-26.42-8.86-39.88-5.25-13.42,3.59-23.27,9.83-31.84,24.37-15.26,25.87-6,57.38,19.17,71.91h.02s121.64,69.97,121.64,69.97v352.9c.01,18.57,6.66,36.34,18.31,49.46,12.23,13.79,28.9,21.38,46.21,21.38s33.97-7.59,46.2-21.38c1.32-1.48,2.57-3.02,3.76-4.62,11.91,15.94,29.99,26,49.92,26h.01c35.12,0,64.5-31.26,64.5-70.83v-210.52s-.01-142.12-.01-142.12l121.72-70.28c25.1-14.49,33.7-46.59,19.21-71.7ZM563.75,850.22h-.04c-20.04-.02-35.35-19.13-35.35-41.71v-148.08c0-8.04-6.52-14.56-14.56-14.56s-14.56,6.52-14.56,14.56v148.08c0,11.28-3.88,22.14-10.96,30.12-6.5,7.32-15.24,11.59-24.42,11.59s-17.93-4.27-24.43-11.59c-7.08-7.98-10.96-18.84-10.96-30.13v-195.95s170.65,0,170.65,0v195.96c.01,22.59-15.32,41.71-35.37,41.71ZM735.4,360.37l-128.88,74.41c-5.71,3.3-7.16,7.59-7.4,12.4-1.24,24.77,0,136.25,0,136.25h-170.66v-136.25c0-5.21-2.79-10.03-7.3-12.63l-128.93-74.14c-11.17-6.46-15.41-20.41-8.64-31.9,3.86-6.54,8.25-9.41,14.3-11.03,6-1.61,12.39-.77,17.78,2.34l93.19,53.8c9.92,5.73,21.16,8.74,32.61,8.74h144.63c11.45,0,22.7-3.01,32.61-8.74l93.25-53.83c11.19-6.46,25.53-2.52,31.99,8.66,6.45,11.18,2.62,25.47-8.55,31.92ZM513.8,148.3c-46.46,0-84.18,37.72-84.18,84.17s37.72,84.18,84.18,84.18,84.18-37.72,84.18-84.18-37.72-84.17-84.18-84.17ZM513.8,287.53c-30.38,0-55.05-24.67-55.05-55.06s24.67-55.05,55.05-55.05,55.05,24.67,55.05,55.05-24.67,55.06-55.05,55.06ZM513.8,148.3c-46.46,0-84.18,37.72-84.18,84.17s37.72,84.18,84.18,84.18,84.18-37.72,84.18-84.18-37.72-84.17-84.18-84.17ZM513.8,287.53c-30.38,0-55.05-24.67-55.05-55.06s24.67-55.05,55.05-55.05,55.05,24.67,55.05,55.05-24.67,55.06-55.05,55.06ZM769.17,313.89c-14.49-25.09-46.67-33.81-71.77-19.33l-93.25,53.84c-5.49,3.17-11.71,4.84-18.05,4.84h-144.63c-6.33,0-12.56-1.67-18.05-4.84l-93.19-53.8c-12.07-6.97-26.42-8.86-39.88-5.25-13.42,3.59-23.27,9.83-31.84,24.37-15.26,25.87-6,57.38,19.17,71.91h.02s121.64,69.97,121.64,69.97v352.9c.01,18.57,6.66,36.34,18.31,49.46,12.23,13.79,28.9,21.38,46.21,21.38s33.97-7.59,46.2-21.38c1.32-1.48,2.57-3.02,3.76-4.62,11.91,15.94,29.99,26,49.92,26h.01c35.12,0,64.5-31.26,64.5-70.83v-210.52s-.01-142.12-.01-142.12l121.72-70.28c25.1-14.49,33.7-46.59,19.21-71.7ZM563.75,850.22h-.04c-20.04-.02-35.35-19.13-35.35-41.71v-148.08c0-8.04-6.52-14.56-14.56-14.56s-14.56,6.52-14.56,14.56v148.08c0,11.28-3.88,22.14-10.96,30.12-6.5,7.32-15.24,11.59-24.42,11.59s-17.93-4.27-24.43-11.59c-7.08-7.98-10.96-18.84-10.96-30.13v-195.95s170.65,0,170.65,0v195.96c.01,22.59-15.32,41.71-35.37,41.71ZM735.4,360.37l-128.88,74.41c-5.71,3.3-7.16,7.59-7.4,12.4-1.24,24.77,0,136.25,0,136.25h-170.66v-136.25c0-5.21-2.79-10.03-7.3-12.63l-128.93-74.14c-11.17-6.46-15.41-20.41-8.64-31.9,3.86-6.54,8.25-9.41,14.3-11.03,6-1.61,12.39-.77,17.78,2.34l93.19,53.8c9.92,5.73,21.16,8.74,32.61,8.74h144.63c11.45,0,22.7-3.01,32.61-8.74l93.25-53.83c11.19-6.46,25.53-2.52,31.99,8.66,6.45,11.18,2.62,25.47-8.55,31.92ZM769.17,313.89c-14.49-25.09-46.67-33.81-71.77-19.33l-93.25,53.84c-5.49,3.17-11.71,4.84-18.05,4.84h-144.63c-6.33,0-12.56-1.67-18.05-4.84l-93.19-53.8c-12.07-6.97-26.42-8.86-39.88-5.25-13.42,3.59-23.27,9.83-31.84,24.37-15.26,25.87-6,57.38,19.17,71.91h.02s121.64,69.97,121.64,69.97v352.9c.01,18.57,6.66,36.34,18.31,49.46,12.23,13.79,28.9,21.38,46.21,21.38s33.97-7.59,46.2-21.38c1.32-1.48,2.57-3.02,3.76-4.62,11.91,15.94,29.99,26,49.92,26h.01c35.12,0,64.5-31.26,64.5-70.83v-210.52s-.01-142.12-.01-142.12l121.72-70.28c25.1-14.49,33.7-46.59,19.21-71.7ZM563.75,850.22h-.04c-20.04-.02-35.35-19.13-35.35-41.71v-148.08c0-8.04-6.52-14.56-14.56-14.56s-14.56,6.52-14.56,14.56v148.08c0,11.28-3.88,22.14-10.96,30.12-6.5,7.32-15.24,11.59-24.42,11.59s-17.93-4.27-24.43-11.59c-7.08-7.98-10.96-18.84-10.96-30.13v-195.95s170.65,0,170.65,0v195.96c.01,22.59-15.32,41.71-35.37,41.71ZM735.4,360.37l-128.88,74.41c-5.71,3.3-7.16,7.59-7.4,12.4-1.24,24.77,0,136.25,0,136.25h-170.66v-136.25c0-5.21-2.79-10.03-7.3-12.63l-128.93-74.14c-11.17-6.46-15.41-20.41-8.64-31.9,3.86-6.54,8.25-9.41,14.3-11.03,6-1.61,12.39-.77,17.78,2.34l93.19,53.8c9.92,5.73,21.16,8.74,32.61,8.74h144.63c11.45,0,22.7-3.01,32.61-8.74l93.25-53.83c11.19-6.46,25.53-2.52,31.99,8.66,6.45,11.18,2.62,25.47-8.55,31.92ZM513.8,316.65c46.46,0,84.18-37.72,84.18-84.18s-37.72-84.17-84.18-84.17-84.18,37.72-84.18,84.17,37.72,84.18,84.18,84.18ZM513.8,177.42c30.38,0,55.05,24.67,55.05,55.05s-24.67,55.06-55.05,55.06-55.05-24.67-55.05-55.06,24.67-55.05,55.05-55.05ZM1001.59,352.09c-2.12-6.39-4.36-12.72-6.72-19-1.18-3.13-2.39-6.26-3.63-9.37-1.24-3.1-2.51-6.2-3.81-9.27-.65-1.54-1.31-3.08-1.97-4.61-1.33-3.06-2.69-6.11-4.07-9.14-1.39-3.03-2.8-6.05-4.24-9.05-1.09-2.25-2.18-4.49-3.29-6.72-1.12-2.23-2.24-4.45-3.39-6.66-.77-1.48-1.54-2.95-2.31-4.42-2.33-4.4-4.73-8.76-7.18-13.08h0c-.62-1.09-1.23-2.17-1.85-3.24-1.25-2.15-2.5-4.29-3.77-6.42-.64-1.07-1.28-2.13-1.92-3.19h0c-1.72-2.84-3.47-5.65-5.23-8.44h0c-1.99-3.15-4.02-6.27-6.07-9.37-2.06-3.09-4.15-6.16-6.26-9.2-.01,0-.01-.01-.01-.01-1.06-1.52-2.13-3.04-3.2-4.55-3.23-4.53-6.53-9.02-9.9-13.44h0c-4-5.25-8.1-10.42-12.28-15.5-1.05-1.27-2.11-2.54-3.16-3.81-5.31-6.3-10.75-12.47-16.33-18.51-1.12-1.21-2.25-2.41-3.37-3.62-10.25-10.87-20.97-21.29-32.13-31.24-4.78-4.26-9.63-8.43-14.57-12.52h-.01c-1.39-1.15-2.78-2.29-4.18-3.42-2.81-2.27-5.63-4.51-8.48-6.72-4.28-3.32-8.61-6.57-12.99-9.75-1.46-1.06-2.93-2.11-4.4-3.16-3.93-2.79-7.91-5.53-11.92-8.22C717.34,31.86,619.25.02,513.8.02c-37.45,0-73.97,4.02-109.15,11.63-1.13.25-2.27.5-3.4.75h-.01c-2.59.58-5.17,1.18-7.73,1.8-2.58.62-5.14,1.25-7.7,1.91-2.73.7-5.45,1.43-8.16,2.17-1.4.39-2.8.77-4.19,1.17-5.28,1.5-10.53,3.08-15.74,4.74-1.3.42-2.61.84-3.9,1.26-1.95.64-3.89,1.29-5.83,1.95-1.7.58-3.39,1.17-5.08,1.76-3.37,1.2-6.73,2.42-10.07,3.68-3.35,1.26-6.67,2.56-9.98,3.88-4.96,1.99-9.89,4.06-14.77,6.2-2.49,1.09-4.96,2.2-7.42,3.32-1.23.56-2.45,1.13-3.68,1.7-1.64.76-3.27,1.53-4.89,2.31-1.08.52-2.16,1.04-3.24,1.57-1.08.53-2.16,1.06-3.23,1.59,0,0-.01,0-.01-.01-1.82-1.04-3.89-1.71-6.11-1.89C244.12,48.71,153.08,1.61,153.08,1.61c-4.16-2.12-9.08-2.12-13.24,0,0,0-91.04,47.1-126.43,49.9-7.57.6-13.41,6.92-13.41,14.52v115.24c0,40.94,20.35,78.81,48.89,108.32.57.59,1.14,1.18,1.72,1.76-1.27,2.63-2.51,5.27-3.74,7.93-.61,1.32-1.21,2.65-1.82,3.99-1.65,3.66-3.26,7.35-4.83,11.06-.78,1.86-1.55,3.72-2.32,5.58-1.71,4.2-3.37,8.43-4.98,12.69-.53,1.42-1.06,2.84-1.59,4.26-1.39,3.8-2.74,7.62-4.05,11.46-.95,2.79-1.88,5.59-2.78,8.41-1.45,4.5-2.83,9.03-4.16,13.59-.33,1.14-.66,2.28-.98,3.42s-.64,2.28-.96,3.43c-.31,1.14-.63,2.29-.93,3.44-.39,1.45-.77,2.89-1.15,4.34-.22.85-.44,1.71-.65,2.57-2.05,8.08-3.9,16.24-5.56,24.47-.24,1.17-.47,2.35-.7,3.53-.49,2.51-.96,5.03-1.41,7.56-.16.88-.31,1.77-.47,2.65-.37,2.17-.73,4.33-1.08,6.5-.17,1.04-.33,2.08-.49,3.12,0,.09-.02.18-.03.26-.2,1.24-.38,2.48-.56,3.73-.15,1-.29,2.01-.43,3.01-.22,1.56-.43,3.12-.63,4.69-.17,1.28-.33,2.57-.49,3.86-.46,3.75-.87,7.51-1.25,11.27-.12,1.22-.24,2.43-.35,3.65-.23,2.46-.44,4.93-.64,7.41-.09,1.18-.18,2.37-.26,3.56-.09,1.23-.17,2.45-.25,3.68-.06.95-.12,1.91-.18,2.86-.04.69-.08,1.39-.12,2.08-.04.81-.08,1.62-.12,2.42-.06,1.23-.12,2.46-.17,3.69-.21,4.93-.36,9.88-.43,14.84-.03,2.47-.05,4.94-.05,7.42v.04c0,56.49,9.14,110.85,26.01,161.71,2.12,6.39,4.36,12.72,6.72,19,1.18,3.13,2.39,6.26,3.63,9.37,1.24,3.1,2.51,6.2,3.81,9.27.65,1.54,1.31,3.08,1.97,4.61,1.33,3.06,2.68,6.11,4.07,9.14,1.38,3.03,2.8,6.05,4.24,9.05,1.09,2.25,2.18,4.49,3.29,6.72,1.12,2.23,2.24,4.45,3.39,6.66.76,1.48,1.53,2.95,2.31,4.42,2.33,4.4,4.72,8.76,7.18,13.08h0c.61,1.09,1.23,2.17,1.85,3.24,1.25,2.15,2.5,4.29,3.77,6.42.63,1.07,1.28,2.13,1.92,3.19h0c1.71,2.84,3.45,5.64,5.23,8.44h0c1.99,3.15,4.01,6.27,6.07,9.37,2.05,3.09,4.14,6.16,6.26,9.2,0,.01.01.01.01.01,1.06,1.52,2.12,3.04,3.2,4.55,3.22,4.53,6.53,9.02,9.9,13.44h0c3.99,5.25,8.08,10.42,12.28,15.5,1.04,1.28,2.1,2.54,3.16,3.81,5.29,6.3,10.73,12.47,16.33,18.51,1.11,1.21,2.24,2.42,3.37,3.62,10.25,10.87,20.98,21.3,32.13,31.24,4.78,4.27,9.64,8.44,14.57,12.52h.01c1.39,1.15,2.78,2.29,4.18,3.42,2.81,2.27,5.63,4.51,8.48,6.72,4.28,3.32,8.61,6.57,12.99,9.75,1.46,1.06,2.92,2.12,4.4,3.16,3.93,2.79,7.91,5.53,11.92,8.22,81.61,54.58,179.7,86.42,285.15,86.42s203.23-31.75,284.76-86.18v52.25c0,10.7,8.67,19.37,19.37,19.37h71.55c10.7,0,19.37-8.67,19.37-19.37v-84.82h84.82c10.7,0,19.37-8.67,19.37-19.37v-71.55c0-10.7-8.67-19.37-19.37-19.37h-52.25c3.46-5.17,6.82-10.42,10.09-15.72.41-.66.81-1.33,1.21-1.99.51-.82,1.01-1.66,1.51-2.48.01-.02.02-.03.03-.05,1.01-1.69,2.03-3.38,3.03-5.09.06-.11.13-.22.19-.33,1-1.71,2-3.44,2.98-5.17.5-.86.98-1.73,1.47-2.6.49-.86.97-1.74,1.46-2.61.72-1.31,1.45-2.62,2.16-3.94.14-.25.28-.5.41-.75.21-.38.42-.76.62-1.14.34-.63.68-1.26,1.01-1.89,1.39-2.62,2.77-5.24,4.12-7.88,1.41-2.74,2.79-5.5,4.13-8.27.93-1.91,1.85-3.82,2.76-5.74,1.36-2.88,2.7-5.77,4-8.68,1.31-2.9,2.6-5.82,3.85-8.76,1.68-3.92,3.3-7.86,4.88-11.82,1.58-3.97,3.11-7.96,4.59-11.97,1.09-2.92,2.14-5.85,3.16-8.79,1.28-3.68,2.53-7.37,3.73-11.09.6-1.86,1.19-3.72,1.77-5.59,1.09-3.5,2.14-7.01,3.15-10.55,1.69-5.88,3.28-11.81,4.76-17.78.86-3.44,1.68-6.9,2.46-10.36.26-1.16.52-2.31.77-3.47,1.36-6.18,2.6-12.4,3.72-18.66.24-1.31.47-2.62.7-3.94.08-.43.15-.86.22-1.29.5-2.95.98-5.92,1.43-8.89v-.02c.45-2.97.88-5.94,1.27-8.92.2-1.5.4-2.99.58-4.49.13-1.02.25-2.04.37-3.06.15-1.19.28-2.39.41-3.58.14-1.22.27-2.45.4-3.68.01-.09.02-.19.03-.28.16-1.52.31-3.05.45-4.59.01-.07.02-.15.02-.22.14-1.43.27-2.86.39-4.3.17-1.91.32-3.82.46-5.73.11-1.44.21-2.88.3-4.33.08-1.18.15-2.36.22-3.55.06-.83.1-1.67.14-2.51.08-1.27.14-2.55.2-3.83.06-1.2.11-2.41.15-3.62.09-1.99.16-3.99.21-6,.04-1.38.07-2.77.1-4.15.07-3.52.11-7.05.11-10.59,0-56.49-9.14-110.87-26.01-161.73ZM29.12,78.26c36.4-8.59,97.29-37.61,117.34-47.43,20.05,9.82,80.94,38.84,117.34,47.43v103.01c0,33.42-17.4,63.98-40.7,88.08-22.81,23.59-51.45,41.09-76.64,48.75-25.18-7.66-53.82-25.17-76.63-48.75-23.3-24.1-40.71-54.66-40.71-88.08v-103.01ZM993.67,813.15c2.65,0,4.8,2.15,4.8,4.8v71.55c0,2.65-2.15,4.81-4.8,4.81h-84.82c-8.04,0-14.56,6.52-14.56,14.56v84.82c0,2.65-2.15,4.81-4.81,4.81h-71.55c-2.65,0-4.8-2.16-4.8-4.81v-84.82c0-8.04-6.52-14.56-14.57-14.56h-84.82c-2.65,0-4.8-2.16-4.8-4.81v-71.55c0-2.65,2.15-4.8,4.8-4.8h84.82c8.05,0,14.57-6.52,14.57-14.57v-84.82c0-2.65,2.15-4.8,4.8-4.8h71.55c2.66,0,4.81,2.15,4.81,4.8v84.82c0,8.05,6.52,14.57,14.56,14.57h84.82ZM995.59,567c-.35,3.18-.72,6.34-1.14,9.5-.18,1.48-.38,2.96-.59,4.44-.03.22-.06.45-.1.67-.17,1.31-.36,2.61-.56,3.91-.5,3.34-1.03,6.68-1.59,10-.25,1.5-.51,2.99-.79,4.48-.27,1.55-.55,3.08-.85,4.62-.62,3.29-1.28,6.57-1.98,9.84-.28,1.36-.57,2.72-.88,4.07-.33,1.53-.67,3.06-1.03,4.59-.32,1.39-.64,2.77-.98,4.16-.08.35-.17.7-.26,1.06-.31,1.31-.63,2.61-.97,3.91-.36,1.46-.73,2.92-1.12,4.37-.02.12-.05.24-.09.35-.37,1.46-.76,2.9-1.16,4.35-1.23,4.51-2.52,9-3.88,13.46-1.35,4.46-2.77,8.9-4.26,13.31-.98,2.93-1.99,5.85-3.03,8.75,0,.01-.01.03-.02.04-.5,1.42-1.01,2.84-1.54,4.25,0,.06-.04.11-.06.17-.52,1.42-1.05,2.85-1.6,4.26-.54,1.45-1.09,2.89-1.66,4.32-1.12,2.87-2.27,5.73-3.45,8.58-1.16,2.84-2.36,5.67-3.6,8.49-.6,1.41-1.22,2.82-1.86,4.22-.62,1.4-1.25,2.8-1.9,4.2-.96,2.1-1.93,4.18-2.92,6.26-.98,2.07-1.99,4.14-3.01,6.2-.67,1.38-1.35,2.75-2.05,4.11-.68,1.37-1.38,2.73-2.09,4.09-1.75,3.4-3.55,6.77-5.39,10.12-1.83,3.34-3.7,6.67-5.62,9.97-.75,1.32-1.52,2.64-2.31,3.95-.77,1.32-1.55,2.63-2.35,3.93-.78,1.31-1.57,2.61-2.38,3.9-.8,1.3-1.6,2.59-2.42,3.88-.23.37-.46.73-.69,1.1v-.02c-4.66,7.36-9.52,14.58-14.56,21.66v-80.78c0-10.69-8.67-19.36-19.37-19.36h-71.55c-10.7,0-19.37,8.67-19.37,19.36v84.82h-84.82c-10.69,0-19.36,8.67-19.36,19.37v71.55c0,10.7,8.67,19.37,19.36,19.37h80.78c-7.09,5.05-14.32,9.92-21.69,14.58h.03c-.36.23-.72.46-1.08.67-1.93,1.23-3.88,2.44-5.83,3.62-1.95,1.2-3.91,2.37-5.88,3.53-2.62,1.56-5.26,3.09-7.92,4.59-3.81,2.17-7.65,4.28-11.53,6.33-1.29.69-2.59,1.37-3.89,2.04-.23.13-.46.25-.7.36-1.36.71-2.72,1.41-4.09,2.09-1.37.7-2.74,1.39-4.11,2.05-1.37.69-2.75,1.36-4.13,2.02-8.93,4.3-18.02,8.34-27.24,12.1-2.05.84-4.11,1.66-6.17,2.47-1.04.41-2.07.81-3.11,1.2-8.41,3.23-16.94,6.23-25.57,8.99-2.91.93-5.84,1.84-8.77,2.72-2.2.66-4.42,1.3-6.63,1.93-2.21.63-4.43,1.25-6.66,1.84-2.51.67-5.02,1.33-7.54,1.96-37.84,9.51-77.44,14.56-118.21,14.56-79.15,0-153.9-19.01-219.9-52.73-1.18-.6-2.36-1.2-3.53-1.82-2.35-1.22-4.68-2.46-7.01-3.72-3.48-1.89-6.94-3.82-10.38-5.79-2.29-1.32-4.56-2.65-6.83-4-1.34-.8-2.68-1.6-4.02-2.42-2.67-1.63-5.31-3.27-7.95-4.95-2.63-1.68-5.25-3.38-7.85-5.1-6.5-4.31-12.89-8.78-19.16-13.39-1.57-1.15-3.14-2.32-4.71-3.5-1.17-.88-2.33-1.77-3.49-2.66-2.03-1.56-4.05-3.14-6.06-4.73-6.02-4.77-11.93-9.69-17.71-14.75h-.01c-2.93-2.56-5.84-5.16-8.71-7.8-5.75-5.27-11.38-10.68-16.87-16.22-6.6-6.65-12.99-13.49-19.18-20.51-2.33-2.62-4.63-5.28-6.89-7.96-.76-.89-1.51-1.79-2.26-2.69-1-1.2-2-2.41-2.98-3.62-1.98-2.42-3.93-4.85-5.86-7.3h0c-1.93-2.47-3.84-4.94-5.72-7.43h0c-2.83-3.75-5.6-7.53-8.31-11.35-.91-1.28-1.81-2.56-2.7-3.85-1.79-2.57-3.56-5.15-5.29-7.75-2.61-3.91-5.16-7.85-7.66-11.84-1.25-1.99-2.48-3.99-3.7-6.01-1.22-2.01-2.43-4.03-3.62-6.06-.79-1.35-1.58-2.72-2.36-4.08-1.57-2.72-3.11-5.46-4.61-8.22-1.51-2.75-3-5.52-4.46-8.32-.73-1.4-1.46-2.8-2.17-4.2-1.44-2.8-2.84-5.62-4.21-8.45-.69-1.42-1.37-2.85-2.05-4.27-.68-1.43-1.35-2.86-2.01-4.29-1.33-2.87-2.62-5.75-3.89-8.64-6.35-14.49-12.02-29.34-16.95-44.52-15.33-47.17-23.61-97.49-23.61-149.74,0-1.22,0-2.44.01-3.65.02-1.78.04-3.55.07-5.32,0-.64.03-1.28.04-1.92.06-2.69.14-5.37.24-8.04.04-.93.08-1.86.12-2.78.04-1.02.09-2.03.14-3.04.11-2.08.22-4.15.36-6.21.05-.87.11-1.74.17-2.61.07-1.11.15-2.22.24-3.33.19-2.62.41-5.23.65-7.84.17-1.8.34-3.6.53-5.4,0-.03,0-.07.01-.11.21-2.02.43-4.05.67-6.07.03-.35.07-.69.12-1.04.13-1.16.27-2.31.42-3.47.37-3,.78-5.99,1.21-8.97.15-1.08.31-2.17.48-3.25.19-1.27.39-2.53.59-3.79.14-.9.29-1.8.44-2.69.2-1.24.41-2.47.62-3.7.16-.92.32-1.84.49-2.76.38-2.15.78-4.29,1.19-6.43.42-2.13.84-4.27,1.29-6.39.49-2.35.99-4.7,1.51-7.03.25-1.14.51-2.27.77-3.4.52-2.27,1.06-4.52,1.62-6.77.27-1.13.55-2.25.84-3.38.28-1.12.57-2.24.87-3.36.29-1.12.59-2.24.89-3.36.29-1.12.6-2.23.91-3.34.31-1.12.62-2.23.94-3.34.63-2.22,1.28-4.43,1.94-6.64.63-2.12,1.28-4.24,1.95-6.34.38-1.19.75-2.37,1.14-3.56.35-1.09.71-2.18,1.07-3.27.36-1.09.73-2.18,1.1-3.27.37-1.09.74-2.17,1.12-3.25.37-1.09.75-2.17,1.14-3.25,1.72-4.82,3.5-9.6,5.36-14.34.3-.75.6-1.51.9-2.26.39-.99.79-1.98,1.19-2.96,1.2-2.96,2.43-5.9,3.68-8.83.05-.11.1-.22.14-.33.79-1.84,1.59-3.68,2.41-5.5.43-.97.87-1.94,1.31-2.9.45-.96.9-1.92,1.34-2.89,22.57,17.44,47.33,29.97,69.33,35.87,2.47.66,5.07.66,7.54,0,30.35-8.14,65.92-28.88,93.8-57.72,28.54-29.51,48.89-67.38,48.89-108.32v-98.91c66.25-34.02,141.34-53.21,220.88-53.21,95.73,0,185.01,27.82,260.21,75.79,2.51,1.6,5,3.22,7.47,4.86,2.48,1.65,4.94,3.31,7.38,5,1.31.91,2.61,1.81,3.9,2.72,2.58,1.82,5.15,3.67,7.7,5.55,1.27.94,2.54,1.88,3.81,2.83,1.78,1.34,3.55,2.69,5.32,4.04,5.28,4.09,10.47,8.27,15.57,12.55,1.71,1.44,3.4,2.88,5.09,4.32,1.68,1.45,3.35,2.91,5,4.39.84.74,1.67,1.49,2.5,2.22,1.65,1.48,3.28,2.97,4.91,4.49.82.76,1.64,1.52,2.45,2.27,1.62,1.51,3.22,3.04,4.82,4.59,2.4,2.31,4.77,4.65,7.13,7,1.57,1.58,3.13,3.16,4.67,4.75.76.8,1.54,1.6,2.31,2.41.77.8,1.54,1.61,2.3,2.42,1.52,1.61,3.04,3.24,4.54,4.87.75.82,1.5,1.64,2.24,2.46,3.73,4.12,7.38,8.3,10.97,12.54,1.44,1.7,2.86,3.4,4.27,5.12,1.41,1.72,2.81,3.44,4.2,5.18.96,1.21,1.92,2.43,2.88,3.65,6.67,8.52,13.07,17.27,19.19,26.23.87,1.28,1.73,2.57,2.6,3.86,1.72,2.58,3.42,5.18,5.09,7.79,5.02,7.84,9.82,15.83,14.39,23.97h0c2,3.57,3.95,7.16,5.87,10.77,1.91,3.62,3.78,7.26,5.6,10.93.52,1.05,1.04,2.1,1.55,3.15.68,1.41,1.36,2.81,2.03,4.22,1.34,2.83,2.66,5.66,3.95,8.51.64,1.43,1.28,2.86,1.91,4.29,1.89,4.3,3.73,8.63,5.5,13,.59,1.45,1.17,2.91,1.75,4.37,1.15,2.93,2.27,5.86,3.37,8.81,1.65,4.43,3.23,8.88,4.75,13.37.65,1.88,1.27,3.76,1.88,5.64,15.33,47.17,23.61,97.49,23.61,149.74,0,1.49-.01,2.97-.02,4.46,0,.79-.02,1.58-.03,2.37-.01.98-.03,1.95-.05,2.93-.03,1.59-.07,3.18-.12,4.77,0,.11,0,.23-.01.34-.04,1.54-.09,3.08-.16,4.62v.03c-.05,1.25-.1,2.49-.16,3.73-.04.77-.07,1.54-.12,2.31-.05,1.02-.1,2.03-.17,3.04-.01.32-.03.64-.05.95-.06,1.09-.13,2.17-.21,3.25-.13,2.01-.28,4.02-.44,6.02-.09,1.24-.2,2.48-.31,3.72-.31,3.56-.65,7.11-1.04,10.64ZM697.4,294.56l-93.25,53.84c-5.49,3.17-11.71,4.84-18.05,4.84h-144.63c-6.33,0-12.56-1.67-18.05-4.84l-93.19-53.8c-12.07-6.97-26.42-8.86-39.88-5.25-13.42,3.59-23.27,9.83-31.84,24.37-15.26,25.87-6,57.38,19.17,71.91h.02s121.64,69.97,121.64,69.97v352.9c.01,18.57,6.66,36.34,18.31,49.46,12.23,13.79,28.9,21.38,46.21,21.38s33.97-7.59,46.2-21.38c1.32-1.48,2.57-3.02,3.76-4.62,11.91,15.94,29.99,26,49.92,26h.01c35.12,0,64.5-31.26,64.5-70.83v-210.52s-.01-142.12-.01-142.12l121.72-70.28c25.1-14.49,33.7-46.59,19.21-71.7-14.49-25.09-46.67-33.81-71.77-19.33ZM563.75,850.22h-.04c-20.04-.02-35.35-19.13-35.35-41.71v-148.08c0-8.04-6.52-14.56-14.56-14.56s-14.56,6.52-14.56,14.56v148.08c0,11.28-3.88,22.14-10.96,30.12-6.5,7.32-15.24,11.59-24.42,11.59s-17.93-4.27-24.43-11.59c-7.08-7.98-10.96-18.84-10.96-30.13v-195.95s170.65,0,170.65,0v195.96c.01,22.59-15.32,41.71-35.37,41.71ZM735.4,360.37l-128.88,74.41c-5.71,3.3-7.16,7.59-7.4,12.4-1.24,24.77,0,136.25,0,136.25h-170.66v-136.25c0-5.21-2.79-10.03-7.3-12.63l-128.93-74.14c-11.17-6.46-15.41-20.41-8.64-31.9,3.86-6.54,8.25-9.41,14.3-11.03,6-1.61,12.39-.77,17.78,2.34l93.19,53.8c9.92,5.73,21.16,8.74,32.61,8.74h144.63c11.45,0,22.7-3.01,32.61-8.74l93.25-53.83c11.19-6.46,25.53-2.52,31.99,8.66,6.45,11.18,2.62,25.47-8.55,31.92ZM513.8,316.65c46.46,0,84.18-37.72,84.18-84.18s-37.72-84.17-84.18-84.17-84.18,37.72-84.18,84.17,37.72,84.18,84.18,84.18ZM513.8,177.42c30.38,0,55.05,24.67,55.05,55.05s-24.67,55.06-55.05,55.06-55.05-24.67-55.05-55.06,24.67-55.05,55.05-55.05ZM513.8,148.3c-46.46,0-84.18,37.72-84.18,84.17s37.72,84.18,84.18,84.18,84.18-37.72,84.18-84.18-37.72-84.17-84.18-84.17ZM513.8,287.53c-30.38,0-55.05-24.67-55.05-55.06s24.67-55.05,55.05-55.05,55.05,24.67,55.05,55.05-24.67,55.06-55.05,55.06ZM769.17,313.89c-14.49-25.09-46.67-33.81-71.77-19.33l-93.25,53.84c-5.49,3.17-11.71,4.84-18.05,4.84h-144.63c-6.33,0-12.56-1.67-18.05-4.84l-93.19-53.8c-12.07-6.97-26.42-8.86-39.88-5.25-13.42,3.59-23.27,9.83-31.84,24.37-15.26,25.87-6,57.38,19.17,71.91h.02s121.64,69.97,121.64,69.97v352.9c.01,18.57,6.66,36.34,18.31,49.46,12.23,13.79,28.9,21.38,46.21,21.38s33.97-7.59,46.2-21.38c1.32-1.48,2.57-3.02,3.76-4.62,11.91,15.94,29.99,26,49.92,26h.01c35.12,0,64.5-31.26,64.5-70.83v-210.52s-.01-142.12-.01-142.12l121.72-70.28c25.1-14.49,33.7-46.59,19.21-71.7ZM563.75,850.22h-.04c-20.04-.02-35.35-19.13-35.35-41.71v-148.08c0-8.04-6.52-14.56-14.56-14.56s-14.56,6.52-14.56,14.56v148.08c0,11.28-3.88,22.14-10.96,30.12-6.5,7.32-15.24,11.59-24.42,11.59s-17.93-4.27-24.43-11.59c-7.08-7.98-10.96-18.84-10.96-30.13v-195.95s170.65,0,170.65,0v195.96c.01,22.59-15.32,41.71-35.37,41.71ZM735.4,360.37l-128.88,74.41c-5.71,3.3-7.16,7.59-7.4,12.4-1.24,24.77,0,136.25,0,136.25h-170.66v-136.25c0-5.21-2.79-10.03-7.3-12.63l-128.93-74.14c-11.17-6.46-15.41-20.41-8.64-31.9,3.86-6.54,8.25-9.41,14.3-11.03,6-1.61,12.39-.77,17.78,2.34l93.19,53.8c9.92,5.73,21.16,8.74,32.61,8.74h144.63c11.45,0,22.7-3.01,32.61-8.74l93.25-53.83c11.19-6.46,25.53-2.52,31.99,8.66,6.45,11.18,2.62,25.47-8.55,31.92ZM769.17,313.89c-14.49-25.09-46.67-33.81-71.77-19.33l-93.25,53.84c-5.49,3.17-11.71,4.84-18.05,4.84h-144.63c-6.33,0-12.56-1.67-18.05-4.84l-93.19-53.8c-12.07-6.97-26.42-8.86-39.88-5.25-13.42,3.59-23.27,9.83-31.84,24.37-15.26,25.87-6,57.38,19.17,71.91h.02s121.64,69.97,121.64,69.97v352.9c.01,18.57,6.66,36.34,18.31,49.46,12.23,13.79,28.9,21.38,46.21,21.38s33.97-7.59,46.2-21.38c1.32-1.48,2.57-3.02,3.76-4.62,11.91,15.94,29.99,26,49.92,26h.01c35.12,0,64.5-31.26,64.5-70.83v-210.52s-.01-142.12-.01-142.12l121.72-70.28c25.1-14.49,33.7-46.59,19.21-71.7ZM563.75,850.22h-.04c-20.04-.02-35.35-19.13-35.35-41.71v-148.08c0-8.04-6.52-14.56-14.56-14.56s-14.56,6.52-14.56,14.56v148.08c0,11.28-3.88,22.14-10.96,30.12-6.5,7.32-15.24,11.59-24.42,11.59s-17.93-4.27-24.43-11.59c-7.08-7.98-10.96-18.84-10.96-30.13v-195.95s170.65,0,170.65,0v195.96c.01,22.59-15.32,41.71-35.37,41.71ZM735.4,360.37l-128.88,74.41c-5.71,3.3-7.16,7.59-7.4,12.4-1.24,24.77,0,136.25,0,136.25h-170.66v-136.25c0-5.21-2.79-10.03-7.3-12.63l-128.93-74.14c-11.17-6.46-15.41-20.41-8.64-31.9,3.86-6.54,8.25-9.41,14.3-11.03,6-1.61,12.39-.77,17.78,2.34l93.19,53.8c9.92,5.73,21.16,8.74,32.61,8.74h144.63c11.45,0,22.7-3.01,32.61-8.74l93.25-53.83c11.19-6.46,25.53-2.52,31.99,8.66,6.45,11.18,2.62,25.47-8.55,31.92ZM513.8,148.3c-46.46,0-84.18,37.72-84.18,84.17s37.72,84.18,84.18,84.18,84.18-37.72,84.18-84.18-37.72-84.17-84.18-84.17ZM513.8,287.53c-30.38,0-55.05-24.67-55.05-55.06s24.67-55.05,55.05-55.05,55.05,24.67,55.05,55.05-24.67,55.06-55.05,55.06ZM513.8,148.3c-46.46,0-84.18,37.72-84.18,84.17s37.72,84.18,84.18,84.18,84.18-37.72,84.18-84.18-37.72-84.17-84.18-84.17ZM513.8,287.53c-30.38,0-55.05-24.67-55.05-55.06s24.67-55.05,55.05-55.05,55.05,24.67,55.05,55.05-24.67,55.06-55.05,55.06ZM769.17,313.89c-14.49-25.09-46.67-33.81-71.77-19.33l-93.25,53.84c-5.49,3.17-11.71,4.84-18.05,4.84h-144.63c-6.33,0-12.56-1.67-18.05-4.84l-93.19-53.8c-12.07-6.97-26.42-8.86-39.88-5.25-13.42,3.59-23.27,9.83-31.84,24.37-15.26,25.87-6,57.38,19.17,71.91h.02s121.64,69.97,121.64,69.97v352.9c.01,18.57,6.66,36.34,18.31,49.46,12.23,13.79,28.9,21.38,46.21,21.38s33.97-7.59,46.2-21.38c1.32-1.48,2.57-3.02,3.76-4.62,11.91,15.94,29.99,26,49.92,26h.01c35.12,0,64.5-31.26,64.5-70.83v-210.52s-.01-142.12-.01-142.12l121.72-70.28c25.1-14.49,33.7-46.59,19.21-71.7ZM563.75,850.22h-.04c-20.04-.02-35.35-19.13-35.35-41.71v-148.08c0-8.04-6.52-14.56-14.56-14.56s-14.56,6.52-14.56,14.56v148.08c0,11.28-3.88,22.14-10.96,30.12-6.5,7.32-15.24,11.59-24.42,11.59s-17.93-4.27-24.43-11.59c-7.08-7.98-10.96-18.84-10.96-30.13v-195.95s170.65,0,170.65,0v195.96c.01,22.59-15.32,41.71-35.37,41.71ZM735.4,360.37l-128.88,74.41c-5.71,3.3-7.16,7.59-7.4,12.4-1.24,24.77,0,136.25,0,136.25h-170.66v-136.25c0-5.21-2.79-10.03-7.3-12.63l-128.93-74.14c-11.17-6.46-15.41-20.41-8.64-31.9,3.86-6.54,8.25-9.41,14.3-11.03,6-1.61,12.39-.77,17.78,2.34l93.19,53.8c9.92,5.73,21.16,8.74,32.61,8.74h144.63c11.45,0,22.7-3.01,32.61-8.74l93.25-53.83c11.19-6.46,25.53-2.52,31.99,8.66,6.45,11.18,2.62,25.47-8.55,31.92ZM769.17,313.89c-14.49-25.09-46.67-33.81-71.77-19.33l-93.25,53.84c-5.49,3.17-11.71,4.84-18.05,4.84h-144.63c-6.33,0-12.56-1.67-18.05-4.84l-93.19-53.8c-12.07-6.97-26.42-8.86-39.88-5.25-13.42,3.59-23.27,9.83-31.84,24.37-15.26,25.87-6,57.38,19.17,71.91h.02s121.64,69.97,121.64,69.97v352.9c.01,18.57,6.66,36.34,18.31,49.46,12.23,13.79,28.9,21.38,46.21,21.38s33.97-7.59,46.2-21.38c1.32-1.48,2.57-3.02,3.76-4.62,11.91,15.94,29.99,26,49.92,26h.01c35.12,0,64.5-31.26,64.5-70.83v-210.52s-.01-142.12-.01-142.12l121.72-70.28c25.1-14.49,33.7-46.59,19.21-71.7ZM563.75,850.22h-.04c-20.04-.02-35.35-19.13-35.35-41.71v-148.08c0-8.04-6.52-14.56-14.56-14.56s-14.56,6.52-14.56,14.56v148.08c0,11.28-3.88,22.14-10.96,30.12-6.5,7.32-15.24,11.59-24.42,11.59s-17.93-4.27-24.43-11.59c-7.08-7.98-10.96-18.84-10.96-30.13v-195.95s170.65,0,170.65,0v195.96c.01,22.59-15.32,41.71-35.37,41.71ZM735.4,360.37l-128.88,74.41c-5.71,3.3-7.16,7.59-7.4,12.4-1.24,24.77,0,136.25,0,136.25h-170.66v-136.25c0-5.21-2.79-10.03-7.3-12.63l-128.93-74.14c-11.17-6.46-15.41-20.41-8.64-31.9,3.86-6.54,8.25-9.41,14.3-11.03,6-1.61,12.39-.77,17.78,2.34l93.19,53.8c9.92,5.73,21.16,8.74,32.61,8.74h144.63c11.45,0,22.7-3.01,32.61-8.74l93.25-53.83c11.19-6.46,25.53-2.52,31.99,8.66,6.45,11.18,2.62,25.47-8.55,31.92ZM513.8,148.3c-46.46,0-84.18,37.72-84.18,84.17s37.72,84.18,84.18,84.18,84.18-37.72,84.18-84.18-37.72-84.17-84.18-84.17ZM513.8,287.53c-30.38,0-55.05-24.67-55.05-55.06s24.67-55.05,55.05-55.05,55.05,24.67,55.05,55.05-24.67,55.06-55.05,55.06Z"/></svg>