<?xml version="1.0" encoding="UTF-8"?><svg id="Layer_1" xmlns="http://www.w3.org/2000/svg" viewBox="0 0 776.29 957.29"><defs><style>.cls-1{fill:#10332f;fill-rule:evenodd;stroke:#000;stroke-miterlimit:10;stroke-width:.5px;}</style></defs><path class="cls-1" d="M240.49,22.16H75.6c-2.14.02-3.88,1.75-3.9,3.9v152.09c0,47.68,38.66,86.34,86.34,86.34s86.34-38.66,86.34-86.34V26.06c-.02-2.14-1.75-3.88-3.9-3.9h0ZM196.14,279.45c-24.57,9.29-51.68,9.28-76.24-.02v250.3c.25,2.45.37,4.91.37,7.38v98.91c-.23,6.05-5.32,10.77-11.37,10.54-5.73-.22-10.32-4.81-10.54-10.54v-96.09c-.32-2.91-.44-5.84-.37-8.77-1.28-12.94-9.72-24.07-21.83-28.8-23.1-9.26-54.26,2.41-54.08,34.68l.91,163.97c.03.34.05.68.05,1.03-.27,61.19,22.87,120.16,64.68,164.85,39.74,42.09,94.52,68.22,154.75,68.22h22.07c60.23,0,115.01-26.12,154.75-68.22,40.36-42.75,64.26-100.08,64.68-164.9v-212.49c0-48.96-74.03-48.96-74.03,0v87.71c-.22,6.05-5.3,10.78-11.35,10.57-5.75-.21-10.36-4.82-10.57-10.57v-126.95c0-48.96-74.03-48.96-74.03,0v76.7c-.22,6.05-5.3,10.78-11.35,10.57-5.75-.21-10.36-4.82-10.57-10.57v-116.4c0-48.96-74.03-48.96-74.03,0v101.62c.22,6.05-4.51,11.13-10.57,11.35-6.05.22-11.13-4.51-11.35-10.57,0-.26,0-.52,0-.78v-232.74ZM75.6.25h164.88c14.24.03,25.79,11.57,25.81,25.81v152.09c-.05,36.16-18.15,69.92-48.24,89.98v95.9c33.86-25.34,91.05-9.82,95.64,39.92,33.71-25.58,91.03-10.3,95.9,39.3,35.1-26.7,96.28-9.07,96.28,46.29v212.52c-.48,70.62-26.57,133.12-70.67,179.83-43.78,46.37-104.19,75.15-170.67,75.15h-22.07c-135.88,0-241.34-118.14-241.34-254.98l-.88-164.91c-.32-56.59,62.07-74.15,97.74-47.39v-221.64c-30.07-20.07-48.14-53.81-48.2-89.95V26.06c.03-14.24,11.56-25.78,25.81-25.81h0ZM158.04,174.25c29.75,0,44.76,36.14,23.69,57.21-21.06,21.07-57.21,6.05-57.21-23.69,0-18.5,15-33.51,33.51-33.51h0ZM104.67,55.48h106.75c6.05,0,10.96,4.91,10.96,10.96v78.18c0,6.05-4.91,10.96-10.96,10.96h-106.75c-6.05,0-10.96-4.91-10.96-10.96v-78.18c0-6.05,4.91-10.96,10.96-10.96h0ZM396.34,127.33c10.22,1.43,20.09,4.76,29.1,9.8,39.98-22.37,90.52-8.1,112.9,31.88,11.61,20.75,13.76,45.48,5.91,67.91-10.37,29.55-56.68,61.02-90.2,83.79-7.73,5.25-14.71,9.99-20.84,14.49-4.5,3.44-10.72,3.51-15.29.16-6.18-4.55-13.24-9.34-21.06-14.65-33.52-22.77-79.84-54.23-90.21-83.79-15.13-43.25,7.66-90.58,50.91-105.72,12.43-4.35,25.73-5.68,38.77-3.87h0ZM444.39,395.62c-6.05.23-11.14-4.49-11.37-10.54-.23-6.05,4.49-11.14,10.54-11.37.28-.01.56-.01.84,0h87.92l30.42-31.11c4.21-4.32,11.14-4.41,15.46-.2,1.08,1.05,1.93,2.32,2.5,3.71h.02l16.5,40.59,16.98-26.31c3.27-5.08,10.04-6.55,15.13-3.28.85.55,1.62,1.21,2.28,1.96l22.12,25.1,13.53-8.7c1.76-1.13,3.81-1.73,5.9-1.73v-.02h92.34c6.05.23,10.77,5.32,10.54,11.37-.22,5.73-4.81,10.32-10.54,10.54h-89.17l-18.24,11.73c-4.57,3.27-10.87,2.55-14.59-1.67l-18.77-21.32-20.31,31.48c-3.09,5.21-9.82,6.92-15.02,3.83-2.05-1.22-3.65-3.07-4.55-5.28l-18.14-44.62-21.45,21.94c-2.08,2.47-5.14,3.9-8.37,3.9h-92.5Z"/></svg>