<?xml version="1.0" encoding="UTF-8"?><svg id="Layer_1" xmlns="http://www.w3.org/2000/svg" viewBox="0 0 854.23 232.02"><defs><style>.cls-1{font-family:Arial-BoldMT, Arial;font-size:8.09px;font-weight:700;}.cls-1,.cls-2{fill:#fff;}.cls-3{fill:none;stroke:#fff;stroke-miterlimit:10;stroke-width:1.5px;}</style></defs><path class="cls-2" d="M302.78,103.53h-38.77c-17.8,0-24.68,8.9-24.68,32.62v21.25c0,23.72,6.87,32.61,24.68,32.61h38.77c1.32,0,2.03-.86,2.03-2.72v-11.91c0-1.82-.71-2.66-2.04-2.66h-38.69c-9.21,0-11.78-3.75-11.78-16.47v-2.06h49.94c1.33,0,1.94-.88,1.94-2.76v-9.92c0-1.88-.62-2.76-1.94-2.76h-49.94v-1.17c0-12.93,2.57-16.75,11.78-16.75h38.69c1.33,0,2.04-.86,2.04-2.71v-11.87c0-1.85-.7-2.72-2.03-2.72Z"/><path class="cls-2" d="M363.02,103.53h-41.35c-1.77,0-2.65,1.24-2.65,3.71v79.07c0,2.47.88,3.71,2.65,3.71h41.35c19.17,0,27.04-10.75,27.04-34.84v-16.8c0-24.09-7.86-34.84-27.04-34.84ZM376.46,153.53c0,14.51-3.43,19.18-13.83,19.18h-28.89c-.79,0-1.14-.49-1.14-1.6v-48.57c0-1.23.35-1.72,1.14-1.72h28.89c10.39,0,13.83,4.67,13.83,19.18v13.53Z"/><path class="cls-2" d="M455.21,103.53h-47.08c-1.75,0-2.63,1.24-2.63,3.71v80.05c0,1.85.7,2.72,2.02,2.72h9.01c1.33,0,1.94-.87,1.94-2.73v-23.83h36.59c13.52,0,19-8.81,19-25.57v-8.9c0-16.68-5.44-25.45-18.85-25.45ZM460.47,136.44c0,7.38-2.21,10.94-8.21,10.94h-33.8v-25.09c0-1.11.35-1.48,1.15-1.48h32.65c6,0,8.21,3.57,8.21,10.94v4.67Z"/><path class="cls-2" d="M543.05,160.86c9.28-2.34,13.17-10.58,13.17-24.6v-7.29c0-16.68-5.44-25.45-18.85-25.45h-47.08c-1.75,0-2.63,1.24-2.63,3.71v80.05c0,1.85.7,2.72,2.02,2.72h9.01c1.33,0,1.94-.86,1.94-2.71v-24.47h28.55l13.96,25.58c.53,1.11.97,1.6,2.47,1.6h11.4c1.59,0,1.68-2.21,1.15-3.07l-15.11-26.07ZM542.63,136.39c0,7.41-2.21,11-8.21,11h-33.8v-25.7c0-.99.35-1.48,1.15-1.48h32.65c6,0,8.21,3.58,8.21,11v5.19Z"/><path class="cls-2" d="M632.64,103.53h-38.77c-17.8,0-24.68,8.9-24.68,32.62v21.25c0,23.72,6.87,32.61,24.68,32.61h38.77c1.32,0,2.03-.86,2.03-2.72v-11.91c0-1.82-.71-2.66-2.04-2.66h-38.69c-9.21,0-11.78-3.75-11.78-16.47v-2.06h49.94c1.33,0,1.94-.88,1.94-2.76v-9.92c0-1.88-.62-2.76-1.94-2.76h-49.94v-1.17c0-12.93,2.57-16.75,11.78-16.75h38.69c1.33,0,2.04-.86,2.04-2.71v-11.87c0-1.85-.7-2.72-2.03-2.72Z"/><path class="cls-2" d="M692.87,103.53h-41.35c-1.77,0-2.65,1.24-2.65,3.71v79.07c0,2.47.88,3.71,2.65,3.71h41.35c19.17,0,27.04-10.75,27.04-34.84v-16.8c0-24.09-7.86-34.84-27.04-34.84ZM706.32,153.53c0,14.51-3.43,19.18-13.83,19.18h-28.89c-.79,0-1.14-.49-1.14-1.6v-48.57c0-1.23.35-1.72,1.14-1.72h28.89c10.39,0,13.83,4.67,13.83,19.18v13.53Z"/><path class="cls-2" d="M833.39,103.53h-68.83c-1.32,0-2.03.88-2.03,2.76v12.28c0,1.88.71,2.88,2.03,2.88h27.62v65.86c0,1.85.62,2.71,1.95,2.71h9.68c1.33,0,1.95-.86,1.95-2.71v-65.86h27.62c1.32,0,2.03-1,2.03-2.88v-12.28c0-1.88-.71-2.76-2.03-2.76Z"/><rect class="cls-2" x="735.36" y="117.82" width="14.33" height="72.19" rx="2.69" ry="2.69"/><circle class="cls-2" cx="742.52" cy="103.2" r="7.16"/><path class="cls-2" d="M217.28,102.14h-9.5c-5.24,0-7.01,1.62-9.41,9.49l-18.47,59.95c-.27.87-.62,1.12-1.24,1.12h-1.07c-.62,0-.98-.25-1.24-1.12l-18.47-59.95c-2.4-7.87-4.17-9.49-9.5-9.49h-9.68c-6.3,0-7.9,3.5-7.9,12.99v71.71c0,1.86.71,2.73,2.05,2.73h9.1c1.34,0,1.96-.87,1.96-2.73v-64.72c0-.87.18-1.24.71-1.24h.8c.62,0,.98.25,1.16.99l18.02,55.55c2.94,8.93,5.44,12.15,11.42,12.15h4.28c5.98,0,8.48-3.22,11.42-12.15l18.02-55.55c.18-.74.53-.99,1.16-.99h.36c.54,0,.71.37.71,1.24v64.72c0,1.86.62,2.73,1.96,2.73h9.1c1.34,0,2.05-.87,2.05-2.73v-71.71c0-9.49-1.6-12.99-7.81-12.99Z"/><path class="cls-2" d="M142.95,152.8c-.68,1.07-.45.9-1.75.67-1.41-.26-2.43-1.33-2.56-2.67l-2.23-23.13s3.25,58.29,2.77,60.34c-.27.19-.49.12-1.01.29-.82.26-1.3.75-1.49.9-.55.45-1.99.73-5.87-.11l-22.94-52.5-6.8,27.85c-.33,1.34-1.55,2.27-3.05,2.32h-.04s-.04,0-.04,0c-1.51-.02-2.77-1-3.07-2.39l-3.74-17.29-.27,1.02c-.35,1.34-1.62,2.27-3.08,2.27H10.63v-6h74.65l3.05-11.6c.35-1.36,1.7-2.3,3.16-2.27,1.48.02,2.73,1.01,3.03,2.39l3.63,16.77,7.66-31.34c.35-1.42,1.71-2.39,3.25-2.32,1.55.07,2.81,1.18,2.99,2.65l18.75,49.12,4.12-60.68c.28-1.48,1.66-2.52,3.24-2.47,1.59.05,2.9-1.27,3.05.22l1.18,36.3"/><path class="cls-2" d="M230.63,86.51c-2.54-7.19-3.81-10.79-5.96-15.64-3.54-8-6.9-13.68-9.76-18.5-2.11-3.55-3.87-6.26-5.91-9.04-1.05-1.43-2.09-2.78-3.13-4.05l-.81-.98-.85-.94c-.57-.62-1.11-1.27-1.72-1.86l-.89-.9-.44-.45-.22-.22-.23-.21-1.84-1.7c-.63-.55-1.27-1.08-1.9-1.62-.16-.13-.31-.27-.48-.4l-.49-.38-.98-.76c-2.64-2-5.4-3.78-8.24-5.32-5.69-3.09-11.73-5.14-17.76-6.24-3.02-.53-6.04-.79-9.02-.82-2.98-.02-5.93.16-8.8.66-2.87.48-5.66,1.2-8.36,2.14-2.7.95-5.28,2.16-7.74,3.55-4.93,2.81-9.35,6.46-13,10.81-3.66,4.35-6.58,9.4-8.6,14.93-2.02,5.53-3.19,11.51-3.33,17.67-.15,6.16.66,12.47,2.45,18.59l6.87,23.43-19.56-14.77c-2.91-2.19-5.96-4.15-9.13-5.8-3.18-1.62-6.46-2.97-9.8-3.98-3.34-1-6.72-1.73-10.09-2.09-3.37-.36-6.73-.41-10.02-.14-3.29.28-6.52.87-9.63,1.77-3.11.91-6.1,2.14-8.94,3.63-.72.35-1.4.78-2.1,1.18-.35.19-.69.42-1.03.63l-1.02.65c-.53.36-1.05.74-1.57,1.12-.38.27-.99.72-1.35,1.01l-.94.75c-2.47,2.05-4.76,4.34-6.8,6.86-2.04,2.52-3.83,5.28-5.35,8.22-1.53,2.94-2.78,6.07-3.73,9.35-1.9,6.55-2.61,13.67-1.98,20.89.31,3.61.94,7.24,1.9,10.83.96,3.59,2.25,7.13,3.84,10.56.8,1.71,1.66,3.41,2.61,5.06.44.84.98,1.64,1.47,2.46l.38.61.19.31.21.32.85,1.26.85,1.27c.28.42.59.83.88,1.24l.88,1.24.44.62c.15.21.3.4.46.61l1.84,2.41,1.91,2.35c2.58,3.1,5.31,6.06,8.19,8.84,2.88,2.79,5.91,5.4,9.06,7.84,7.44,5.76,13.87,9.13,20.26,12.45,2.1,1.09,4.02,2.04,5.9,2.91,4.29,2,9.39,4.43,15.95,6.59,3.05,1.01,7.18,2.21,12.2,3.23,4.83,1.01,8.86,1.52,11.71,1.79,3.87.38,9.24.72,15.64.58,2.89-.06,6.06-.23,10.39-.64,11.92-1.14,23.89-3.32,31.3-4.79,1.21-.24,2.43-.49,3.65-.73,18.87-3.83,37.4-8.07,55.58-12.66-23.17,11.91-43.39,18.1-57.79,21.52-11.62,2.76-21.38,4.08-24.84,4.52-7.26.93-17.91,2.25-31.59,1.81-12.16-.4-20.18-1.98-24.76-3.05-1.76-.41-3.22-.8-4.24-1.08,0,0-17.2-4.34-34.1-13.97-3.35-1.91-6.95-3.97-11.53-7.2-7.5-5.29-14.54-11.6-20.81-18.63l-2.32-2.67-2.24-2.74c-.18-.23-.38-.45-.55-.69l-.54-.7-1.07-1.4c-.35-.47-.72-.93-1.07-1.41l-1.03-1.43-1.03-1.43-.26-.36-.26-.38-.51-.77c-.67-1.03-1.39-2.05-2-3.12-1.3-2.11-2.49-4.28-3.6-6.49-4.44-8.84-7.25-18.4-8.31-27.84-1.05-9.45-.39-18.79,1.91-27.37,1.14-4.3,2.68-8.41,4.57-12.28,1.9-3.87,4.16-7.49,6.74-10.81,2.58-3.32,5.47-6.36,8.63-9.04l1.2-.99c.4-.33.8-.66,1.22-.96.83-.61,1.66-1.23,2.51-1.83l1.29-.85c.43-.28.86-.57,1.31-.83.89-.53,1.77-1.08,2.69-1.56,3.64-1.99,7.51-3.61,11.55-4.83,4.04-1.2,8.24-2.01,12.55-2.41,4.31-.39,8.72-.32,13.16.14.59.05,1.18.15,1.77.22.39.05.78.09,1.17.15l2.06.35c.28.05.56.09.84.15l.84.17,1.67.35,1.67.41c1.11.26,2.22.61,3.33.93,3.25.99,6.48,2.23,9.66,3.69-.12-2.27-.14-4.53-.06-6.76.14-4.08.63-8.08,1.41-11.95.78-3.87,1.87-7.61,3.26-11.18,2.77-7.13,6.65-13.61,11.5-19.06,4.84-5.47,10.57-9.97,16.95-13.33,3.19-1.67,6.53-3.11,10-4.21,3.48-1.08,7.08-1.87,10.77-2.36,3.68-.5,7.45-.63,11.25-.45,3.8.18,7.64.66,11.47,1.48,3.83.83,7.64,2,11.39,3.47,1.88.72,3.73,1.57,5.57,2.44l2.74,1.4,2.69,1.53c3.56,2.12,7,4.53,10.26,7.22l1.21,1.02.61.51c.2.17.39.36.59.53.78.72,1.57,1.43,2.34,2.16l2.25,2.26.28.28c1.52,1.86,3.72,4.65,6.13,8.21,1.85,2.72,8.46,12.72,14.17,28.77,2.98,8.38,4.42,14.84,5.77,20.73,3.17,13.87,4.73,26.65,5.38,37.82-1.74-6.2-3.48-12.39-5.22-18.59-1.15-3.7-2.78-8.79-4.91-14.79Z"/><circle class="cls-3" cx="845.12" cy="92.47" r="8.36"/><text class="cls-1" transform="translate(839.01 95.46)"><tspan x="0" y="0">TM</tspan></text></svg>