<?xml version="1.0" encoding="UTF-8"?><svg id="Layer_1" xmlns="http://www.w3.org/2000/svg" viewBox="0 0 1080 1080"><defs><style>.cls-1{fill:#ff9661;}.cls-2{opacity:.3;}.cls-3{fill:#fff;}.cls-4{fill:#375a64;}.cls-5{fill:#1a2e35;}.cls-6{fill:#e1e1e1;}</style></defs><polygon class="cls-1" points="137.38 1.44 119.37 106.85 119.37 1080 995.5 1080 995.5 1018.16 137.38 1.44"/><path class="cls-1" d="M137.38,1.44h865.9c6.73,0,12.2,5.46,12.2,12.2v1004.63c0,6.73-5.46,12.2-12.2,12.2H137.38V1.44h0Z"/><path class="cls-5" d="M980.44,1031.9H135.95V0h844.49c20.11,0,36.47,16.36,36.47,36.47v958.95c0,20.11-16.36,36.47-36.47,36.47ZM138.82,1029.03h841.62c18.53,0,33.6-15.07,33.6-33.6V36.47c0-18.53-15.07-33.6-33.6-33.6H138.82v1026.15Z"/><polygon class="cls-6" points="920.67 30.87 969.32 111.98 969.32 999.94 211.34 992.39 169.84 949.47 920.67 30.87"/><rect class="cls-3" x="169.84" y="26.97" width="750.83" height="922.5"/><path class="cls-5" d="M920.67,949.47c0-5.84-.27-373.84-.67-922.5l.67.67c-222.97.02-479.32.05-750.75.08h-.08l.75-.75c-.05,341.27-.09,658.65-.12,922.5l-.62-.62c452.67.38,745.62.62,750.83.62-5.21,0-298.17.25-750.83.62h-.62s0-.62,0-.62c-.04-263.86-.08-581.23-.12-922.5v-.75s.75,0,.75,0h.08c271.43.03,527.78.06,750.75.08h.67v.67c-.4,548.66-.66,916.67-.67,922.5Z"/><path class="cls-5" d="M262,337.62c0,10.37-7.63,18.77-17.04,18.77s-17.04-8.4-17.04-18.77,7.63-18.77,17.04-18.77,17.04,8.4,17.04,18.77Z"/><g class="cls-2"><polygon points="137.38 470.06 169.84 470.06 169.76 442.08 137.38 442.08 137.38 470.06"/></g><path class="cls-6" d="M152.98,244.67c-56.47,0-102.41,44.71-102.41,99.67s46.5,99.68,102.97,99.68h16.31l-.24-23.64-16.07.65c-44.97,0-82.11-34.4-82.11-76.69s36.59-76.69,81.56-76.69,81.56,34.4,81.56,76.69c0,6.35,4.67,11.49,10.43,11.49s10.43-5.15,10.43-11.49c0-54.96-45.94-99.67-102.41-99.67Z"/><path class="cls-5" d="M152.98,244.67s.82-.01,2.43.04c1.65.06,4.02.16,7.13.28,3.12.27,6.96.9,11.49,1.59,4.44,1.13,9.66,2.15,15.21,4.35,11.16,4.06,24.32,11.09,36.6,22.86,1.45,1.55,2.93,3.12,4.43,4.72.74.81,1.53,1.59,2.25,2.44.68.88,1.37,1.77,2.06,2.67,1.35,1.81,2.86,3.57,4.15,5.51,1.24,1.98,2.5,3.99,3.78,6.03,4.73,8.36,8.82,17.79,11.12,28.25.94,5.25,2,10.65,2.08,16.25.08,2.76.63,5.66-.33,8.57-.86,2.84-2.79,5.44-5.49,6.92-2.68,1.51-6.1,1.7-8.98.43-2.9-1.24-5.13-3.82-6.18-6.79-.55-1.48-.77-3.09-.79-4.66-.08-1.51-.17-3.02-.25-4.54-.02-3.06-.71-6.07-1.17-9.13-2.27-12.21-8.31-23.99-16.81-34.05-4.47-4.84-9.29-9.58-15-13.29-2.7-2.08-5.8-3.57-8.75-5.33-1.53-.79-3.13-1.44-4.7-2.18-1.57-.73-3.15-1.46-4.82-1.96-1.65-.57-3.3-1.14-4.96-1.71-1.68-.5-3.41-.85-5.12-1.28-3.4-.98-6.96-1.23-10.48-1.81-7.1-.53-14.38-.69-21.59.56-3.64.37-7.17,1.43-10.75,2.26-1.77.5-3.5,1.18-5.25,1.76l-2.63.91-2.54,1.14c-6.89,2.83-13.26,6.98-19.16,11.7-5.97,4.69-11.01,10.56-15.35,16.89-4.39,6.33-7.6,13.53-9.69,21.04-1.21,3.73-1.66,7.64-2.31,11.52-.18,3.93-.59,7.88-.19,11.83.44,7.89,2.13,15.83,5.34,23.19,7.42,17.85,21.87,31.99,38.56,40.09,8.34,4.14,17.32,6.71,26.33,7.79,2.24.41,4.5.48,6.75.58,2.25.11,4.49.27,6.75.09,4.51-.18,8.99-.36,13.44-.54l.75-.03v.75c.08,8.01.16,15.88.23,23.63v.73s-.72,0-.72,0c-6.06-.04-12.05.08-18.01-.09-2.99-.15-5.96-.3-8.93-.45-2.93-.44-5.85-.87-8.76-1.31-11.54-2.21-22.45-6.27-32.28-11.75-2.39-1.48-4.9-2.75-7.16-4.37-2.25-1.63-4.49-3.26-6.72-4.87-2.07-1.81-4.13-3.61-6.17-5.4-1.05-.86-2-1.83-2.9-2.83l-2.76-2.94c-7.16-7.96-13.18-16.67-17.3-25.97-1.19-2.25-1.88-4.7-2.83-7.01l-1.33-3.5-.97-3.58c-.59-2.39-1.36-4.72-1.79-7.11-.38-2.4-.75-4.77-1.12-7.13-1-9.47-1.05-18.79.57-27.54.51-4.43,1.81-8.6,2.89-12.73.45-2.1,1.42-4,2.09-5.98.79-1.94,1.37-3.93,2.3-5.76,1.91-3.62,3.4-7.37,5.64-10.59,1.04-1.66,2.07-3.29,3.08-4.91,1.07-1.58,2.29-3.02,3.41-4.51,9.12-11.78,19.8-20.23,29.9-26,1.26-.72,2.47-1.5,3.72-2.14,1.27-.59,2.52-1.17,3.75-1.74,2.46-1.11,4.75-2.34,7.14-3.07,2.34-.82,4.58-1.61,6.7-2.36,2.16-.63,4.26-1.08,6.23-1.58,3.91-1.12,7.49-1.47,10.56-1.93,1.54-.2,2.95-.47,4.25-.55,1.3-.05,2.48-.1,3.54-.14,2.08-.08,3.67-.13,4.78-.17,1.07-.03,1.62-.02,1.62-.02,0,0-.55.07-1.62.14-1.11.07-2.7.17-4.77.3-1.05.06-2.23.13-3.53.2-1.3.1-2.7.39-4.23.61-3.05.49-6.61.88-10.49,2.04-1.95.52-4.03.98-6.18,1.63-2.11.76-4.33,1.56-6.65,2.4-2.36.73-4.63,1.98-7.07,3.1-1.21.57-2.45,1.16-3.71,1.76-1.24.65-2.43,1.42-3.68,2.15-10,5.79-20.55,14.23-29.54,25.94-1.1,1.48-2.3,2.91-3.36,4.48-1,1.61-2.01,3.23-3.03,4.87-2.21,3.2-3.67,6.92-5.54,10.5-.91,1.81-1.48,3.79-2.26,5.71-.66,1.96-1.61,3.85-2.05,5.92-1.05,4.09-2.33,8.22-2.82,12.61-1.58,8.66-1.5,17.88-.48,27.23.37,2.33.75,4.68,1.13,7.04.42,2.36,1.2,4.66,1.78,7.02l.96,3.54,1.32,3.45c.95,2.28,1.63,4.7,2.81,6.92,4.09,9.18,10.06,17.77,17.14,25.61l2.73,2.9c.89.99,1.83,1.94,2.87,2.79,2.02,1.76,4.06,3.54,6.1,5.32,2.2,1.59,4.42,3.19,6.64,4.8,2.23,1.6,4.71,2.85,7.08,4.3,9.71,5.4,20.48,9.39,31.87,11.55,2.87.42,5.75.85,8.64,1.28,2.92.15,5.86.29,8.81.44,5.92.16,11.94.04,17.99.07l-.72.72c-.08-7.75-.16-15.62-.25-23.63l.76.72c-4.45.18-8.94.37-13.46.55-2.25.17-4.54.02-6.84-.09-2.3-.1-4.61-.17-6.88-.58-9.17-1.1-18.31-3.71-26.8-7.92-16.99-8.24-31.72-22.63-39.29-40.85-3.28-7.52-5.01-15.62-5.45-23.68-.41-4.04.01-8.07.2-12.08.66-3.96,1.13-7.95,2.36-11.76,2.14-7.67,5.42-15.01,9.9-21.46,4.42-6.46,9.57-12.43,15.65-17.21,6.01-4.8,12.49-9.02,19.51-11.9l2.59-1.16,2.67-.92c1.79-.59,3.54-1.28,5.35-1.78,3.65-.84,7.24-1.92,10.94-2.29,7.33-1.26,14.72-1.1,21.94-.55,3.58.58,7.2.85,10.65,1.85,1.74.44,3.49.8,5.2,1.31,1.68.58,3.36,1.16,5.04,1.74,1.7.52,3.3,1.26,4.9,2,1.59.75,3.22,1.41,4.77,2.22,3,1.79,6.15,3.31,8.89,5.43,5.79,3.78,10.69,8.61,15.22,13.54,8.63,10.25,14.75,22.25,17.04,34.67.46,3.12,1.16,6.18,1.17,9.29.08,1.55.16,3.09.24,4.62.02,1.48.22,2.9.71,4.26.95,2.7,2.96,5.02,5.53,6.12,2.55,1.13,5.57.97,7.96-.36,2.41-1.31,4.18-3.65,4.97-6.24.89-2.57.39-5.42.31-8.18-.06-5.54-1.1-10.88-2.01-16.08-2.25-10.36-6.26-19.7-10.91-28-1.26-2.02-2.5-4.02-3.72-5.98-1.27-1.93-2.76-3.67-4.09-5.48-.68-.89-1.36-1.78-2.03-2.65-.71-.85-1.49-1.62-2.22-2.43-1.48-1.59-2.94-3.16-4.37-4.7-12.13-11.72-25.15-18.78-36.22-22.91-5.51-2.23-10.69-3.3-15.1-4.47-4.5-.73-8.32-1.4-11.43-1.72-3.09-.18-5.46-.33-7.1-.42-1.6-.1-2.42-.2-2.42-.2Z"/><path class="cls-5" d="M262,608.67c0,10.37-7.63,18.77-17.04,18.77s-17.04-8.41-17.04-18.77,7.63-18.77,17.04-18.77,17.04,8.41,17.04,18.77Z"/><rect class="cls-1" x="287.7" y="259.65" width="578.38" height="24.21"/><rect class="cls-1" x="287.7" y="229.97" width="337.11" height="24.21"/><rect class="cls-1" x="287.7" y="780.14" width="337.11" height="24.21"/><rect class="cls-6" x="290.2" y="177.86" width="579.1" height="35.31"/><rect class="cls-6" x="283.97" y="501.52" width="579.1" height="35.31"/><rect class="cls-6" x="290.2" y="327.6" width="230.96" height="35.31"/><rect class="cls-6" x="574.31" y="327.6" width="288.75" height="35.31"/><path class="cls-5" d="M624.81,244.37c0,.41-74.32.75-165.97.75s-165.99-.33-165.99-.75,74.3-.75,165.99-.75,165.97.33,165.97.75Z"/><path class="cls-5" d="M866.08,272.15c0,.41-128.47.75-286.91.75s-286.94-.33-286.94-.75,128.44-.75,286.94-.75,286.91.33,286.91.75Z"/><path class="cls-5" d="M866.08,298.47c0,.41-128.47.75-286.91.75s-286.94-.33-286.94-.75,128.44-.75,286.94-.75,286.91.33,286.91.75Z"/><path class="cls-5" d="M519.15,384.46c0,.41-51.66.75-115.38.75s-115.39-.33-115.39-.75,51.65-.75,115.39-.75,115.38.33,115.38.75Z"/><path class="cls-5" d="M519.15,411.58c0,.41-50.81.75-113.46.75s-113.48-.33-113.48-.75,50.8-.75,113.48-.75,113.46.33,113.46.75Z"/><path class="cls-5" d="M518.21,439.15c0,.41-51.24.75-114.44.75s-114.45-.33-114.45-.75,51.23-.75,114.45-.75,114.44.33,114.44.75Z"/><path class="cls-5" d="M518.21,465.91c0,.41-51.24.75-114.44.75s-114.45-.33-114.45-.75,51.23-.75,114.45-.75,114.44.33,114.44.75Z"/><path class="cls-5" d="M858.63,390.82c0,.41-53.51.75-119.51.75s-119.52-.33-119.52-.75,53.5-.75,119.52-.75,119.51.33,119.51.75Z"/><path class="cls-5" d="M601.25,399.47c-.09-.1-.18-1.92-.3-4.96-.11-3.05-.25-7.29-.31-12.33l.61.65c-4.89.03-10.49.06-16.46.1-.16.16,1.34-1.41.71-.74h0v1.18s0,1.17,0,1.17c0,.78,0,1.55,0,2.31,0,1.52-.01,3.01-.02,4.47-.03,2.88-.05,5.61-.07,8.16l-.61-.65c4.8.06,8.83.21,11.74.33,2.9.12,4.63.22,4.72.32.09.1-1.47.19-4.33.32-2.86.12-7.06.27-12.13.33h-.61s0-.65,0-.65c-.02-2.55-.05-5.28-.07-8.16,0-1.46-.01-2.95-.02-4.47,0-.76,0-1.53,0-2.31v-1.17s0-.59,0-.59v-.3s0-.15,0-.15v-.13h0c-.63.65.86-.93.71-.76,5.97.04,11.57.07,16.46.1h.62s0,.65,0,.65c-.06,5.33-.2,9.74-.31,12.74-.12,3.01-.21,4.65-.3,4.55Z"/><path class="cls-5" d="M858.63,424.04c0,.41-53.51.75-119.51.75s-119.52-.33-119.52-.75,53.5-.75,119.52-.75,119.51.33,119.51.75Z"/><path class="cls-5" d="M601.25,432.69c-.09-.1-.18-1.92-.3-4.96-.11-3.05-.25-7.29-.31-12.33l.61.65c-4.89.03-10.49.06-16.46.1-.16.16,1.34-1.41.71-.74h0v1.18s0,1.17,0,1.17c0,.78,0,1.55,0,2.31,0,1.52-.01,3.01-.02,4.47-.03,2.88-.05,5.61-.07,8.16l-.61-.65c4.8.06,8.83.21,11.74.33,2.9.12,4.63.22,4.72.32.09.1-1.47.19-4.33.32-2.86.12-7.06.27-12.13.33h-.61s0-.65,0-.65c-.02-2.55-.05-5.28-.07-8.16,0-1.46-.01-2.95-.02-4.47,0-.76,0-1.53,0-2.31v-1.17s0-.59,0-.59v-.3s0-.15,0-.15v-.13h0c-.63.65.86-.93.71-.76,5.97.04,11.57.07,16.46.1h.62s0,.65,0,.65c-.06,5.33-.2,9.74-.31,12.74-.12,3.01-.21,4.65-.3,4.55Z"/><path class="cls-5" d="M858.63,457.26c0,.41-53.51.75-119.51.75s-119.52-.33-119.52-.75,53.5-.75,119.52-.75,119.51.33,119.51.75Z"/><path class="cls-5" d="M601.25,465.91c-.09-.1-.18-1.92-.3-4.96-.11-3.05-.25-7.29-.31-12.33l.61.65c-4.89.03-10.49.06-16.46.1-.16.16,1.34-1.41.71-.74h0v1.18s0,1.17,0,1.17c0,.78,0,1.55,0,2.31,0,1.52-.01,3.01-.02,4.47-.03,2.88-.05,5.61-.07,8.16l-.61-.65c4.8.06,8.83.21,11.74.33,2.9.12,4.63.22,4.72.32.09.1-1.47.19-4.33.32-2.86.12-7.06.27-12.13.33h-.61s0-.65,0-.65c-.02-2.55-.05-5.28-.07-8.16,0-1.46-.01-2.95-.02-4.47,0-.76,0-1.53,0-2.31v-1.17s0-.59,0-.59v-.3s0-.15,0-.15v-.13h0c-.63.65.86-.93.71-.76,5.97.04,11.57.07,16.46.1h.62s0,.65,0,.65c-.06,5.33-.2,9.74-.31,12.74-.12,3.01-.21,4.65-.3,4.55Z"/><path class="cls-5" d="M858.63,731.94s-.03-.97-.04-2.83c-.01-1.88-.03-4.64-.05-8.27-.02-7.29-.06-18.05-.11-32.04-.06-27.96-.14-68.8-.24-120.44l.44.46c-130.54.07-337.6.17-570.19.29h-.03l.71-.75c0,56.28-.01,111.14-.02,163.58l-.69-.73c163.05.13,305.51.25,407.23.33,50.9.09,91.61.16,119.62.21,14,.04,24.82.07,32.17.1,3.65.02,6.44.04,8.34.05,1.88.02,2.86.05,2.86.05,0,0-.92.03-2.77.05-1.88.01-4.64.03-8.26.05-7.31.02-18.08.05-32.02.1-27.97.05-68.62.12-119.46.21-101.85.08-244.48.2-407.72.33h-.69s0-.73,0-.73c0-52.44-.01-107.3-.02-163.58v-.75s.71,0,.71,0h.03c232.59.12,439.65.22,570.19.29h.44s0,.46,0,.46c-.1,51.75-.19,92.69-.24,120.71-.05,13.94-.08,24.67-.11,31.94-.02,3.59-.04,6.32-.05,8.19-.01,1.83-.04,2.74-.04,2.74Z"/><path class="cls-5" d="M858.63,609.53c0,.41-127.3.75-284.3.75s-284.33-.33-284.33-.75,127.27-.75,284.33-.75,284.3.33,284.3.75Z"/><path class="cls-5" d="M858.63,650.15c0,.41-127.3.75-284.3.75s-284.33-.33-284.33-.75,127.27-.75,284.33-.75,284.3.33,284.3.75Z"/><path class="cls-5" d="M858.63,691.21c0,.41-127.3.75-284.3.75s-284.33-.33-284.33-.75,127.27-.75,284.33-.75,284.3.33,284.3.75Z"/><path class="cls-5" d="M354.69,733.37c-.39,0-.71-37-.71-82.63s.32-82.64.71-82.64.71,36.99.71,82.64-.32,82.63-.71,82.63Z"/><path class="cls-5" d="M547.51,728.4c-.39,0-.71-35.33-.71-78.91s.32-78.91.71-78.91.71,35.32.71,78.91-.32,78.91-.71,78.91Z"/><path class="cls-5" d="M750.69,735.85c-.39,0-.71-36.44-.71-81.39s.32-81.4.71-81.4.71,36.44.71,81.4-.32,81.39-.71,81.39Z"/><path class="cls-5" d="M847.28,768.6c0,.41-124.51.75-278.07.75s-278.1-.33-278.1-.75,124.49-.75,278.1-.75,278.07.33,278.07.75Z"/><path class="cls-5" d="M847.28,792.24c0,.41-124.51.75-278.07.75s-278.1-.33-278.1-.75,124.49-.75,278.1-.75,278.07.33,278.07.75Z"/><path class="cls-5" d="M493.5,815.89c0,.41-45.31.75-101.19.75s-101.2-.33-101.2-.75,45.3-.75,101.2-.75,101.19.33,101.19.75Z"/><g class="cls-2"><polygon points="137.38 732.67 169.84 732.67 169.76 704.7 137.38 704.7 137.38 732.67"/></g><path class="cls-6" d="M152.98,513.64c-56.47,0-102.41,44.71-102.41,99.67s46.5,99.68,102.97,99.68h16.31l-.24-23.64-16.07.65c-44.97,0-82.11-34.4-82.11-76.69s36.59-76.69,81.56-76.69,81.56,34.4,81.56,76.69c0,6.35,4.67,11.49,10.43,11.49s10.43-5.15,10.43-11.49c0-54.96-45.94-99.67-102.41-99.67Z"/><path class="cls-5" d="M152.98,513.64s.82-.01,2.43.04c1.65.06,4.02.16,7.13.28,3.12.27,6.96.9,11.49,1.59,4.44,1.13,9.66,2.15,15.21,4.35,11.16,4.06,24.32,11.09,36.6,22.86,1.45,1.55,2.93,3.12,4.43,4.72.74.81,1.53,1.59,2.25,2.44.68.88,1.37,1.77,2.06,2.67,1.35,1.81,2.86,3.57,4.15,5.51,1.24,1.98,2.5,3.99,3.78,6.03,4.73,8.36,8.82,17.79,11.12,28.25.94,5.25,2,10.65,2.08,16.25.08,2.76.63,5.66-.33,8.57-.86,2.84-2.79,5.43-5.49,6.91-2.68,1.51-6.1,1.7-8.98.43-2.9-1.24-5.13-3.82-6.18-6.79-.55-1.48-.77-3.09-.79-4.66-.08-1.51-.17-3.02-.25-4.54-.02-3.06-.71-6.07-1.17-9.13-2.27-12.21-8.31-23.99-16.81-34.05-4.47-4.84-9.29-9.58-15-13.29-2.7-2.08-5.8-3.57-8.75-5.33-1.53-.79-3.13-1.44-4.7-2.18-1.57-.73-3.15-1.46-4.82-1.96-1.65-.57-3.3-1.14-4.96-1.71-1.68-.5-3.41-.85-5.12-1.28-3.4-.98-6.96-1.23-10.48-1.81-7.1-.53-14.38-.69-21.59.56-3.64.37-7.17,1.43-10.75,2.26-1.77.5-3.5,1.18-5.25,1.76l-2.63.91-2.54,1.14c-6.89,2.83-13.26,6.98-19.16,11.7-5.97,4.69-11.01,10.56-15.35,16.89-4.39,6.33-7.6,13.53-9.69,21.04-1.21,3.73-1.66,7.64-2.31,11.52-.18,3.93-.59,7.88-.19,11.83.44,7.89,2.13,15.83,5.34,23.19,7.42,17.85,21.87,31.99,38.56,40.09,8.34,4.14,17.32,6.71,26.33,7.79,2.24.41,4.5.48,6.75.58,2.25.11,4.49.27,6.75.09,4.51-.18,8.99-.36,13.44-.54l.75-.03v.75c.08,8.01.16,15.88.23,23.63v.73s-.72,0-.72,0c-6.06-.04-12.05.08-18.01-.09-2.99-.15-5.96-.3-8.93-.45-2.93-.44-5.85-.87-8.76-1.31-11.54-2.21-22.45-6.27-32.28-11.75-2.39-1.48-4.9-2.75-7.16-4.37-2.25-1.63-4.49-3.26-6.72-4.87-2.07-1.81-4.13-3.61-6.17-5.4-1.05-.86-2-1.83-2.9-2.83l-2.76-2.94c-7.16-7.96-13.18-16.67-17.3-25.97-1.19-2.25-1.88-4.7-2.83-7.01l-1.33-3.5-.97-3.58c-.59-2.39-1.36-4.72-1.79-7.11-.38-2.4-.75-4.77-1.12-7.13-1-9.47-1.05-18.79.57-27.54.51-4.43,1.81-8.6,2.89-12.73.45-2.1,1.42-4,2.09-5.98.79-1.94,1.37-3.93,2.3-5.76,1.91-3.62,3.4-7.37,5.64-10.59,1.04-1.66,2.07-3.29,3.08-4.91,1.07-1.58,2.29-3.02,3.41-4.51,9.12-11.78,19.8-20.23,29.9-26,1.26-.72,2.47-1.5,3.72-2.14,1.27-.59,2.52-1.17,3.75-1.75,2.46-1.11,4.75-2.34,7.14-3.07,2.34-.82,4.58-1.61,6.7-2.36,2.16-.63,4.26-1.08,6.23-1.58,3.91-1.12,7.49-1.47,10.56-1.93,1.54-.2,2.95-.47,4.25-.55,1.3-.05,2.48-.1,3.54-.14,2.08-.08,3.67-.13,4.78-.17,1.07-.03,1.62-.02,1.62-.02,0,0-.55.07-1.62.14-1.11.07-2.7.17-4.77.3-1.05.06-2.23.13-3.53.2-1.3.1-2.7.39-4.23.61-3.05.49-6.61.88-10.49,2.04-1.95.52-4.03.98-6.18,1.63-2.11.76-4.33,1.56-6.65,2.4-2.36.73-4.63,1.98-7.07,3.1-1.21.57-2.45,1.16-3.71,1.76-1.24.65-2.43,1.42-3.68,2.15-10,5.79-20.55,14.23-29.54,25.94-1.1,1.48-2.3,2.91-3.36,4.48-1,1.61-2.01,3.23-3.03,4.87-2.21,3.2-3.67,6.92-5.54,10.5-.91,1.81-1.48,3.79-2.26,5.71-.66,1.96-1.61,3.85-2.05,5.92-1.05,4.09-2.33,8.22-2.82,12.61-1.58,8.66-1.5,17.88-.48,27.23.37,2.33.75,4.68,1.13,7.04.42,2.36,1.2,4.66,1.78,7.02l.96,3.54,1.32,3.45c.95,2.28,1.63,4.7,2.81,6.92,4.09,9.18,10.06,17.77,17.14,25.61l2.73,2.9c.89.99,1.83,1.94,2.87,2.79,2.02,1.76,4.06,3.54,6.1,5.32,2.2,1.59,4.42,3.19,6.64,4.8,2.23,1.6,4.71,2.85,7.08,4.3,9.71,5.4,20.48,9.39,31.87,11.55,2.87.42,5.75.85,8.64,1.28,2.92.15,5.86.29,8.81.44,5.92.16,11.94.04,17.99.07l-.72.72c-.08-7.75-.16-15.62-.25-23.63l.76.72c-4.45.18-8.94.37-13.46.55-2.25.17-4.54.02-6.84-.09-2.3-.1-4.61-.17-6.88-.58-9.17-1.1-18.31-3.71-26.8-7.92-16.99-8.24-31.72-22.63-39.29-40.85-3.28-7.52-5.01-15.62-5.45-23.68-.41-4.04.01-8.07.2-12.08.66-3.96,1.13-7.95,2.36-11.76,2.14-7.67,5.42-15.01,9.9-21.46,4.42-6.46,9.57-12.43,15.65-17.21,6.01-4.8,12.49-9.02,19.51-11.9l2.59-1.16,2.67-.92c1.79-.59,3.54-1.28,5.35-1.78,3.65-.84,7.24-1.92,10.94-2.29,7.33-1.26,14.72-1.1,21.94-.55,3.58.58,7.2.85,10.65,1.85,1.74.44,3.49.8,5.2,1.31,1.68.58,3.36,1.16,5.04,1.74,1.7.52,3.3,1.26,4.9,2,1.59.75,3.22,1.41,4.77,2.22,3,1.79,6.15,3.31,8.89,5.43,5.79,3.78,10.69,8.61,15.22,13.54,8.63,10.25,14.75,22.25,17.04,34.67.46,3.12,1.16,6.18,1.17,9.29.08,1.55.16,3.09.24,4.62.02,1.48.22,2.9.71,4.26.95,2.7,2.96,5.02,5.53,6.12,2.55,1.13,5.57.97,7.96-.36,2.41-1.31,4.18-3.65,4.97-6.24.89-2.57.39-5.42.31-8.18-.06-5.54-1.1-10.88-2.01-16.08-2.25-10.36-6.26-19.7-10.91-28-1.26-2.02-2.5-4.02-3.72-5.98-1.27-1.93-2.76-3.67-4.09-5.48-.68-.89-1.36-1.78-2.03-2.65-.71-.85-1.49-1.62-2.22-2.43-1.48-1.59-2.94-3.16-4.37-4.7-12.13-11.72-25.15-18.78-36.22-22.91-5.51-2.23-10.69-3.3-15.1-4.46-4.5-.73-8.32-1.4-11.43-1.72-3.09-.18-5.46-.33-7.1-.42-1.6-.1-2.42-.2-2.42-.2Z"/><g class="cls-2"><polygon points="137.38 1030.46 119.37 1080 995.5 1080 995.5 1030.46 137.38 1030.46"/></g><path class="cls-5" d="M191.39,971.75s1.3-.04,3.83-.05c2.56,0,6.32,0,11.25,0,9.92.03,24.53.08,43.38.15,37.75.19,92.46.47,160.43.81,135.98.82,324.96,1.96,537.08,3.24l-.75.74c0-23.44,0-48.39,0-73.6.09-229.13.16-436.53.22-586.68.1-75.05.18-135.79.24-177.79.06-20.97.11-37.26.14-48.34.03-5.51.06-9.71.07-12.57.03-2.83.08-4.28.08-4.28,0,0,.05,1.45.08,4.28.02,2.86.04,7.06.07,12.57.03,11.07.08,27.36.14,48.34.06,42,.14,102.74.24,177.79.06,150.15.13,357.55.22,586.68,0,25.21,0,50.16,0,73.6v.75h-.75c-212.12-1.47-401.1-2.78-537.08-3.72-67.96-.54-122.67-.97-160.42-1.27-18.85-.18-33.45-.32-43.37-.41-4.93-.06-8.69-.11-11.25-.14-2.53-.04-3.83-.1-3.83-.1Z"/><path class="cls-5" d="M178.95,959.56s1.29-.04,3.82-.06c2.55,0,6.3-.02,11.22-.03,9.9,0,24.47.02,43.27.03,37.66.09,92.25.21,160.08.37,135.7.45,324.36,1.06,536.28,1.76l-.75.74c.02-24.72.05-51,.08-77.57.32-229.86.61-437.93.82-588.56.18-75.29.32-136.22.42-178.36.08-21.04.15-37.38.19-48.49.04-5.53.07-9.75.09-12.61.03-2.84.08-4.3.08-4.3,0,0,.05,1.46.07,4.3.01,2.87.03,7.08.06,12.61.02,11.11.05,27.45.09,48.49.01,42.14.03,103.07.05,178.36-.1,150.63-.23,358.7-.39,588.56-.03,26.57-.06,52.85-.08,77.57v.75s-.75,0-.75,0c-211.92-.89-400.57-1.67-536.28-2.24-67.83-.35-122.41-.63-160.07-.83-18.8-.13-33.37-.23-43.27-.29-4.92-.05-8.67-.09-11.22-.11-2.53-.03-3.82-.09-3.82-.09Z"/><path class="cls-5" d="M202.55,983.46s1.29-.04,3.83-.05c2.56,0,6.31,0,11.24,0,9.91.03,24.5.08,43.33.14,37.7.19,92.34.46,160.19.8,135.75.81,324.33,1.94,535.79,3.21l-.75.74c.08-21.64.17-44.7.26-67.99.96-227.14,1.83-432.74,2.46-581.58.39-74.4.7-134.6.92-176.24.14-20.79.25-36.94.32-47.92.05-5.46.09-9.63.12-12.46.04-2.81.09-4.25.09-4.25,0,0,.05,1.44.06,4.25,0,2.83.01,7,.03,12.46-.01,10.98-.02,27.13-.04,47.92-.1,41.64-.25,101.84-.44,176.24-.52,148.85-1.23,354.44-2.02,581.58-.09,23.29-.18,46.35-.26,67.99v.75s-.75,0-.75,0c-211.46-1.46-400.04-2.75-535.78-3.69-67.85-.53-122.48-.96-160.19-1.26-18.82-.18-33.41-.32-43.33-.41-4.93-.06-8.69-.11-11.24-.14-2.53-.04-3.82-.1-3.82-.1Z"/><polygon class="cls-4" points="934.47 133.81 1004.82 133.81 1029.89 161.97 1008.08 195.51 934.41 195.51 934.47 133.81"/></svg>