<?xml version="1.0" encoding="UTF-8"?><svg id="Layer_1" xmlns="http://www.w3.org/2000/svg" viewBox="0 0 965.88 1082.57"><defs><style>.cls-1{fill:#10332f;}</style></defs><g id="Layer_2"><g id="Layer_2_copy_2"><g id="_115"><path class="cls-1" d="M133.42,1082.57C59.63,1082.57-.21,1022.74,0,948.94c0-14.38,2.33-28.76,6.98-42.5,88.17-263.03,372.56-404.7,635.59-316.53,149.28,50.11,266.41,167.25,316.31,316.31,23.47,69.99-13.96,145.68-83.94,169.36-13.74,4.65-28.12,6.98-42.5,6.98H133.42Z"/><path class="cls-1" d="M832.44,1065.66c79.92,0,135.74-78.23,110.37-153.93-64.28-192.41-245.9-330.9-459.88-330.9S87.33,719.32,23.05,911.73c-25.16,75.7,30.66,153.93,110.37,153.93h699.02Z"/><circle class="cls-1" cx="482.93" cy="254.57" r="254.57"/><circle class="cls-1" cx="482.93" cy="254.57" r="237.66"/></g></g></g></svg>