<?xml version="1.0" encoding="UTF-8"?><svg id="Layer_1" xmlns="http://www.w3.org/2000/svg" viewBox="0 0 1080 1080"><defs><style>.cls-1{fill:#c6594b;}.cls-2{fill:#f9939d;}.cls-3{fill:#ffdbc0;}.cls-4{fill:#fff;}.cls-5{fill:#f9735f;}.cls-6{fill:#d10064;}.cls-7{fill:#ffe3cc;}.cls-8{fill:#1e1c1b;}.cls-9{fill:#212020;}.cls-10{fill:#d34d3c;}.cls-11{fill:#302c2c;}.cls-12{fill:#f4edef;}.cls-13{fill:#bf513c;}.cls-14{fill:#fffdfd;}.cls-15{fill:#ef7d3f;}</style></defs><g id="mobile_app"><path class="cls-1" d="M656.64,4.48H144.17c-35.29,0-63.91,26.28-63.91,58.7v936.01c0,32.43,28.62,58.69,63.91,58.69h512.46c35.29,0,63.92-26.27,63.92-58.69V63.18c0-32.41-28.63-58.7-63.92-58.7ZM671.37,957.55H129.45V106.71h541.92v850.84Z"/></g><g id="mobile_app-2"><path class="cls-13" d="M80.25,63.15v936.07c0,27.67,20.96,50.91,49.2,57.04V6.1c-28.24,6.13-49.2,29.38-49.2,57.04Z"/></g><g id="mobile_app-3"><path class="cls-13" d="M671.35,6.1v1050.16c28.24-6.13,49.2-29.38,49.2-57.04V63.15c0-27.67-20.96-50.91-49.2-57.04Z"/></g><path class="cls-9" d="M201.01,41.14c0,12.49-10.48,22.61-23.42,22.61s-23.42-10.12-23.42-22.61,10.49-22.61,23.42-22.61,23.42,10.12,23.42,22.61Z"/><path class="cls-10" d="M188.94,41.14c0,6.05-5.08,10.96-11.35,10.96s-11.35-4.91-11.35-10.96,5.08-10.96,11.35-10.96,11.35,4.91,11.35,10.96Z"/><path class="cls-9" d="M254.86,41.14c0,5.9-4.96,10.69-11.07,10.69s-11.07-4.79-11.07-10.69,4.96-10.69,11.07-10.69,11.07,4.79,11.07,10.69Z"/><path class="cls-9" d="M299.65,41.14c0,5.9-4.96,10.69-11.07,10.69s-11.07-4.79-11.07-10.69,4.96-10.69,11.07-10.69,11.07,4.79,11.07,10.69Z"/><path class="cls-4" d="M689.85,101.15v861.84c0,14.69-11.87,26.56-26.56,26.56H137.54c-14.7,0-26.56-11.87-26.56-26.56V101.15c0-14.6,11.87-26.56,26.56-26.56h525.74c14.69,0,26.56,11.97,26.56,26.56Z"/><circle class="cls-14" cx="400.4" cy="293.18" r="191.21" transform="translate(-90.03 369) rotate(-45)"/><path class="cls-2" d="M400.23,447.51c-38.51,0-75.44-14.37-103.98-40.46-28.71-26.24-46.33-62.04-49.62-100.81-7.2-84.79,55.93-159.62,140.71-166.82,4.39-.37,8.84-.56,13.22-.56,38.52,0,75.44,14.37,103.98,40.45,28.7,26.24,46.32,62.05,49.62,100.82,3.49,41.07-9.23,81.04-35.81,112.55-26.58,31.51-63.84,50.78-104.9,54.27-4.39.37-8.83.56-13.21.56h0ZM400.55,168.78c-3.54,0-7.13.15-10.67.45-68.34,5.8-119.22,66.12-113.42,134.47,5.42,63.86,59.8,113.88,123.8,113.88,3.54,0,7.13-.15,10.67-.45,33.1-2.81,63.13-18.35,84.56-43.75,21.42-25.4,31.68-57.62,28.86-90.72-5.42-63.86-59.8-113.88-123.8-113.88Z"/><path class="cls-5" d="M400.24,447.51c-70.41,0-131.8-47.64-149.28-115.85-1.86-7.26,2.09-14.67,9.19-17.25l.8-.29c1.59-.58,3.24-.87,4.92-.87,6.63,0,12.44,4.56,14.12,11.09,14.13,54.9,63.59,93.24,120.26,93.24h.01c4.72,0,9.51-.27,14.23-.8,64.52-7.3,112.93-63.82,110.21-128.66-2.81-66.89-57.34-119.29-124.15-119.29-7.93,0-14.33-5.75-15.12-13.38-.45-4.35.91-8.53,3.72-11.65,2.78-3.1,6.74-4.88,10.87-4.89h.56c82.77,0,150.42,64.91,154.02,147.77,3.47,79.97-56.08,150.12-135.57,159.71-6.23.75-12.55,1.13-18.78,1.13Z"/><path class="cls-13" d="M353.55,252.74v2.28l-22.13,56.12h-16.47l17.85-44.71h-24.1v-13.68h44.85Z"/><path class="cls-13" d="M400.66,297.29v13.85h-43.43v-3.55c23.5-27.71,26.73-32.19,26.73-37.2,0-3.17-2.09-5.29-5.08-5.29-3.28,0-5.28,2.21-5.28,5.73v1.13h-15.44v-1.08c0-11.81,7.74-19.61,20.52-19.61s20.94,7.62,20.94,18.58c0,7.35-2.72,12.99-15.21,27.46h16.23Z"/><path class="cls-13" d="M431.46,252.74v58.4h-15.73v-45.16h-8.66v-13.23h24.39Z"/><path class="cls-13" d="M440.98,282.01c0-18.7,9.99-30.67,25.56-30.67s25.56,11.96,25.56,30.67-10.04,30.67-25.56,30.67-25.56-12.01-25.56-30.67ZM476.09,282.06c0-10.76-3.45-16.81-9.55-16.81s-9.55,6-9.55,16.76,3.4,16.76,9.55,16.76,9.55-5.95,9.55-16.71Z"/><path class="cls-2" d="M343.45,360.88c-7.29,0-11.72-3.85-11.8-9.64h8.87c0,1.96,1.36,2.86,3.11,2.86,1.35,0,2.62-.69,2.62-2.07,0-1.54-2.02-1.98-4.59-2.41-4.15-.67-9.64-1.92-9.64-8.41,0-5.36,4.57-8.82,11.42-8.82s11.22,3.62,11.33,9.04h-8.62c0-1.71-1.15-2.5-2.82-2.5-1.48,0-2.47.73-2.47,1.97,0,1.52,2.05,1.88,4.59,2.33,4.22.75,9.84,1.63,9.84,8.41,0,5.59-4.72,9.24-11.82,9.24h0Z"/><path class="cls-2" d="M377.36,351.93v8.07h-6.34c-5.91,0-9.51-3.61-9.51-9.56v-10.09h-4.89v-2.15l11.98-12.76h1.89v7.82h6.72v7.09h-6.49v8.51c0,1.91,1.16,3.07,3.1,3.07h3.54Z"/><path class="cls-2" d="M408.97,346.38c0,.81-.07,1.61-.19,2.44h-19.86c.6,3.07,2.55,4.65,5.46,4.65,2.15,0,3.95-.94,4.83-2.51h9.17c-1.88,6.1-7.29,9.92-14,9.92-8.34,0-14.52-6.1-14.52-14.27s6.13-14.23,14.52-14.23,14.59,6.15,14.59,13.99h0ZM389.08,343.71h10.81c-.81-2.67-2.73-4.11-5.51-4.11s-4.55,1.46-5.3,4.11Z"/><path class="cls-2" d="M442.79,346.63c0,8.33-5.84,14.27-14.02,14.27-2.42,0-4.63-.64-6.52-1.78v10.53h-9.11v-36.4h6.26l1.15,2.12c2.2-1.9,5.03-3,8.21-3,8.18,0,14.02,5.92,14.02,14.25ZM433.53,346.63c0-3.51-2.54-6.12-5.99-6.12s-5.99,2.61-5.99,6.12,2.54,6.12,5.99,6.12,5.99-2.61,5.99-6.12Z"/><path class="cls-2" d="M457.33,360.88c-7.29,0-11.72-3.85-11.8-9.64h8.87c0,1.96,1.36,2.86,3.11,2.86,1.35,0,2.62-.69,2.62-2.07,0-1.54-2.02-1.98-4.59-2.41-4.15-.67-9.64-1.92-9.64-8.41,0-5.36,4.57-8.82,11.42-8.82s11.22,3.62,11.33,9.04h-8.62c0-1.71-1.15-2.5-2.82-2.5-1.48,0-2.47.73-2.47,1.97,0,1.52,2.05,1.88,4.59,2.33,4.22.75,9.84,1.63,9.84,8.41,0,5.59-4.72,9.24-11.82,9.24h0Z"/><circle class="cls-15" cx="254.17" cy="555.76" r="55.03" transform="translate(-335.13 717.63) rotate(-80.78)"/><rect class="cls-4" x="242.54" y="551.81" width="23.27" height="7.9"/><path class="cls-4" d="M282.22,543.72h-4.4c-.3,0-.57.08-.81.22-.11.06-.2.15-.29.23v23.18c.28.28.67.45,1.1.45h4.4c.29,0,.57-.08.81-.22.46-.28.77-.78.77-1.36v-20.93c0-.87-.71-1.58-1.58-1.58Z"/><path class="cls-4" d="M273.63,539.96h-4.74c-.6,0-1.11.33-1.38.81,0,0,0,0,0,0h0c-.13.23-.2.49-.2.76v28.44c0,.87.71,1.58,1.58,1.58h4.74c.87,0,1.58-.71,1.58-1.58v-28.44c0-.87-.71-1.58-1.58-1.58Z"/><path class="cls-4" d="M226.13,543.72c-.34,0-.65.11-.91.29h0s0,0,0,0c-.08.06-.16.12-.23.2-.27.28-.44.67-.44,1.09v20.93c0,.19.03.37.09.54.22.61.8,1.04,1.49,1.04h4.39c.43,0,.82-.17,1.1-.45v-23.19c-.28-.28-.67-.45-1.1-.45h-4.39Z"/><path class="cls-4" d="M239.45,539.96h-4.74c-.58,0-1.09.31-1.36.78h0c-.14.24-.22.51-.22.8v28.44c0,.87.71,1.58,1.58,1.58h4.74c.87,0,1.58-.71,1.58-1.58v-28.44c0-.87-.71-1.58-1.58-1.58Z"/><circle class="cls-15" cx="546.63" cy="555.76" r="55.03" transform="translate(-119.85 960.08) rotate(-76.72)"/><path class="cls-4" d="M547.1,528.32c-7.7,0-14.08,4.63-17.76,11.96-2.62,1.98-4.3,5.09-4.3,8.53v13.91c0,3.44,1.68,6.56,4.3,8.52h0c3.68,7.34,10.06,11.95,17.76,11.95,14.51,0,21.14-11.72,21.14-27.44s-6.52-27.44-21.13-27.44ZM537.38,557.68c-1.47,1.53-2.73,2.49-3.33,2.92-.23.16-.53.16-.76,0-.6-.43-1.86-1.39-3.33-2.92-1.98-2.06-1.77-4.2-1.05-5.27.76-1.13,3.06-2.2,4.75-.27h0s0,0,0,0c1.69-1.93,3.99-.87,4.75.27.72,1.08.93,3.21-1.05,5.27ZM550.96,574.9c-3.07,0-5.25-1.82-6.68-4.83,1.65-1.82,2.65-4.23,2.65-6.92v-14.77c0-2.69-1-5.1-2.65-6.92,1.45-3,3.62-4.82,6.68-4.82,6.66,0,9.98,8.56,9.98,19.12s-3.32,19.13-9.98,19.13Z"/><circle class="cls-15" cx="400.4" cy="555.76" r="55.03" transform="translate(-182.2 195.53) rotate(-22.5)"/><path class="cls-4" d="M415.73,541.68c-.67,3.13-2.91,5.02-2.91,5.02-1.42-3.06-2.12-7.61-.19-12.9-2.9.57-6.13,2.54-8.39,4.99-1.36-3.93-.8-8.7.65-12.33-13,5.52-19.71,13.89-22.69,22.16-.77-.86-1.6-2.04-1.9-3.35-1.45,2.64-8.26,20.11,6.46,31.31.02.01.03.03.05.04,2.38,2.02,5.39,3.49,9.04,4.34-.01,0-.02-.02-.03-.02-11.76-7.15-9.51-19.37-8.65-21.9.26.36.65.77,1.11,1.2,1.37-6.01,4.89-12.06,10.62-15.06-.8,3.59-.76,9.47,1.68,12.5,0,0,1.72-5.06,5.38-6.37-.45,2.96.34,8.08,2.07,10.6,0,0,2.06-.87,3.63-2.82,3.31,5.72,2.88,18.61-6.57,22.25,9.03-1.03,16.35-6.45,17.9-14.6,1.85-9.71-3.33-19.48-7.25-25.05Z"/><rect class="cls-12" x="193.2" y="699.15" width="414.41" height="154.85" rx="13.5" ry="13.5"/><path class="cls-5" d="M228.61,844.46h0c-5.72,0-10.36-4.64-10.36-10.36v-95.48c0-5.72,4.64-10.36,10.36-10.36h0c5.72,0,10.36,4.64,10.36,10.36v95.48c0,5.72-4.64,10.36-10.36,10.36Z"/><path class="cls-15" d="M262.97,844.46h0c-5.72,0-10.36-4.64-10.36-10.36v-79.12c0-5.72,4.64-10.36,10.36-10.36h0c5.72,0,10.36,4.64,10.36,10.36v79.12c0,5.72-4.64,10.36-10.36,10.36Z"/><path class="cls-5" d="M297.33,844.46h0c-5.72,0-10.36-4.64-10.36-10.36v-103.31c0-5.72,4.64-10.36,10.36-10.36h0c5.72,0,10.36,4.64,10.36,10.36v103.31c0,5.72-4.64,10.36-10.36,10.36Z"/><path class="cls-15" d="M331.69,844.46h0c-5.72,0-10.36-4.64-10.36-10.36v-84.88c0-5.72,4.64-10.36,10.36-10.36h0c5.72,0,10.36,4.64,10.36,10.36v84.88c0,5.72-4.64,10.36-10.36,10.36Z"/><path class="cls-5" d="M366.05,844.46h0c-5.72,0-10.36-4.64-10.36-10.36v-106.76c0-5.72,4.64-10.36,10.36-10.36h0c5.72,0,10.36,4.64,10.36,10.36v106.76c0,5.72-4.64,10.36-10.36,10.36Z"/><path class="cls-15" d="M400.4,844.46h0c-5.72,0-10.36-4.64-10.36-10.36v-75.22c0-5.72,4.64-10.36,10.36-10.36h0c5.72,0,10.36,4.64,10.36,10.36v75.22c0,5.72-4.64,10.36-10.36,10.36Z"/><path class="cls-5" d="M434.76,844.46h0c-5.72,0-10.36-4.64-10.36-10.36v-115.05c0-5.72,4.64-10.36,10.36-10.36h0c5.72,0,10.36,4.64,10.36,10.36v115.05c0,5.72-4.64,10.36-10.36,10.36Z"/><rect class="cls-15" x="458.75" y="714.21" width="20.73" height="130.25" rx="8.26" ry="8.26"/><path class="cls-5" d="M503.48,844.46h0c-5.72,0-10.36-4.64-10.36-10.36v-89.49c0-5.72,4.64-10.36,10.36-10.36h0c5.72,0,10.36,4.64,10.36,10.36v89.49c0,5.72-4.64,10.36-10.36,10.36Z"/><path class="cls-15" d="M537.83,844.46h0c-5.72,0-10.36-4.64-10.36-10.36v-115.05c0-5.72,4.64-10.36,10.36-10.36h0c5.72,0,10.36,4.64,10.36,10.36v115.05c0,5.72-4.64,10.36-10.36,10.36Z"/><rect class="cls-5" x="561.83" y="723.19" width="20.73" height="121.27" rx="8.26" ry="8.26"/><path class="cls-2" d="M589.34,709.32c0,1.88-1.53,3.41-3.41,3.41s-3.41-1.53-3.41-3.41,1.53-3.41,3.41-3.41,3.41,1.53,3.41,3.41Z"/><path class="cls-2" d="M578.82,709.32c0,1.88-1.53,3.41-3.41,3.41s-3.41-1.53-3.41-3.41,1.53-3.41,3.41-3.41,3.41,1.53,3.41,3.41Z"/><path class="cls-2" d="M599.85,709.32c0,1.88-1.53,3.41-3.41,3.41s-3.41-1.53-3.41-3.41,1.53-3.41,3.41-3.41,3.41,1.53,3.41,3.41Z"/><path class="cls-2" d="M211.32,672.77v16.15h-4.3l-.48-1.14c-1.32,1.07-3,1.69-4.87,1.69-4.94,0-8.47-3.6-8.47-8.62s3.53-8.56,8.47-8.56c1.9,0,3.6.63,4.94,1.74l.57-1.25h4.15ZM206.03,680.86c0-2.1-1.53-3.67-3.62-3.67s-3.62,1.57-3.62,3.67,1.53,3.68,3.62,3.68,3.62-1.57,3.62-3.68Z"/><path class="cls-2" d="M222.82,689.47c-5.18,0-8.92-3.63-8.92-8.63s3.72-8.56,8.94-8.56c4.54,0,7.94,2.86,8.55,7.16h-5.42c-.47-1.32-1.7-2.17-3.15-2.17-1.96,0-3.35,1.49-3.35,3.59s1.41,3.63,3.35,3.63c1.49,0,2.7-.91,3.16-2.36h5.47c-.63,4.39-4.08,7.34-8.63,7.34h0Z"/><path class="cls-2" d="M244.6,684.07v4.87h-3.83c-3.57,0-5.74-2.18-5.74-5.77v-6.1h-2.96v-1.3l7.24-7.71h1.14v4.72h4.06v4.28h-3.92v5.14c0,1.16.7,1.85,1.87,1.85h2.14Z"/><path class="cls-2" d="M247.2,672.79h5.56v16.15h-5.56v-16.15ZM247.24,666.05h5.48v4.72h-5.48v-4.72Z"/><path class="cls-2" d="M272.63,672.79l-6.49,16.15h-5.04l-6.58-16.15h6.1l3.05,9.57,3.02-9.57h5.95Z"/><path class="cls-2" d="M274.42,672.79h5.56v16.15h-5.56v-16.15ZM274.46,666.05h5.48v4.72h-5.48v-4.72Z"/><path class="cls-2" d="M294.38,684.07v4.87h-3.83c-3.57,0-5.74-2.18-5.74-5.77v-6.1h-2.96v-1.3l7.24-7.71h1.14v4.72h4.06v4.28h-3.92v5.14c0,1.16.7,1.85,1.87,1.85h2.14Z"/><path class="cls-2" d="M313.86,672.79l-6.77,15.43c-2.18,4.94-4.18,6.73-8.35,6.73h-1.91v-4.78h1.53c2.13,0,2.77-.55,3.52-2.56l-6.67-14.82h6.05l3.43,8.9,3.19-8.9h5.98Z"/><rect class="cls-5" x="268.15" y="885.91" width="264.5" height="52.52" rx="14.09" ry="14.09"/><path class="cls-4" d="M363.54,923.19c-5.38,0-8.66-2.84-8.72-7.12h6.55c0,1.44,1.01,2.11,2.3,2.11,1,0,1.94-.51,1.94-1.53,0-1.14-1.5-1.46-3.39-1.78-3.06-.5-7.12-1.42-7.12-6.21,0-3.96,3.37-6.52,8.44-6.52s8.29,2.68,8.37,6.68h-6.37c0-1.26-.85-1.85-2.08-1.85-1.09,0-1.82.54-1.82,1.46,0,1.12,1.51,1.39,3.39,1.72,3.12.55,7.27,1.2,7.27,6.21,0,4.13-3.48,6.83-8.74,6.83h0Z"/><path class="cls-4" d="M388.59,916.58v5.96h-4.68c-4.37,0-7.02-2.67-7.02-7.06v-7.46h-3.62v-1.59l8.85-9.43h1.4v5.78h4.96v5.24h-4.79v6.29c0,1.41.85,2.27,2.29,2.27h2.61Z"/><path class="cls-4" d="M412.61,902.76v19.76h-5.26l-.58-1.4c-1.62,1.31-3.67,2.07-5.96,2.07-6.04,0-10.36-4.41-10.36-10.55s4.32-10.47,10.36-10.47c2.33,0,4.41.78,6.04,2.12l.7-1.53h5.07ZM406.14,912.66c0-2.56-1.87-4.49-4.42-4.49s-4.42,1.93-4.42,4.49,1.87,4.51,4.42,4.51,4.42-1.93,4.42-4.51Z"/><path class="cls-4" d="M429.76,902.69v6.23h-2.64c-2.41,0-3.42,1.06-3.42,3.58v10.05h-6.81v-19.76h4.56l1.06,2.19c1.39-1.61,3.09-2.29,5.44-2.29h1.8Z"/><path class="cls-4" d="M445.99,916.58v5.96h-4.68c-4.37,0-7.02-2.67-7.02-7.06v-7.46h-3.62v-1.59l8.85-9.43h1.4v5.78h4.96v5.24h-4.79v6.29c0,1.41.85,2.27,2.29,2.27h2.61Z"/><path class="cls-6" d="M923.95,594.34l4.95,9.32s10.33-25.47,16.43-35.16c6.1-9.69,23.26-33.26,23.26-33.26,0,0-15.4-32.05-31.11-20.38-15.72,11.66-20.73,67.07-13.54,79.48Z"/><path class="cls-8" d="M869.18,489.12s-3.36-23.29,1.36-37.78c5.25-16.11-16.24-32.91-.63-58.63,15.62-25.71,53.03,26.51,50.47,57.73-2.56,31.22-12.45,58.06-51.2,38.68Z"/><path class="cls-8" d="M998.82,495.7c-8.01-44.51-31.82-35.23-45.47-74.96-11.32-32.96-45.71,48.24-29.51,99.25h45.99v22.27c16.97-5.42,34.14-17.9,28.99-46.56Z"/><path class="cls-8" d="M859.13,663.48s-15.41,59.7-22.02,176.77c-.47,8.4,25.69,26.67,37.54,3.53,36.64-71.53,45.76-131.75,45.76-131.75l-24.49-58.76-36.8,10.21Z"/><path class="cls-8" d="M870.35,825.66s-33.75,8.14-33.24,14.59c.52,6.45-3.61,95.2-1.16,197.02l17.08-5.66c5.17-64.38,43.74-159.76,17.32-205.95Z"/><path class="cls-3" d="M953.91,587l17.83,3.63c3.3.67,6.26,1.12,6.7-2.22,2.79-20.97,5.85-54.81,7.72-72.82,2.25-21.63-5.57-31.91-14.46-33.86-7.11-1.56-8.57-2.01-8.57-2.01-4.21,5.76-8.99,19.24-9.51,31.34-.48,11.25,3.17,21.31,2.99,22.39-3.21,19.68-3.94,33.51-2.7,53.54Z"/><path class="cls-7" d="M929,599.53c-21.75-2.92-45.05-14.77-63.92-6.18,4.58,29.39-3.15,42.61-3.93,49.94-2.14,20.1,1.27,24.17,2.98,24.14,1.71-.03,73.36-24.41,73.36-24.41,0,0-17.17-10.65-8.49-43.49Z"/><path class="cls-3" d="M869.48,476.21c-11.18,4.39-15.78,7.66-19.51,14.06-4.4,7.54-2.41,13.45-6.53,30.83-5.91,24.9-8.08,49.94-10.92,66.27-2.41,13.87,16.92,14.06,22.27,3.91,5.35-10.15,7.96-37.61,14.55-73.5,2.12-11.52,5.89-24.85,4.72-35.72l-4.57-5.84Z"/><path class="cls-3" d="M840.41,603.21c-6.92,2.11-60.76,13.99-81.54,10.45-13.16-2.24,9.08-12.12,43.22-23.37,14.95-4.93,27.17-10.19,38.99-10.2,10.73,0,16.71,3.89,14.48,9.63-2.11,5.41-5.29,10.48-15.14,13.49Z"/><circle class="cls-13" cx="746.81" cy="602.11" r="12.2"/><path class="cls-3" d="M771.5,603.13c-7.19-3.99-33.88-10.27-33.1,1.71.85,13.13,3.87,28.7,39.23,7.39.42-.26-6.13-9.1-6.13-9.1Z"/><circle class="cls-13" cx="764.78" cy="614.35" r="14.98"/><path class="cls-6" d="M963.13,479.72l-35.06-8.55s-28.31,47.38-41.8-.94l-16.79,5.98s-4.88,29.73-13.08,36.91c-11.6,10.17-18.33,29.69-5.45,48.74,3.44,5.1,13.72,17.65,12.92,34.67-.15,3.26.99,4.85,4.26,4.85,20.35-2.4,39.16.6,57.73,3.93,2.56.68,3.08-1.07,3.52-3.93,3.04-19.96,5.42-19.44,7.5-26.15,5.99-19.24,19.73-41.79,19.73-41.79-2.71-20.32-.2-36.13,6.52-53.73Z"/><path class="cls-7" d="M892.58,445.09s14.35,19.29-6.31,25.14c0,0-.87,4.76-1.13,7.97-.67,8.28.88,16.15,5.63,17.11,17.53,3.54,33-17.93,33-17.93,0,0,10.28,14.31,4.3-6.21-5.99-20.52-1.28-61.52-1.28-61.52,0,0-32.89,20.81-34.21,35.44Z"/><path class="cls-3" d="M878.9,384.05s-5.31,19.56-4.56,33.03c.56,10.09,4.34,31.74,9.28,33.42,10.7,3.62,37.9-12.7,37.9-12.7,0,0,23.52-45.8,10.57-59.37-12.95-13.57-36.19-15.28-53.2,5.62Z"/><path class="cls-8" d="M883.56,371.73c-.06,4.85,6.28,13.29,24.6,29.08,12.74,10.98-5.45,37.51,3.83,53.32,5.63,9.59,11.65,22.92,7.6,32.7-9.22,22.26,16.15,20.19,25.32,6.54,8.82-13.13,15.48-13.03,24.08-12.25,4.8-13.56-4.03-31.11-6.83-37.91-9.35-22.7-9.85-29.71-6.33-51.45,2.79-17.24-6.6-37.6-22.43-43.66-18.75-7.18-49.42-10.2-49.85,23.63Z"/><path class="cls-8" d="M920.31,350.85c-.16-1.34-27.08-11.79-42.67-.65-22.21,15.88-17.82,51.58-8.17,66.94,3.45,5.49-1.16,18.74,5.78,18.69-4.14-14.45-.98-34.49-.98-34.49,0,0,9.73-14.34,24.11-28.38,10.19-9.95,23.07-12.4,21.93-22.11Z"/><path class="cls-11" d="M947.32,830.39c22.84,55.59,14.97,98.87,14.19,161.17-.29,23.16-1.73,44.31-2.18,60.6,0,0-15.38-3.06-16.4-8.37-16.91-88.28-25.15-170.96-35.96-205.18-1.23-3.9,1.74-5.01,1.49-7.39l38.85-.84Z"/><path class="cls-11" d="M857.46,678.62c.07-15.18,3.15-31.18,3.31-31.91,26.26,4.05,77.19-3.77,77.19-3.77,2.61,5.54,14.79,27.98,17.43,41.24,2.75,13.76,1.11,27.95-5.29,38.61,1.03,32.57,1.38,82.4-2.46,139.71-3,44.72-26.68,21.45-44.52-35.14-10.56-33.49-17.71-65.13-24.36-95.25-3.32-15-21.38-35.1-21.3-53.49Z"/><path class="cls-3" d="M923.38,692.84c8.66-16.75,48.15-83.16,52.67-94.53,1.78-4.48,2.36-8.55,2.62-12.6.47-7.47,3.57-25.55-.43-26.78-6.18-1.9-26.56,25.72-34.71,41.13-7.65,14.47-28.34,79.33-31,89.45l10.85,3.33Z"/><path class="cls-13" d="M948.06,696.99c-4.93-2.68-10.55-2.32-14.91.3-1.16.7-2.59.79-3.79.16-4.59-2.4-9.35-4.63-14.89-6.98-5.36-2.27-9.52-3.83-13.67-5.25-1.28-.44-2.21-1.51-2.53-2.83-1.2-4.91-4.86-9.14-10.2-10.79-6.66-2.05-13.98.88-17.39,6.95-4.45,7.94-.94,17.74,7.2,21.18,4.58,1.94,9.58,1.42,13.54-.95,1.11-.67,2.5-.68,3.66-.09,4.18,2.14,8.38,4.08,13.28,6.16,6.1,2.59,10.82,4.33,15.36,5.83,1.26.42,2.25,1.45,2.55,2.74,1.03,4.54,4.16,8.54,8.77,10.49,8.14,3.45,17.62-.86,20.22-9.58,2-6.7-1.03-14.02-7.18-17.36Z"/><path class="cls-3" d="M917.66,679.21c-7.42,3.53-28.06,21.63-17.85,27.97,11.19,6.95,25.61,13.56,28.82-27.67.04-.49-10.97-.31-10.97-.31Z"/><path class="cls-6" d="M835.09,1026.13s-2.36,1.2-5.1,5.05c-3.33,4.68-9.25,11.86-17.63,14.62-12.74,4.19-12.22,10.77-7.89,12.84,6.57,3.15,11.18,4.88,27.03,1.57l16.44-5.61c3.14-.77,5.38-3.56,5.46-6.8l.38-17.76c0-.29-.22-.54-.51-.55l-18.18-3.37Z"/><path class="cls-6" d="M828.07,1037.27c-.85.1,5.03-17.62,8.09-16.16,3.06,1.46,6.08,6.32,11.51,7.39,4.16.82,12.57,5.1-19.6,8.77Z"/><path class="cls-6" d="M942.76,1046.19s-.87,3.94-15.48,10.06c-13.73,5.75-19.09,8.85-18.52,11.78,1.12,5.79,2.38,7.49,15.97,7.49l32.48-2.52c2.42-.08,4.33-2.08,4.3-4.5-.08-6.36-.79-12.58-2.12-18.66l-16.63-3.64Z"/></svg>