<?xml version="1.0" encoding="UTF-8"?><svg xmlns="http://www.w3.org/2000/svg" viewBox="0 0 1080 1080"><defs><style>.cls-1{fill:#efa37d;}.cls-2{fill:#3c3d35;}.cls-3{fill:#9e8559;}.cls-4{fill:#ccd5e5;}.cls-5{fill:#efe8c5;}.cls-6{fill:#fff;}.cls-7{fill:#fdc8aa;}.cls-8{fill:#e4ecf9;}.cls-9{fill:#f24689;}.cls-10{fill:#686860;}.cls-11{isolation:isolate;}.cls-12{fill:#ef7e3f;}.cls-13{fill:#1f3a6f;}.cls-14{fill:#4c5772;}.cls-15{fill:#e22b2b;}.cls-16{fill:#15315e;}.cls-17{fill:#36588e;}.cls-18{fill:#873d00;mix-blend-mode:multiply;opacity:.2;}</style></defs><g class="cls-11"><g id="Layer_1"><ellipse class="cls-2" cx="494.77" cy="931.72" rx="492.02" ry="34.17"/><rect class="cls-5" x="244.16" y="154.16" width="578.54" height="770.03" rx="66.25" ry="66.25"/><path class="cls-12" d="M784.44,906.19l-534.76,25.42c-11.91.57-22.02-8.63-22.59-20.54l-34.85-733.14c-.57-11.91,8.63-22.02,20.54-22.59l534.76-25.42c11.91-.57,22.02,8.63,22.59,20.54l34.85,733.14c.57,11.91-8.63,22.02-20.54,22.59Z"/><rect class="cls-18" x="231.55" y="232.37" width="486.14" height="628" transform="translate(-7.3 6.43) rotate(-.77)"/><rect class="cls-6" x="210.86" y="215.94" width="486.15" height="633.9" transform="translate(28.9 -23.32) rotate(3.04)"/><path class="cls-10" d="M295.66,371.21c-18.78-.92-33.3-16.94-32.39-35.72.92-18.78,16.94-33.3,35.72-32.39,6.31.31,12.39,2.35,17.58,5.9l-4.43,6.47c-3.99-2.73-8.67-4.3-13.53-4.54-14.45-.71-26.79,10.48-27.5,24.93-.71,14.45,10.48,26.79,24.93,27.5,14.45.71,26.79-10.48,27.5-24.93.14-2.77-.16-5.52-.88-8.16l7.57-2.05c.93,3.44,1.32,7.01,1.14,10.6-.92,18.78-16.94,33.3-35.72,32.39Z"/><polygon class="cls-10" points="297.24 347.4 284.77 333.65 290.58 328.37 297.78 336.31 335.33 302.11 340.6 307.92 297.24 347.4"/><path class="cls-8" d="M504.97,335.53l-135.37-6.62c-4.18-.2-7.4-3.76-7.2-7.94h0c.2-4.18,3.76-7.4,7.94-7.2l135.37,6.62c4.18.2,7.4,3.76,7.2,7.94h0c-.2,4.18-3.76,7.4-7.94,7.2Z"/><path class="cls-8" d="M655.54,381.65l-287.83-14.08c-4.18-.2-7.4-3.76-7.2-7.94h0c.2-4.18,3.76-7.4,7.94-7.2l287.83,14.08c4.18.2,7.4,3.76,7.2,7.94h0c-.2,4.18-3.76,7.4-7.94,7.2Z"/><path class="cls-10" d="M290.3,472.22c-18.78-.92-33.3-16.94-32.39-35.72.92-18.78,16.94-33.3,35.72-32.39,6.31.31,12.39,2.35,17.58,5.9l-4.43,6.47c-3.99-2.73-8.67-4.3-13.53-4.54-14.45-.71-26.79,10.48-27.5,24.93-.71,14.45,10.48,26.79,24.93,27.5,14.45.71,26.79-10.48,27.5-24.93.14-2.77-.16-5.52-.88-8.16l7.57-2.05c.93,3.44,1.32,7.01,1.14,10.6-.92,18.78-16.94,33.3-35.72,32.39Z"/><polygon class="cls-10" points="291.88 448.41 279.41 434.65 285.22 429.38 292.42 437.32 329.96 403.11 335.23 408.93 291.88 448.41"/><path class="cls-8" d="M499.61,436.54l-135.37-6.62c-4.18-.2-7.4-3.76-7.2-7.94h0c.2-4.18,3.76-7.4,7.94-7.2l135.37,6.62c4.18.2,7.4,3.76,7.2,7.94h0c-.2,4.18-3.76,7.4-7.94,7.2Z"/><path class="cls-8" d="M650.18,482.66l-287.83-14.08c-4.18-.2-7.4-3.76-7.2-7.94h0c.2-4.18,3.76-7.4,7.94-7.2l287.83,14.08c4.18.2,7.4,3.76,7.2,7.94h0c-.2,4.18-3.76,7.4-7.94,7.2Z"/><path class="cls-10" d="M284.93,573.23c-18.78-.92-33.3-16.94-32.39-35.72.92-18.78,16.94-33.3,35.72-32.39,6.31.31,12.39,2.35,17.58,5.9l-4.43,6.47c-3.99-2.73-8.67-4.3-13.53-4.54-14.45-.71-26.79,10.48-27.5,24.93-.71,14.45,10.48,26.79,24.93,27.5,14.45.71,26.79-10.48,27.5-24.93.14-2.77-.16-5.52-.88-8.16l7.57-2.05c.93,3.44,1.32,7.01,1.14,10.6-.92,18.78-16.94,33.3-35.72,32.39Z"/><polygon class="cls-10" points="286.51 549.41 274.04 535.66 279.86 530.39 287.05 538.33 324.6 504.12 329.87 509.94 286.51 549.41"/><path class="cls-8" d="M494.25,537.54l-135.37-6.62c-4.18-.2-7.4-3.76-7.2-7.94h0c.2-4.18,3.76-7.4,7.94-7.2l135.37,6.62c4.18.2,7.4,3.76,7.2,7.94h0c-.2,4.18-3.76,7.4-7.94,7.2Z"/><path class="cls-8" d="M644.81,583.66l-287.83-14.08c-4.18-.2-7.4-3.76-7.2-7.94h0c.2-4.18,3.76-7.4,7.94-7.2l287.83,14.08c4.18.2,7.4,3.76,7.2,7.94h0c-.2,4.18-3.76,7.4-7.94,7.2Z"/><path class="cls-10" d="M279.57,674.23c-18.78-.92-33.3-16.94-32.39-35.72.92-18.78,16.94-33.3,35.72-32.39,6.31.31,12.39,2.35,17.58,5.9l-4.43,6.47c-3.99-2.73-8.67-4.3-13.53-4.54-14.45-.71-26.79,10.48-27.5,24.93-.71,14.45,10.48,26.79,24.93,27.5,14.45.71,26.79-10.48,27.5-24.93.14-2.77-.16-5.52-.88-8.16l7.57-2.05c.93,3.44,1.32,7.01,1.14,10.6-.92,18.78-16.94,33.3-35.72,32.39Z"/><polygon class="cls-10" points="281.15 650.42 268.68 636.67 274.49 631.4 281.69 639.34 319.23 605.13 324.51 610.94 281.15 650.42"/><path class="cls-8" d="M488.88,638.55l-135.37-6.62c-4.18-.2-7.4-3.76-7.2-7.94h0c.2-4.18,3.76-7.4,7.94-7.2l135.37,6.62c4.18.2,7.4,3.76,7.2,7.94h0c-.2,4.18-3.76,7.4-7.94,7.2Z"/><path class="cls-8" d="M639.45,684.67l-287.83-14.08c-4.18-.2-7.4-3.76-7.2-7.94h0c.2-4.18,3.76-7.4,7.94-7.2l287.83,14.08c4.18.2,7.4,3.76,7.2,7.94h0c-.2,4.18-3.76,7.4-7.94,7.2Z"/><path class="cls-10" d="M274.21,775.24c-18.78-.92-33.3-16.94-32.39-35.72.92-18.78,16.94-33.3,35.72-32.39,6.31.31,12.39,2.35,17.58,5.9l-4.43,6.47c-3.99-2.73-8.67-4.3-13.53-4.54-14.45-.71-26.79,10.48-27.5,24.93-.71,14.45,10.48,26.79,24.93,27.5,14.45.71,26.79-10.48,27.5-24.93.14-2.77-.16-5.52-.88-8.16l7.57-2.05c.93,3.44,1.32,7.01,1.14,10.6-.92,18.78-16.94,33.3-35.72,32.39Z"/><path class="cls-8" d="M483.52,739.56l-135.37-6.62c-4.18-.2-7.4-3.76-7.2-7.94h0c.2-4.18,3.76-7.4,7.94-7.2l135.37,6.62c4.18.2,7.4,3.76,7.2,7.94h0c-.2,4.18-3.76,7.4-7.94,7.2Z"/><path class="cls-8" d="M634.09,785.68l-287.83-14.08c-4.18-.2-7.4-3.76-7.2-7.94h0c.2-4.18,3.76-7.4,7.94-7.2l287.83,14.08c4.18.2,7.4,3.76,7.2,7.94h0c-.2,4.18-3.76,7.4-7.94,7.2Z"/><path class="cls-18" d="M560.55,185.76c-2.88-31.08-28.63-55.77-60.6-56.57-31.97-.8-58.92,22.58-63.35,53.47l-64.48-1.61-2.32,93.17,252.9,6.31,2.32-93.17-64.48-1.61Z"/><path class="cls-13" d="M546.59,172.66c-1.9-31.15-26.86-56.65-58.78-58.45-31.93-1.81-59.6,20.71-65,51.45l-64.4-3.64-5.27,93.05,252.58,14.29,5.27-93.05-64.4-3.64Z"/><path class="cls-18" d="M1067.45,821.01c-1.84-18.13-13.7-40.43-17.52-46.08-3.83-5.65-10-36.48-15.75-37.76-1.72-.38-4.76.51-8.25,2-8.17,3.49-18.74,10.22-20.23,11.34-.72.54-.9,1.35-.84,2.18-1.82.72-3.75,1.41-5.48,1.87-.11.03-.24.05-.4.08h0s0,0,0,0c-8.01,1.16-84.84-2.21-93.39-1.89-8.73.32-16.89,4.05-24.79,5.44-7.9,1.38-15.13-14.51-17.13-18.56-1.21-2.45-3.02-11.62-4.27-18.5-.39-2.17-.72-4.1-.97-5.53,1.76-1.86-3.22-14.62-7.89-29.1-3.78-11.73-5.8-23.46-6.58-28.71.17-.76.31-1.44.42-2.03.22-.21.36-.45.41-.72.92-4.96.11-31.68-15.19-61.77-2.72-5.35-5.19-11.69-7.38-18.54-1.09-3.39-2.12-6.9-3.08-10.48,12.84-3.1,24.7-7.77,31.81-10.67,10.47-4.27,2.77-23.57,2.52-24.21-.2-.51-16.24-23.47-22.89-32.97-1.09-1.55-1.92-2.74-2.39-3.42.1-.05.19-.1.23-.13,1.53-.96-16.17-23.66-19.7-31.18-2.6-5.56-8.47-11.51-11.36-14.25-.84-1.29-1.74-2.3-2.69-2.98-9.28-6.56-30.35-16.89-33.4-20.48-1.93-2.27-3.77-5.13-5.79-5.63-1.29-3.73-3.18-10.79-3.33-20.44.23-.11.37-.31.4-.62.37-3.68,5.93-10.75,8.05-30.11,2.12-19.36-8.92-34.72-30.43-37.92-21.51-3.2-39.97,4.96-39.97,4.96-11.53,6.23-4.29,20.94-4.05,20.75,0,0,0,0,0,0,0,0-1.06,14.93-.46,18.77.6,3.84-1.09,11.36-2.49,14.08-1.4,2.72,6.81,9.04,7.29,11.2.48,2.16.54,19.6,5.63,20.32,3.1.44,7.34-.58,11.29.3,2.54.56,4.94,1.9,6.86,4.9,1.63,2.57,3.04,4.51,4.18,6.16,2.28,3.28,3.54,5.45,3.49,9.27-.02,2.05-.3,3.93-.72,5.59-.07.03-.15.11-.26.24-1.95,2.45-4.56,5.94-5.92,7.55-.6.71-1.88,2.59-3.34,5.27l5.48-4.59s0,0,0,0l-5.48,4.58c-3.7,6.8-8.56,18.79-6.48,30.15,2.84,15.49,12.27,39.54,14.65,51.22-1.36.23-2.5.51-3.36.79-2.78.89-3.24,2.5-2.93,3.72-3.72-1.02-7.6-2.13-10.97-3.18-5.25-1.64-9.28-3.12-9.55-3.92-.81-2.38-1.53-19.66-14.71-25,0,0-1.11-.23-2.13.1-.81.26-1.56.88-1.65,2.25-.2,3.09,3.07,5.55,2.35,5.87-.17.08-1,.12-2.17.25-3.77.41-11.16,1.68-12.2,7.53-1.16,6.53-1.12,21.07,6.21,25.68,1.29.82,2.82,1.32,4.6,1.42,2.33.13,4.4.22,6.28.32,7.69.44,12.16,1.09,18.55,5.12.74.47,1.58.98,2.5,1.52,2.05,1.2,4.48,2.53,7.14,3.82,3.61,1.76,7.63,3.44,11.65,4.66-.62,1.23-.66,2.85.6,4.25,1.74,1.92,4.83.43,5.65,0,.82-.43,2.69.27,1.17,1.39-1.52,1.12-1.97,2.29-1.48,3.89.06.19.13.35.22.5.66,1.12,2.03,1.18,2.03,1.18,1.71.4,3.8.39,6.06.12,1.06.48,2.24.76,3.55.88.6,1.43,1.16,2.83,1.69,4.18-.81,2.62-1.04,6.15,2.74,7.59,0,0,0,.01,0,.02.79,2.5,1.29,4.61,1.41,6.18.15,2.07.32,4.03.5,5.92h0c.36,3.71.8,7.1,1.35,10.37-1.09,2.4-2.78,7.6,1.97,9.46.17.71.36,1.42.55,2.14.95,3.56,1.63,7,2.04,10,.6,4.39.63,7.87.12,9.52-.57,1.83-1.53,3.48.04,3.98-5.02,9.06-13.26,48.17-14.75,52.24-.5,1.37-.57,2.49.44,3.5-.63,1.45-1.45,3.35-2.39,5.53-5.64,13.1-15.78,36.71-16.63,39.35-1.17,3.68,1.71,39.04.77,43.84-.93,4.8-4.35,80.6-4.94,90.2-.2,3.19-1.53,6.65-3.22,9.84-.21.4-.43.8-.66,1.19-.03.06-.07.12-.1.17-.19.34-.39.67-.59,1-.05.08-.1.16-.15.25-.19.3-.37.6-.56.9-.06.09-.11.18-.17.27-.18.28-.37.56-.55.84-.06.09-.12.18-.18.27-.18.26-.36.52-.53.78-.07.09-.13.19-.2.28-.16.23-.32.45-.48.67-.09.12-.17.24-.26.35-.12.16-.23.32-.35.47-.88,1.18-1.67,2.17-2.28,2.9-.44-.22-.78-.25-.96-.04-1.48,1.68-15.63,16.24-28.62,16.81-11.38.49-29.33.1-33.62,6.21-.61.88-.95,1.88-.94,3.04.03,9.28,42.64,23.15,59.1,23.58,16.46.42,44.86-.75,46.47-2.03,1.62-1.28,3.98-2.45,3.49-7.89-.25-2.64-1.27-5.97-2.37-9.7-1.16-3.94-2.4-8.31-2.89-12.81-.67-6.18-2.36-7.99-3.95-8.15.01-1.93.05-4.07.13-6.27,0,0,0,0,0,0,.2-4.99.63-10.3,1.53-14.17,2.28-9.7,19.28-78.51,19.17-85.77-.1-7.25-4.15-36.7,7.2-50.78,4.49-5.56,10.94-13.32,17.12-20.67,3.83-4.57,7.56-8.98,10.63-12.61,1.7,2.94,3.61,5.83,4.75,7.6,2.52,3.92,4.38.8,4.38.8.12-.17.25-.34.39-.51,1.64,3.17,5.45,8.64,10.35,15.12,13.63,18.03,35.59,43.83,41.95,49.32,9.45,8.16,51.56-3.2,61.52-2.72,9.96.48,68.82-12.32,77.87-11.15,1.36.18,2.84.45,4.36.79,4.37.97,9.15,2.45,12.8,3.68-.83,1.39-1.42,2.25-1.42,2.25-1.48,3.1,9.07,5.87,12.79,7.15,3.72,1.28,26.41,25.92,28.85,30.19,2.45,4.26,8.38,12.58,12.32,12.48,1-.03,1.81-.17,2.44-.65,1.84-1.43,2.07-5.88.69-19.41ZM817.01,529.89c-1.44,1.22-3,2.36-4.65,3.43-.67-3.79-1.27-7.44-1.79-10.89,9.18,7.46,6.45,7.46,6.45,7.46Z"/><path class="cls-7" d="M818.22,732.16c-.19,1.88,3.96,8.81,9.95,17.57,12.32,18.03,32.42,43.83,38.38,49.32,8.86,8.16,51.79-3.2,61.72-2.72,9.92.48,69.72-12.32,78.68-11.15,1.35.18,2.8.45,4.31.79,8.48,1.91,18.41,5.83,18.41,5.83,0,0,.84-1.23,1.93-2.85,2.03-3.02,4.97-7.41,5.11-7.82.21-.64,1.7-17.28,1.7-17.28l-4.41-5.05-7.43-8.5s-7.36,3.52-12.69,4.91c-.11.03-.24.05-.41.08-8.09,1.16-84.68-2.21-93.25-1.89-8.75.32-17.18,4.05-25.18,5.44-8,1.38-14.08-14.51-15.78-18.56-1.03-2.45-2.18-11.62-2.93-18.5-.49-4.53-.81-8.06-.81-8.06,0,0-2.83.63-7.23,1.68-10.58,2.52-30.26,7.44-41.53,11.71-5.02,1.91-8.38,3.68-8.53,5.06Z"/><path class="cls-1" d="M818.22,732.16c-.19,1.88,3.96,8.81,9.95,17.57l48.15-27.96c-.49-4.53-.81-8.06-.81-8.06,0,0-2.83.63-7.23,1.68-10.58,2.52-30.26,7.44-41.53,11.71-5.02,1.91-8.38,3.68-8.53,5.06Z"/><path class="cls-16" d="M865.27,655.56s.75,15.79,4.69,31.58c3.95,15.79,8.43,29.55,5.12,29.34-3.31-.21-48.27,7.92-56.59,18.64,0,0-2.08,3.12-4.32-.8-2.24-3.92-7.84-13.28-7.12-16.72.72-3.44,58.22-62.03,58.22-62.03Z"/><path class="cls-7" d="M704.07,909.35s2.35,15.36,8.75,17.28c4.62,1.39,15.58,1.77,22.12.6,2.52-.45,4.38-1.14,4.97-2.09,0,0,.23-6.85,1.07-14.42.56-4.99,1.38-10.31,2.56-14.17,2.98-9.7,24.96-78.51,25.39-85.77.43-7.25-1.49-36.7,10.88-50.78,4.89-5.56,11.91-13.32,18.61-20.67,10.27-11.26,19.79-21.57,19.79-21.57l-12.63-2.39-41.6-7.87h-.05s-3.07-.6-3.07-.6l-6.07-1.15s-1.78,3.52-4.37,8.65c-6.59,13.1-18.44,36.71-19.48,39.35-1.44,3.68-1.12,39.04-2.4,43.84-1.28,4.8-10.19,80.6-11.47,90.2-.43,3.19-2.01,6.65-3.94,9.84-2.02,3.35-4.42,6.4-6.23,8.55-1.66,1.95-2.84,3.16-2.84,3.16Z"/><path class="cls-1" d="M750.43,714.41c2.41,2.72,7.25,6.04,16.54,6.41,9.02.36,21.93,10.09,31.45,18.5,10.27-11.26,19.79-21.57,19.79-21.57l-12.63-2.39-41.6-7.87h-.05s-3.07-.6-3.07-.6l-6.07-1.15s-1.78,3.52-4.37,8.65Z"/><path class="cls-13" d="M866.55,654.2c0,.53-3.41,13.84-7.79,20.56-4.37,6.72-30.83,51.74-30.83,53.77s-18.67-9.92-46.4-13.44c-27.74-3.52-30.4-5.33-28.48-9.71,1.92-4.37,14.61-49.39,19.74-53.77,5.12-4.37,93.77,2.59,93.77,2.59Z"/><path class="cls-7" d="M697.76,554.72c1.24.82,2.72,1.32,4.5,1.42,2.32.13,4.38.22,6.25.32,7.66.44,12.08,1.09,18.18,5.12.71.47,1.51.98,2.39,1.52,1.96,1.2,4.3,2.53,6.86,3.82,8.46,4.26,19.34,8.13,27.13,5.75,9.42-2.87-.55-17.59-3.96-22.19-.65-.87-1.06-1.38-1.06-1.38,0,0-15.21-3.87-25.52-7.14-5.13-1.64-9.05-3.12-9.26-3.92-.64-2.38-.1-19.66-12.9-25,0,0-1.09-.23-2.14.1-.83.26-1.63.88-1.81,2.25-.43,3.09,2.67,5.55,1.92,5.87-.18.08-1,.12-2.19.25-3.8.41-11.28,1.68-12.74,7.53-1.63,6.53-2.65,21.07,4.35,25.68Z"/><path class="cls-1" d="M732.54,541.96l3.41,24.96c8.46,4.26,19.34,8.13,27.13,5.75,11.2-3.41-5.01-23.57-5.01-23.57,0,0-15.21-3.87-25.52-7.14Z"/><path class="cls-1" d="M708.52,556.46c7.66.44,12.08,1.09,18.18,5.12.71.47,1.51.98,2.39,1.52-2.32-3.1-6.05-7.47-8.83-8.69-4.37-1.92-6.82-12.16-5.86-15.36.96-3.2-2.88-6.4-4.27-4.26-1.39,2.13,2.13,4.26.96,5.97-1.17,1.71-.96,3.52-.64,4.27.32.74,1.17,2.45,0,3.52-1.17,1.06,1.28,2.66.43,4.26-.56,1.04-.88,2.57-2.35,3.65Z"/><path class="cls-7" d="M730.71,399.64c.32,2.16-.88,19.6,4.16,20.32,3.07.44,7.38-.58,11.27.3,2.5.56,4.81,1.9,6.5,4.9,1.45,2.57,2.71,4.51,3.74,6.16,2.04,3.28,3.14,5.45,2.82,9.27-.47,5.76-2.88,10.24-4.63,11.92-1.77,1.68-2.16,6.16,2.96,4.72,5.12-1.44,34.08-22.48,35.28-26.88,1.2-4.4,2.64-8.08,2.48-8.4-.16-.32-4.88-11.92-2.08-30.81,2.8-18.88-31.13-50.41-46.49-47.53-15.36,2.88-17.15,11.95-17.15,11.95,0,0-2.14,14.93-1.82,18.77.33,3.84-1.91,11.36-3.51,14.08s6.16,9.04,6.48,11.2Z"/><path class="cls-7" d="M730.71,399.64c.32,2.16-.88,19.6,4.16,20.32,3.07.44,7.38-.58,11.27.3,2.5.56,4.81,1.9,6.5,4.9,1.45,2.57,2.71,4.51,3.74,6.16,2.04,3.28,3.14,5.45,2.82,9.27-.47,5.76-2.88,10.24-4.63,11.92-1.77,1.68-2.16,6.16,2.96,4.72,5.12-1.44,34.08-22.48,35.28-26.88,1.2-4.4,2.64-8.08,2.48-8.4-.16-.32-4.88-11.92-2.08-30.81,2.8-18.88-31.13-50.41-46.49-47.53-15.36,2.88-17.15,11.95-17.15,11.95,0,0-2.14,14.93-1.82,18.77.33,3.84-1.91,11.36-3.51,14.08s6.16,9.04,6.48,11.2Z"/><path class="cls-9" d="M738.96,489.41c1.76,15.84,9.76,40.64,11.04,52.01.68,6.07,5.98,19.73,10.77,32.82,1.19,3.26,2.35,6.48,3.4,9.54,1.5,4.38,2.78,8.44,3.59,11.79.61,2.5.96,4.61.96,6.18,0,2.07.03,4.03.07,5.92h0c.19,7.31.75,13.42,1.86,19.71.13.75.27,1.5.42,2.27.69,3.56,1.13,7,1.32,10,.28,4.39.06,7.87-.57,9.52-1.07,2.77-2.99,5.12,4.58,3.73,7.58-1.38,30.4-1.15,44.8.41,14.4,1.57,44,7.33,45.28,2.37,1.28-4.96,2.4-31.68-10.72-61.77-2.34-5.35-4.34-11.69-6.04-18.54-1.55-6.21-2.86-12.83-3.95-19.5-.58-3.52-1.1-7.05-1.56-10.54-2.07-15.5-3.05-30.19-3.35-39.37-.03-.97-.06-1.89-.08-2.73-.06-3.29-.03-5.55.1-6.45.51-3.65.18-20.79-2.37-34.53-1.06-5.72-2.51-10.86-4.44-14.18-.75-1.29-1.57-2.3-2.47-2.98-8.8-6.56-29.12-16.89-31.92-20.48-2.8-3.6-5.28-8.72-9.36-3.44,0,0-.26.49-.85,1.41-2.1,3.24-8.4,11.82-22.83,23.63-6.65,5.45-9.36,6.68-10.1,6.02l-8.92,7.03c-4.19,6.8-9.92,18.79-8.66,30.15Z"/><path class="cls-1" d="M746.14,420.26c2.5.56,4.81,1.9,6.5,4.9,1.45,2.57,2.71,4.51,3.74,6.16,19.84-15.71,20.18-37.44,11.7-23.8-5.52,8.88-15.32,11.82-21.94,12.73Z"/><path class="cls-13" d="M729.57,355.58c-.23.24-6.45-14.51,5.55-20.75,0,0,19.04-8.16,40.32-4.96,21.28,3.2,31.2,18.56,27.68,37.92-3.52,19.36-9.59,26.43-10.23,30.11-.64,3.68-15.43-7.66-13.19-11.18,2.24-3.52,5.01-9.28,1.49-12.27-3.52-2.99-9.81-1.07-12.91,2.77s-7.89,2.35-8.11-.21,4.59-21.76-.21-22.94c-4.8-1.17-20.91-8.43-30.4,1.49Z"/><path class="cls-9" d="M751.33,453.99c1.47-1.61,4.34-5.1,6.46-7.55.75-.87.4.59.1,1.23-1.12,1.69-2.46,3.57-1.36,4.56l-8.92,7.04c1.65-2.68,3.07-4.56,3.72-5.27Z"/><path class="cls-9" d="M770.11,616.79s-5.68,8.48.8,10.8c6.48,2.32-.8-10.8-.8-10.8Z"/><path class="cls-15" d="M770.65,627.37c.13.75.27,1.5.42,2.27.69,3.56,1.13,7,1.32,10,24.82,4.27,42.28-9.36,27.16-8.26-14.79,1.08-25.78-2.76-28.9-4.01Z"/><path class="cls-9" d="M767.14,584.82s-5.68,8.48.8,10.8c6.48,2.32-.8-10.8-.8-10.8Z"/><path class="cls-15" d="M767.76,595.57c.61,2.5.96,4.61.96,6.18,0,2.07.03,4.03.07,5.92h0c19.71,4.28,33.59-9.36,21.58-8.26-11.28,1.03-19.76-2.46-22.61-3.84Z"/><path class="cls-15" d="M757.16,579.59c1.54,2.68,3.89,3.92,7.01,4.19,10.73.96,30.44-9.39,56.36-10.38,14.59-.56,23.64.55,29.2,1.97-1.55-6.21-2.86-12.83-3.95-19.5-20.36,2.8-70.59,10.33-85.01,18.37-3.19,1.77-4.63,3.57-3.61,5.34Z"/><path class="cls-15" d="M799.3,489.44c.32.96.32,12.04,18.14,24.21,17.81,12.17,9.81,35.22,9.81,35.22l16.97-3.53c-2.07-15.5-3.05-30.19-3.35-39.37-6.71-3.58-15.34-8.22-15.53-8.41-.32-.32-26.03-8.11-26.03-8.11Z"/><path class="cls-7" d="M741.68,559.29c.43.96,1.87,1.49,2.42,1.17.56-.32,3.07,1.07,1.26,2.24-1.81,1.17-1.23,3.47-.91,4.37.32.91,2.4,1.76,3.1,1.55.69-.21,2.08.59.69,1.76-1.39,1.17-2.29,3.52-.69,5.44,1.6,1.92,4.8.43,5.65,0,.85-.43,2.67.27,1.07,1.39s-2.14,2.29-1.76,3.89c.04.19.11.35.19.5.58,1.12,1.95,1.18,1.95,1.18,7.76,1.84,24.43-4.99,26.35-6.27.44-.29,2.16-.83,4.79-1.51,5.81-1.49,16.03-3.65,26.54-5.24,5.62-.85,11.32-1.54,16.46-1.89,19.1-1.28,40.43-9.38,51.21-13.65,10.78-4.27,4.48-23.57,4.27-24.21-.17-.51-14.54-23.47-20.5-32.97-1.56-2.49-2.54-4.05-2.54-4.05l-8.66,2.59-21.67,6.48-8.19,2.45s1.4,4,13.78,14.13c.41.33.83.67,1.26,1.02,13.55,10.88,10.03,10.88,10.03,10.88-10.2,8.15-25.37,12.69-38.7,15.27-4.21.81-8.24,1.43-11.88,1.91-6.81.89-12.23,1.27-14.83,1.49-.76.06-1.28.12-1.53.16-2.99.53-9.02-4.8-16.16-7.52-7.15-2.72-14.8-1.48-18.19-.43-3.39,1.06-3.57,3.15-2.99,4.37.59,1.23,6.83,1.55,8.64,1.66,1.82.1,2.19,1.28,1.39,1.92-.8.64-7.2,3.2-10.19,4.96-2.98,1.76-2.08,4-1.65,4.96Z"/><path class="cls-13" d="M785.79,575c5.81-1.49,16.03-3.65,26.54-5.24-.2-5.68-.92-18.11-3.25-23.96-12.12,2.35-22.72,3.07-26.71,3.41,1.04,3.45,4.26,14.7,3.42,25.79Z"/><path class="cls-1" d="M822.7,504.51s1.4,4,13.78,14.13l27.27-21.6c-1.56-2.49-2.54-4.05-2.54-4.05l-8.66,2.59-21.67,6.48-8.19,2.45Z"/><path class="cls-9" d="M799.12,492.67c.11,4.27,18.24,12.37,22.08,17.49,3.84,5.12,4.91,3.1,4.91,3.1.7-2.43,7.32-6.33,14.67-10.03,4.55-2.28,9.37-4.49,13.26-6.23,4.22-1.89,7.34-3.22,7.8-3.5,1.6-.96-14.45-23.66-17.44-31.18-2.2-5.56-7.64-11.51-10.33-14.25-.95-.97-1.56-1.54-1.56-1.54-4.92-.67-9.17-.75-12.85-.35-31.7,3.46-20.64,42.65-20.55,46.48Z"/><path class="cls-15" d="M789.47,422.58c2.35,1.72,5.86,4.93,5.82,8.76-.03,2.64,11.49,6.49,24.37,14.85,6.36,4.12,13.04,9.34,18.85,16.06,7.57,8.75,13.65,20.04,15.53,34.75,4.22-1.89,7.34-3.22,7.8-3.5,1.6-.96-14.45-23.66-17.44-31.18-2.2-5.56-7.64-11.51-10.33-14.25-.75-1.29-1.57-2.3-2.47-2.98-8.8-6.56-29.12-16.89-31.92-20.48-2.8-3.6-5.28-8.72-9.36-3.44,0,0-.26.49-.85,1.41Z"/><path class="cls-6" d="M1011.24,785.96c8.48,1.91,18.41,5.83,18.41,5.83,0,0,6.82-10.03,7.04-10.67.21-.64,1.7-17.28,1.7-17.28l-11.84-13.55s-7.36,3.52-12.69,4.91c-.11.03-.24.05-.41.08l-2.21,30.68Z"/><path class="cls-6" d="M704.07,909.35s2.35,15.36,8.75,17.28c6.4,1.92,24.96,1.92,27.09-1.49,0,0,.23-6.85,1.07-14.42-2.82-.1-10.64-.72-15.9-4.25-3.92-2.64-8.73-6.32-11.94-8.83-3.85,6.39-9.08,11.71-9.08,11.71Z"/><path class="cls-13" d="M639.32,933.99c-.64,9.28,40.96,23.15,57.39,23.58,16.43.42,44.91-.75,46.62-2.03,1.71-1.28,4.16-2.45,4.06-7.89-.06-2.64-.84-5.97-1.66-9.7-.88-3.94-1.8-8.31-1.97-12.81-.32-8.75-3.31-8.75-5.23-7.68-1.77.99-9.23,9.34-20.21,3.89-1.65-.81-3.06-2.02-4.15-3.49-2.68-3.62-8.56-11.21-9.78-9.92-1.6,1.68-16.8,16.24-29.84,16.81-11.41.49-29.34.1-34.07,6.21-.68.88-1.08,1.88-1.16,3.04Z"/><path class="cls-16" d="M639.32,933.99c-.64,9.28,40.96,23.15,57.39,23.58,16.43.42,44.91-.75,46.62-2.03,1.71-1.28,4.16-2.45,4.06-7.89-.06-2.64-.84-5.97-1.66-9.7-4.91,9.45-30.59,8.7-48.85,9.19-21.12.56-29.76-2.56-45.28-7.04-9.27-2.68-11.12-6.5-11.11-9.15-.68.88-1.08,1.88-1.16,3.04Z"/><path class="cls-13" d="M1029.98,771.63c2.77,6.29-7.79,20.26-7.79,20.26-1.71,3.1,8.64,5.87,12.27,7.15,3.62,1.28,24.53,25.92,26.67,30.19,2.14,4.26,7.47,12.58,11.42,12.48,1-.03,1.82-.17,2.49-.65,1.94-1.43,2.5-5.88,2.09-19.41-.53-18.13-10.77-40.43-14.18-46.08-3.42-5.65-7.36-36.48-13.02-37.76-1.69-.38-4.8.51-8.39,2-8.42,3.49-19.48,10.22-21.05,11.34-2.24,1.6,0,5.54,0,5.54,0,0,6.72,8.64,9.5,14.94Z"/><path class="cls-16" d="M1041.53,739.81c1.11,8.44,4.28,28.23,10.26,39.08,7.68,13.92,17.6,39.2,18.72,46.89.62,4.25,2.41,10.81,4.52,15.3,1.94-1.43,2.5-5.88,2.09-19.41-.53-18.13-10.77-40.43-14.18-46.08-3.42-5.65-7.36-36.48-13.02-37.76-1.69-.38-4.8.51-8.39,2Z"/><path class="cls-18" d="M365.21,888.11h-.3c3.46-16.83-2.81-29.96-15.3-31.3-4.35-8.52-11.99-13.18-21.7-13.18-.58,0-1.16.02-1.74.05h-14.71c-.51-.03-1.01-.05-1.53-.05-13.13,0-27.49,8.73-38.54,21.98-2.67-13.25-11.52-21.98-24.65-21.98-.57,0-1.14.02-1.71.05h-14.73c-.51-.03-1.01-.05-1.53-.05-9.92,0-20.54,4.98-29.9,13.13-14.89,1.07-31.52,17.12-37.73,36.76-6.21,19.64.28,35.7,14.49,36.76,4.22,8.15,11.69,13.13,21.6,13.13h17.9s.05,0,.07,0c13.13,0,27.49-8.73,38.54-21.98,2.67,13.25,11.52,21.98,24.65,21.98h17.92s.03,0,.05,0c9.71,0,20.3-4.66,30.03-13.18,13.33-1.34,27.9-14.46,35.08-31.3h.3c2.24,0,4.82-2.43,5.77-5.41.94-2.99-.11-5.41-2.35-5.41Z"/><ellipse class="cls-3" cx="171.59" cy="888.62" rx="27.66" ry="40.14"/><path class="cls-17" d="M233.93,888.62c0-20.72-8.17-38.77-20.16-47.95v-6.38h-16.43c-.51-.03-1.03-.06-1.55-.06-21.03,0-38.14,24.39-38.14,54.38s17.11,54.38,38.14,54.38h17.97v-6.43c11.99-9.18,20.16-27.22,20.16-47.95Z"/><path class="cls-9" d="M213.77,834.24c-21.03,0-38.14,24.4-38.14,54.38s17.11,54.38,38.14,54.38,38.14-24.4,38.14-54.38-17.11-54.38-38.14-54.38Z"/><path class="cls-15" d="M247.8,905.77c-.99,4.18-1.01,9.16-2.67,12.78l-33.21-24.96,7.07-9.43,28.81,21.6Z"/><path class="cls-6" d="M259.15,882.73h-44.6c-2.24,0-4.07,2.64-4.07,5.9s1.83,5.9,4.07,5.9c.02,0,.04,0,.05,0h44.54v-11.79Z"/><path class="cls-17" d="M315.1,888.62c0-20.72-8.17-38.77-20.16-47.95v-6.38h-16.43c-.51-.03-1.03-.06-1.55-.06-21.03,0-38.14,24.39-38.14,54.38s17.11,54.38,38.14,54.38h17.97v-6.43c11.99-9.18,20.16-27.22,20.16-47.95Z"/><ellipse class="cls-9" cx="294.94" cy="888.62" rx="36.02" ry="52.26"/><path class="cls-9" d="M294.94,943.01c-10.34,0-20-5.76-27.21-16.22-7.04-10.22-10.92-23.77-10.92-38.16s3.88-27.94,10.92-38.16c7.21-10.46,16.87-16.22,27.21-16.22s20,5.76,27.21,16.22c7.04,10.22,10.92,23.77,10.92,38.16s-3.88,27.94-10.92,38.16c-7.21,10.46-16.87,16.22-27.21,16.22ZM294.94,838.48c-18.69,0-33.9,22.49-33.9,50.14s15.21,50.14,33.9,50.14,33.9-22.49,33.9-50.14-15.21-50.14-33.9-50.14Z"/><rect class="cls-14" x="301.94" y="848.49" width="17.52" height="80.27"/><ellipse class="cls-17" cx="302.57" cy="888.62" rx="27.66" ry="40.14"/><ellipse class="cls-3" cx="318.63" cy="888.62" rx="27.66" ry="40.14"/><path class="cls-6" d="M350.36,888.62c0,3.25-1.82,5.9-4.06,5.9h-26.83v-11.8h26.83c2.24,0,4.06,2.64,4.06,5.9Z"/><ellipse class="cls-6" cx="319.46" cy="888.62" rx="4.06" ry="5.89"/><path class="cls-4" d="M350.36,888.62c0,3.25-1.82,5.9-4.06,5.9s-4.07-2.64-4.07-5.9,1.83-5.9,4.07-5.9,4.06,2.64,4.06,5.9Z"/></g></g></svg>