<?xml version="1.0" encoding="UTF-8"?><svg id="Layer_1" xmlns="http://www.w3.org/2000/svg" viewBox="0 0 958.89 958.89"><defs><style>.cls-1{fill:#10332f;stroke:#000;stroke-miterlimit:10;stroke-width:.5px;}</style></defs><g id="layer1"><path id="path36612" class="cls-1" d="M495.36.25c-26.27,0-47.86,21.59-47.86,47.86v255.51c0,26.27,21.59,48.01,47.86,48.01h15.91v79.8c-.05,8.82,7.07,16.01,15.89,16.06,3.87.02,7.61-1.36,10.53-3.89l107.29-91.97h265.65c26.27,0,48.01-21.74,48.01-48.01V48.11c0-26.27-21.74-47.86-48.01-47.86h-415.27ZM48.11,32.07C21.84,32.07.25,53.81.25,80.08v511.14c0,26.27,21.59,47.86,47.86,47.86h798.63c26.27,0,47.98-21.59,47.98-47.86v-207.65h-63.89v175.71c-.04,8.82-7.21,15.94-16.04,15.91H80.08c-8.82.05-16.02-7.06-16.07-15.88,0,0,0-.02,0-.03V112.03c-.03-8.82,7.09-16,15.91-16.04h335.62v-47.89c0-5.65,1.17-10.99,2.99-16.04H48.11ZM639.71,80.08c2.74.06,5.46.84,7.86,2.34l127.82,79.96c10.03,6.25,10.03,20.86,0,27.11l-127.82,79.83c-10.64,6.6-24.39-1.05-24.4-13.57V96c0-10.33,8.32-16.17,16.53-15.91ZM287.71,159.92c-52.82,0-95.87,43.05-95.87,95.87v47.86c-.05,8.88,7.15,16.1,16.04,16.07v15.91c0,28.25,12.38,53.63,31.92,71.19v40.71h-16c-52.81,0-95.85,42.88-95.87,95.68h351.5c-.02-52.8-43.03-95.68-95.84-95.68h-16v-40.68c19.53-17.57,31.92-42.96,31.92-71.22v-15.91c8.88.03,16.09-7.19,16.04-16.07v-47.86c0-52.82-43.05-95.87-95.87-95.87h-31.95ZM349.26,292.01l18.25,18.22v25.4c0,35.67-28.1,63.89-63.77,63.89s-63.92-28.22-63.92-63.89v-15.91h15.91c40.78,0,82.91-20.87,93.53-27.7h0ZM271.73,425.85c10.03,3.57,20.78,5.61,32.01,5.61s21.89-2.03,31.88-5.58v34.66s-4.88,18.88-31.95,18.88-31.95-18.88-31.95-18.88v-34.69ZM144.1,671.03c-43.97,0-79.96,35.87-79.96,79.83v16.04c0,6.76,1.08,13.22,2.68,19.5,9.43-2.25,19.21-3.56,29.29-3.56h95.84c10.11,0,19.89,1.27,29.26,3.56,1.59-6.27,2.68-12.74,2.68-19.5v-16.04c0-43.97-35.83-79.83-79.8-79.83ZM479.32,671.03c-43.97,0-79.93,35.87-79.93,79.83v16.04c0,6.77,1.11,13.24,2.71,19.53,9.4-2.31,19.21-3.59,29.36-3.59h95.87c10.07,0,19.81,1.26,29.14,3.53,1.59-6.26,2.68-12.72,2.68-19.47v-16.04c0-43.97-35.87-79.83-79.84-79.83h0ZM814.79,671.03c-43.97,0-79.84,35.87-79.84,79.83v16.04c0,6.76,1.09,13.22,2.68,19.5,9.41-2.31,19.23-3.56,29.39-3.56h95.87c10.03,0,19.76,1.3,29.14,3.53,1.59-6.26,2.68-12.72,2.68-19.47v-16.04c0-43.97-35.96-79.83-79.93-79.83h0ZM96.12,814.79c-52.82,0-95.87,43.02-95.87,95.84v31.98c-.03,8.82,7.09,16,15.91,16.04h255.63c8.82.03,16-7.09,16.04-15.91,0-.04,0-.08,0-.12v-31.98c0-52.82-43.05-95.84-95.87-95.84h-95.84ZM431.47,814.79c-52.82,0-95.87,43.02-95.87,95.84v31.98c-.03,8.82,7.09,16,15.91,16.04h255.63c8.82.03,16-7.09,16.04-15.91,0-.04,0-.08,0-.12v-31.98c0-52.82-43.02-95.84-95.84-95.84h-95.87ZM767.03,814.79c-52.82,0-95.87,43.02-95.87,95.84v31.98c-.03,8.82,7.09,16,15.91,16.04h255.66c8.82-.04,15.94-7.21,15.91-16.04v-31.98c0-52.82-42.93-95.84-95.75-95.84h-95.87Z" vector-effect="none"/></g></svg>