<?xml version="1.0" encoding="UTF-8"?><svg id="Layer_1" xmlns="http://www.w3.org/2000/svg" viewBox="0 0 1080 1080"><defs><style>.cls-1{fill:#f8a492;}.cls-2{fill:#50bfa5;}.cls-3{fill:#184655;}.cls-4{fill:#fff;}.cls-5{fill:#466eb6;}.cls-6{fill:#f7a491;}.cls-7{fill:#fe875e;}.cls-8{fill:#355389;}.cls-9{fill:#f7a491;}.cls-10{fill:#3c8f7c;}.cls-11{fill:#b75742;}.cls-12{fill:#fcf5eb;}.cls-13{fill:#f79c8d;}.cls-14{fill:#12353d;}.cls-15{fill:#13375b;}.cls-16{fill:#f7cc7f;}.cls-17{fill:#f47458;}</style></defs><circle class="cls-11" cx="538.98" cy="536.29" r="527.41" transform="translate(-221.35 538.19) rotate(-45)"/><circle class="cls-17" cx="538.98" cy="536.29" r="480.95" transform="translate(-221.35 538.19) rotate(-45)"/><circle class="cls-12" cx="538.98" cy="536.29" r="404.44" transform="translate(-221.35 538.19) rotate(-45)"/><circle class="cls-17" cx="538.98" cy="536.29" r="304.01" transform="translate(-221.35 538.19) rotate(-45)"/><circle class="cls-12" cx="538.98" cy="536.29" r="215.88" transform="translate(-221.35 538.19) rotate(-45)"/><path class="cls-11" d="M594.03,536.29c0,30.4-24.65,55.05-55.05,55.05s-55.05-24.65-55.05-55.05,24.65-55.05,55.05-55.05,55.05,24.65,55.05,55.05Z"/><polygon class="cls-3" points="876.97 263.04 875.02 227.27 996.1 132.57 989.77 184.36 871.11 277.17 876.97 263.04"/><polygon class="cls-14" points="885.93 275.08 920.17 285.59 1041.24 190.89 989.46 184.56 870.8 277.37 885.93 275.08"/><path class="cls-3" d="M534.85,540.86h0c2.75,3.52,7.84,4.14,11.36,1.39l341.12-266.81-9.97-12.75-341.12,266.81c-3.52,2.75-4.14,7.84-1.39,11.36Z"/><path class="cls-1" d="M824.74,740.83c-.49,1.67-.76,2.23-1.38,3.35-3.98,7.25-13.22,17.58-13.22,17.58l-7.15-16.1s1.16-5.05,3.18-12.28c6.9,1.8,13.47,2.84,18.56,7.44Z"/><path class="cls-5" d="M783.77,726.87s39.85,17.16,41.14,16.83c.83-.21,16.35-26.18,16.51-50.6.08-11.28-11.64-24.85-24.71-22.16-6.58,1.35-6.48,3.18-16.21,17.33-9.74,14.15-16.73,38.61-16.73,38.61Z"/><path class="cls-9" d="M749.76,1034.53s.95,15.65.95,15.68c.35,1.99,1.72,6.9,1.72,8.7,0,6.79-32.22-5.76-25-8.77.65-.27,4.08-2.33,4.29-4.64.33-3.56,1.17-10.76,1.17-10.76l16.87-.22Z"/><path class="cls-10" d="M727.5,1050.08s7.57,2.08,11.44,2.59c3.87.52,8.98-3.85,11.72-2.67,3.02,1.3,2.9,12.99,2.9,12.99,0,0-40.57,3.33-51.98-.11-4.52-1.36,10.45-7.97,25.92-12.8Z"/><path class="cls-9" d="M815.67,1034.53s.95,15.65.95,15.68c.35,1.99,1.72,6.9,1.72,8.7,0,6.79-32.22-5.76-25-8.77.65-.27,5.09-3.87,5.31-6.18.33-3.56.16-9.22.16-9.22l16.87-.22Z"/><path class="cls-10" d="M793.42,1050.08s7.57,2.08,11.44,2.59c3.87.52,8.98-3.85,11.72-2.67,3.02,1.3,3.14,12.99,3.14,12.99,0,0-40.75,3.88-52.22-.11-4.45-1.55,10.45-7.97,25.92-12.8Z"/><path class="cls-9" d="M812.68,645.39l3.65,23.1s-13.92,11.18-22.04,8.82c-6.81-1.98-2.14-10.88-2.14-10.88,0,0,3.63-12.33,2.51-18.8-1.11-6.46,18.01-2.25,18.01-2.25Z"/><path class="cls-7" d="M810.06,652.38c-3.49,1.65-10.39,3.9-15.76,4.44.51-3.23.81-6.65.37-9.18-.51-2.98,3.28-3.69,7.52-3.59,5.54.48,10.49,1.34,10.49,1.34l.7,4.44c-1.05,1.11-2.16,2-3.33,2.55Z"/><path class="cls-9" d="M830.25,618.74c.57,0-5.5,25.81-14.91,30.25-9.41,4.44-23.43,2.13-26.06-4.83-2.91-7.69,7.71-34.02,20.94-37.37,13.23-3.35,20.03,11.94,20.03,11.94Z"/><path class="cls-15" d="M819.37,595.03c7.51,4.33,10.96,10.76,12.12,13.39,3.53,1.67,7.79,5.29,9.84,15.04,2.52,11.99-6.43,21.23-15.93,24.01-9.49,2.78-10.96,9.06-10.96,9.06l-1.08-6.76s2.11-5.88,5.29-8.83c3.18-2.95-1.5-7.24-1.91-10.74-.32-2.7,1.67-7.93,1.24-12.35,0,0-5.27-7.99-10.47-9.97-8.86-3.37,2.22-18.42,11.86-12.86Z"/><path class="cls-9" d="M815.37,634.7c-1.23,2.98-.73,5.94,1.12,6.61,1.85.67,4.34-1.2,5.57-4.18,1.23-2.98.73-5.94-1.12-6.61-1.85-.67-4.34,1.2-5.57,4.18Z"/><path class="cls-1" d="M780.34,750.14l-54.74-8.93s6.23-15.68,8.45-15.68,41.39,17.1,41.39,17.1l3.12,6.26,1.78,1.25Z"/><path class="cls-3" d="M808.38,787.67s5.46,26.4,3.24,46.42c-2.23,20.02-2.4,91.13-2.4,91.13l8.49,113.78-20.15.44s-23.89-113.72-23.45-110.8c.44,2.92-8.01-80.07-8.01-80.07l28.49-63.39,13.8,2.5Z"/><path class="cls-15" d="M803.04,786.42s3.56,23.77-.89,34.2c-4.45,10.43-38.18,112.72-38.62,121.06-.45,8.34-11.66,100.53-11.66,100.53l-23.43-.66-5.07-102.5,10.61-128.82,10.31-32.57,58.75,8.76Z"/><path class="cls-9" d="M816.33,668.5s-5.78,3.79-11.17,3.35c-5.39-.44-13.01-5.41-13.01-5.41l1.06-3.59s13.94-2.03,14.29-1.81c.35.22,8.82,7.46,8.82,7.46Z"/><path class="cls-1" d="M754.75,724.76s-20.71,19.54-30.05,16.2c-9.35-3.34-13.21-14.74,9.59-31.43,20.41-14.93,20.46,15.22,20.46,15.22Z"/><path class="cls-2" d="M740.72,748.89c3.08-16.73,25.37-68.81,27.15-78.4.87-4.66,12.89-4.77,24.34-4.16,12.1.64,24.12,2.17,24.12,2.17,0,0,10.71,1.76,15.42,6.17,4.71,4.42,5.96,16.63-.81,39.81-5.35,18.3-11.98,28.35-15.26,41.67-.66,4.47-1.23,8.88-1.99,14.04-1.21,19.93.01,46.26.01,46.26,0,0-58.31,12.09-80.12-6.26,0,0,3.97-44.16,7.12-61.3Z"/><path class="cls-5" d="M725.86,712.91s22.88,18.88,24.21,18.88c.86,0,32.65-23.38,39.99-42.59,4.06-10.62-4.45-22.5-14.17-22.46-6.74.03-9.73,1.76-23.08,13.02-13.35,11.26-26.94,33.15-26.94,33.15Z"/><path class="cls-4" d="M790.91,633.01l8.58,4.71s-2.25,3.61-6.09,1.67c-4.69-2.37-2.49-6.37-2.49-6.37Z"/><path class="cls-6" d="M247.15,733.66c-.67-1.93,8.7-3.48,9.19-5.43.5-1.95-11.83-2.1-12.27-3.81-.81-3.15,13.51-.66,13.23-2.14-.28-1.47-14.93-4.77-13.34-7.3,1.58-2.53,14.83,5,15.23,3.28.4-1.72-12.95-5.9-12.71-9.66.13-2.01,21.91,10.03,24.44,8.94,2.53-1.09-2.72-10.55-.71-11.95,2.01-1.4,7.78,19.22,9.17,19.91,1.38.69,30.81,17.48,41.28,20.15,1.27-3.51,16.27-25.22,17.39-28.53,5.87,4.18,11.9,4.75,17.96,8.57-4.39,11.01-24.56,41.57-27.62,42.95-9.32,4.21-45.36-25.68-52.55-30.79-7.2-5.12-11.32-3.46-16.19-5.08-4.87-1.62-11.84,2.83-12.51.9Z"/><path class="cls-3" d="M447.11,653.91c-5.39-14.37-19.49-23.07-34.16-20.38-4.5-7.27-12.01-12.66-20.18-14.41-16.11-3.45-37.9,2.91-37.31,19.97-6.25,11.46-6.49,27.85,3.07,36.56-3.33,15.41,11.11,30.31,29.87,29.77,6.53,10.77,18.98,17.71,31.36,16.23,2.97-.35,7.5-1.1,8.25-.91-.94-.17,19.89,15.79,37.53-8.76,18.01-25.06,5.36-55.39-18.44-58.07Z"/><path class="cls-9" d="M396.53,792.49c.54.22-7.08,10.04-14.5,16.98-5.98,7.51-11.59,16.39-13.52,26.08-2.94,14.73-.49,87.51-3.05,92.69-21.95,21.46-37.85,75.32-42.31,91.75-.87,3.2-2.63,6.09-5.07,8.33h0l.98,18.57,10.91,10.05s-2.43-15.13,2.42-26.35c0,0,55.27-83.7,58.55-90.1,6.27-18.22,29.09-111.57,29.09-111.57l5.3-21.46s-28.75-14.96-28.79-14.97Z"/><path class="cls-8" d="M306.12,1034.31s6.9,10.64,7.49,14.78c.59,4.15,4.27,13.55,8.33,14.14.92.13,16.74,1.3,16.62-.68-.09-1.51-5.81-3.67-8.47-5.5-4.6-3.17-11.73-29.02-11.73-29.02,0,0-11.95,2.96-12.25,6.28Z"/><path class="cls-13" d="M398.84,678.82s23.13-41.6,28.76-50.44c5.63-8.84,20.29-43.98,20.81-45.37.52-1.38-10.1-18.01-7.72-18.58,2.37-.57,4.99,8.77,7.52,7.65,2.53-1.12,9.92-23.59,11.36-22.48,2.7,2.09-3.98,13.94-2.54,14.69,1.44.75,5.79-13.05,8.61-12.64,2.82.41-5.37,12.64-4.58,13.72.79,1.08,9.29-10.45,10.83-7.99.84,1.33-7.82,10.06-6.16,10.88,1.66.82,9.36-4.82,10.18-3.19.81,1.62-7.12,3.85-9.49,8.23-2.37,4.38-6.41,6.27-8.09,14.38-1.68,8.11-4.19,37.46-12.78,52.11-8.6,14.64-27.5,47.06-27.5,47.06l-19.2-8.04Z"/><path class="cls-9" d="M443.77,824.75s35.6,76.12,35.83,89.5c.19,11.47-6.22,75.83-4.43,129.43.06,1.94,2.52,4.51,6.08,6.14,2.01.92,11.7,5.25,11.7,5.25l1.33,3.47-33.39-2.38-.48-9.11s-13.29-80.18-11.93-102.85c.21-3.56,1.94-24.89,1.94-24.89l-40.15-77.51,25.25-33.18,8.24,16.14Z"/><path class="cls-17" d="M362.17,916.18s.01.01.01,0c0,0-.01,0-.01,0Z"/><path class="cls-10" d="M413.09,701.33c.96-5.85,10.01-20.5,11.44-24.09,0,0-10.5-13.34-19.02-12.33,0,0-11.45,18.99-17.97,19.63-6.51.64-29.42,1.63-33.43,4.07-4.01,2.44-21.05,28.59-21.05,28.59,0,0,15.31,15.64,21.47,15.6,0,0,3.27-6.44,4.58-7.85.93,2.99,15.19,49.21,15.17,59.68l.11.09c13.33,10.82,32.79,8.31,43.07-5.54h0s-1.21-14.41-.52-27.69c1.07-20.81,5.29-31.88-3.85-50.15Z"/><path class="cls-16" d="M487.33,880.13l-69.87-100.94c-4.31,1.75-8.38,3.26-12.99,4.15-10.02,1.93-20.05,1.62-30.2,1.29,0,.38-.02.71-.06.99-1.17,8.32-12.2,21.21-14.48,46.46-2.58,28.67-1.02,78.46-.15,81.73,46.45-5.65,114.56-19.85,127.74-33.68Z"/><path class="cls-9" d="M375.76,667.71s2.46,13.24,1.97,18.45c-.49,5.22,1.87,22.05,12.49,22.1,10.61.06,2.01-21.39,1.02-26.51-1-5.12-1.24-20.95-1.24-20.95l-14.23,6.9Z"/><path class="cls-17" d="M390.21,668.75c-.17-4.33-.22-7.95-.22-7.95l-14.23,6.9s.5,2.71,1.01,6.15c6.23,1.3,10.74-1.1,13.44-5.11Z"/><path class="cls-9" d="M370.56,631.19s-5.48,3.17-7.49,10.03c-2,6.87.28,24.58,14.44,28.86,14.17,4.27,20.3-9.75,17.38-20.72-2.92-10.97-9.26-24.86-24.34-18.17Z"/><path class="cls-9" d="M396.67,645.1c-.28,2.95-1.84,5.2-3.49,5.03-1.65-.17-2.76-2.69-2.48-5.64.28-2.95,1.84-5.2,3.49-5.03,1.65.17,2.76,2.69,2.48,5.64Z"/><path class="cls-9" d="M367.15,656.46c1.66,2.58,1.66,5.61-.01,6.78-1.67,1.17-4.37.03-6.04-2.54-1.66-2.57-1.66-5.61.01-6.78,1.67-1.17,4.38-.03,6.04,2.54Z"/><path class="cls-8" d="M460.78,1062.51h42.18c1.56-.14,1.94-1.4,1.4-2.17-1.11-1.6-6.03-2.77-11.56-5.32-9.7,1.01-30.82-5.62-32.36-7.84-.88,4.45-.52,15.14.34,15.33Z"/><path class="cls-4" d="M377.78,659.39l9.05-2.67s.82,3.56-3.13,4.85c-4.81,1.57-5.93-2.19-5.93-2.19Z"/><path class="cls-14" d="M1219.59,1061.66H-113.59c-2.61,0-4.73,2.12-4.73,4.73h0c0,2.61,2.12,4.73,4.73,4.73h1333.19c2.61,0,4.73-2.12,4.73-4.73h0c0-2.61-2.12-4.73-4.73-4.73Z"/></svg>