<?xml version="1.0" encoding="UTF-8"?><svg id="Layer_1" xmlns="http://www.w3.org/2000/svg" viewBox="0 0 26.17 32.12"><defs><style>.cls-1{fill:#2d2d2d;}</style></defs><path class="cls-1" d="M17.07,7.59l-1.41.03v-1.99c0-1.41-1.15-2.56-2.56-2.56-.34,0-.6.11-.77.32-.32.4-.19.97-.04,1.64.15.7.33,1.49-.05,1.95-.26.32-.78.5-1.56.55-.02-.2-.19-.36-.4-.36h-2.98c-.22,0-.4.18-.4.4v6.4c0,.22.18.4.4.4h2.98c.21,0,.38-.16.4-.36,1.23.43,2.61.79,4.09.79.85,0,1.75-.12,2.67-.4,1.2-.37,1.83-1.67,1.83-2.77v-1.89c0-.6-.22-1.12-.65-1.54-.43-.42-.95-.63-1.56-.61h0ZM9.88,13.57h-2.18v-5.6h2.18v5.6ZM18.48,11.63c0,.79-.47,1.76-1.27,2-2.44.75-4.58.24-6.53-.47v-4.84c1.05-.05,1.77-.33,2.18-.85.61-.76.39-1.8.2-2.62-.07-.32-.19-.86-.12-.97,0,0,.04-.02.15-.02.97,0,1.76.79,1.76,1.76v2.4c0,.11.04.21.12.29s.18.12.29.11l1.82-.04c.38,0,.7.12.98.39s.41.59.41.97v1.89h0ZM22.58,0H3.59C1.61,0,0,1.61,0,3.59v10.69c0,1.93,1.53,3.51,3.44,3.59-.19.46-.29.97-.29,1.5,0,1.46.77,2.73,1.93,3.45-1.26.25-2.35.74-3.19,1.45-1.22,1.02-1.89,2.46-1.89,4.05v3.4c0,.22.18.4.4.4h13.59c.22,0,.4-.18.4-.4v-3.4c0-1.59-.67-3.03-1.89-4.05-.85-.71-1.93-1.2-3.19-1.45,1.16-.71,1.93-1.99,1.93-3.45,0-.53-.1-1.03-.29-1.5h4.04v4.56c0,.16.1.31.25.37.05.02.1.03.15.03.1,0,.2-.04.28-.12l4.92-4.84h1.99c1.98,0,3.59-1.61,3.59-3.59V3.59c0-1.98-1.61-3.59-3.59-3.59h0ZM13.59,28.32v3h-2.49v-2.67c0-.22-.18-.4-.4-.4s-.4.18-.4.4v2.67h-6.21v-2.67c0-.22-.18-.4-.4-.4s-.4.18-.4.4v2.67H.8v-3c0-2.98,2.51-4.9,6.4-4.9s6.4,1.92,6.4,4.9h0ZM7.2,22.62c-1.79,0-3.24-1.46-3.24-3.24s1.46-3.24,3.24-3.24,3.24,1.46,3.24,3.24-1.46,3.24-3.24,3.24ZM25.37,14.28c0,1.54-1.25,2.79-2.79,2.79h-2.15c-.11,0-.21.04-.28.12l-4.35,4.29v-4c0-.22-.18-.4-.4-.4h-4.87c-.73-1.05-1.95-1.75-3.33-1.75s-2.59.69-3.33,1.75h-.28c-1.54,0-2.79-1.25-2.79-2.79V3.59C.8,2.05,2.05.8,3.59.8h18.98c1.54,0,2.79,1.25,2.79,2.79v10.69Z"/></svg>