<?xml version="1.0" encoding="UTF-8"?><svg id="Layer_1" xmlns="http://www.w3.org/2000/svg" viewBox="0 0 23.11 32"><defs><style>.cls-1{fill:#2d2d2d;}</style></defs><path class="cls-1" d="M10.96,16.84c-.13,0-.45-.05-.64-.47l-.94-2.04-.46.86c-.21.4-.69.68-1.14.68h-3.25v-.97h3.25c.09,0,.25-.09.29-.17l.69-1.28c.15-.28.35-.44.66-.43.27,0,.5.18.64.47l.9,1.96,1.33-2.94c.13-.28.35-.45.62-.48.26-.03.52.11.69.36l1.58,2.32c.06.09.25.19.36.19h3.04v.97h-3.04c-.43,0-.92-.26-1.16-.61l-1.37-2.01-1.41,3.12c-.19.42-.51.47-.64.47h0Z"/><path class="cls-1" d="M21.52,3.79h-4.24v-.33c0-.85-.69-1.54-1.54-1.54h-.64c-.78-1.2-2.11-1.93-3.55-1.93s-2.77.73-3.55,1.93h-.64c-.85,0-1.54.69-1.54,1.54v.33H1.58c-.87,0-1.58.71-1.58,1.59v25.03c0,.88.71,1.59,1.58,1.59h19.94c.88,0,1.59-.71,1.59-1.59V5.38c0-.87-.71-1.59-1.59-1.59ZM6.79,3.47c0-.31.26-.57.57-.57h1.2l.14-.25c.58-1.03,1.67-1.68,2.85-1.68s2.28.64,2.85,1.68l.14.25h1.2c.31,0,.57.26.57.57v2.69c0,.32-.26.57-.57.57H7.36c-.31,0-.57-.26-.57-.57v-2.69h0ZM22.14,30.41c0,.34-.27.61-.61.61H1.58c-.34,0-.61-.27-.61-.61V5.38c0-.34.28-.61.61-.61h4.24v1.39c0,.85.69,1.54,1.54,1.54h8.38c.85,0,1.54-.69,1.54-1.54v-1.39h4.24c.34,0,.61.28.61.61v25.03h0Z"/><path class="cls-1" d="M3.9,21.47h9.25v.97H3.9v-.97Z"/><path class="cls-1" d="M16.86,23.19c-.21,0-.41-.1-.56-.27l-1.65-1.92.74-.63,1.44,1.68,2.24-3.6.82.51-2.41,3.87c-.13.21-.34.34-.57.35-.02,0-.04,0-.05,0Z"/><path class="cls-1" d="M3.9,26.98h9.25v.97H3.9v-.97Z"/><path class="cls-1" d="M16.86,28.7c-.21,0-.41-.1-.56-.27l-1.65-1.92.74-.63,1.44,1.68,2.24-3.6.82.51-2.41,3.87c-.13.21-.34.34-.57.35-.02,0-.04,0-.05,0Z"/><path class="cls-1" d="M6.99,13.19c0-1.32.63-2.54,1.48-2.84.29-.1.56-.15.83-.15,1.2,0,1.81,1.08,1.84,1.12l.43.79.43-.79s.62-1.12,1.84-1.12c.26,0,.54.05.83.15.85.3,1.48,1.52,1.48,2.84,0,.32-.05.77-.21,1.29h.99c.11-.42.19-.84.19-1.28.01-1.77-.86-3.31-2.12-3.76-.39-.14-.78-.21-1.15-.21-1.09,0-1.84.58-2.26,1.05-.42-.47-1.17-1.05-2.26-1.05-.37,0-.76.07-1.15.21-1.26.45-2.13,1.99-2.12,3.76,0,.44.08.87.19,1.28h.99c-.16-.52-.21-.97-.21-1.29Z"/><path class="cls-1" d="M11.55,18.39c-1.6-.58-2.64-1.34-3.32-2.11h-1.21c.91,1.32,2.4,2.4,4.37,3.08l.16.06.16-.06c1.97-.68,3.46-1.76,4.37-3.08h-1.21c-.68.77-1.72,1.53-3.32,2.11Z"/></svg>