<?xml version="1.0" encoding="UTF-8"?><svg id="Layer_1" xmlns="http://www.w3.org/2000/svg" viewBox="0 0 31.32 32.12"><defs><style>.cls-1{fill:#2d2d2d;}</style></defs><path class="cls-1" d="M7.44,7.18c1.98,0,3.59-1.61,3.59-3.59s-1.61-3.59-3.59-3.59-3.59,1.61-3.59,3.59,1.61,3.59,3.59,3.59ZM7.44.8c1.54,0,2.79,1.25,2.79,2.79s-1.25,2.79-2.79,2.79-2.79-1.25-2.79-2.79S5.9.8,7.44.8ZM25.12,23.13c-.06,0-.12,0-.18.01-.21-1.2-1.26-2.11-2.52-2.11-1.41,0-2.56,1.15-2.56,2.56,0,1.15.76,2.13,1.81,2.45-.11.22-.17.46-.17.71,0,.42.16.8.45,1.1s.68.45,1.1.45.8-.16,1.1-.45l1.04-1.04h0l1.04-1.04c.29-.29.45-.68.45-1.1s-.16-.8-.45-1.1c-.29-.29-.68-.45-1.1-.45h0ZM22.41,21.84c.83,0,1.53.58,1.71,1.36h-3.43c.18-.78.88-1.36,1.71-1.36ZM20.7,24h2.91l-.63.63h0l-.73.73c-.76-.07-1.39-.62-1.56-1.35h0ZM23.57,27.29c-.14.14-.33.22-.53.22s-.39-.08-.53-.22-.22-.33-.22-.53.08-.39.22-.53l.75-.75,1.06,1.06-.75.75ZM25.65,25.22l-.75.75-1.06-1.06.75-.75c.14-.14.33-.22.53-.22s.39.08.53.22c.14.14.22.33.22.53s-.08.39-.22.53h0ZM23.26,19.2c-2.89,0-5.25,2.24-5.46,5.08h-2.4l-2.43-2.66s.04,0,.06,0c1.02,0,1.85-.83,1.85-1.85v-7.86c0-1.75-1.43-3.18-3.18-3.18H3.18c-1.75,0-3.18,1.43-3.18,3.18v7.86c0,1.02.83,1.85,1.85,1.85.39,0,.75-.12,1.05-.33v8.36c0,1.36,1.11,2.47,2.47,2.47.87,0,1.63-.45,2.07-1.13.44.68,1.21,1.13,2.07,1.13,1.36,0,2.47-1.11,2.47-2.47v-7.92l2.95,3.22c.08.08.18.13.3.13h2.57c.21,2.83,2.57,5.08,5.46,5.08s5.48-2.46,5.48-5.48-2.46-5.48-5.48-5.48ZM11.19,29.65c0,.92-.75,1.67-1.67,1.67s-1.67-.75-1.67-1.67v-10.27c0-.22-.18-.4-.4-.4s-.4.18-.4.4v10.27c0,.92-.75,1.67-1.67,1.67s-1.67-.75-1.67-1.67V13.21c0-.22-.18-.4-.4-.4s-.4.18-.4.4v6.56c0,.58-.47,1.05-1.05,1.05s-1.05-.47-1.05-1.05v-7.86c0-1.31,1.07-2.38,2.38-2.38h8.53c1.31,0,2.38,1.07,2.38,2.38v7.86c0,.58-.47,1.05-1.05,1.05s-1.05-.47-1.05-1.05v-6.56c0-.22-.18-.4-.4-.4s-.4.18-.4.4v6.45l-2.64-2.89c.4-.34.66-.85.66-1.42,0-1.03-.84-1.87-1.87-1.87s-1.87.84-1.87,1.87.84,1.87,1.87,1.87c.17,0,.33-.02.48-.06l3.37,3.69v8.8h0ZM7.34,16.42c-.59,0-1.07-.48-1.07-1.07s.48-1.07,1.07-1.07,1.07.48,1.07,1.07-.48,1.07-1.07,1.07ZM23.26,29.35c-2.58,0-4.68-2.1-4.68-4.68s2.1-4.68,4.68-4.68,4.68,2.1,4.68,4.68-2.1,4.68-4.68,4.68ZM12.1,7.81c.06.04.13.05.2.05.14,0,.27-.07.35-.2l2.82-4.89h2.57c.18.84.93,1.47,1.83,1.47,1.03,0,1.87-.84,1.87-1.87s-.84-1.87-1.87-1.87c-.89,0-1.65.63-1.83,1.47h-2.8c-.14,0-.27.08-.35.2l-2.94,5.09c-.11.19-.04.44.15.55ZM19.87,1.3c.59,0,1.07.48,1.07,1.07s-.48,1.07-1.07,1.07-1.07-.48-1.07-1.07.48-1.07,1.07-1.07ZM30.92,9.49h-.6V1.41c0-.22-.18-.4-.4-.4h-2.24c-.22,0-.4.18-.4.4v8.07h-.49V3.44c0-.22-.18-.4-.4-.4h-2.24c-.22,0-.4.18-.4.4v6.05h-.49v-3.92c0-.22-.18-.4-.4-.4h-2.24c-.22,0-.4.18-.4.4v3.92h-.49v-2.12c0-.22-.18-.4-.4-.4h-2.24c-.22,0-.4.18-.4.4v2.12h-.6c-.22,0-.4.18-.4.4s.18.4.4.4h14.85c.22,0,.4-.18.4-.4s-.18-.4-.4-.4ZM28.08,1.81h1.44v7.67h-1.44V1.81ZM24.54,3.84h1.44v5.65h-1.44V3.84ZM21.01,5.97h1.44v3.52h-1.44v-3.52ZM17.47,7.77h1.44v1.72h-1.44v-1.72Z"/></svg>