<?xml version="1.0" encoding="UTF-8"?><svg id="Layer_1" xmlns="http://www.w3.org/2000/svg" viewBox="0 0 24.89 32.12"><defs><style>.cls-1{fill:#2d2d2d;}</style></defs><g id="mobile_app"><path class="cls-1" d="M21.92,0h-13.09c-1.64,0-2.97,1.34-2.97,2.97v4.03c.2.05.4.11.59.18V2.97c0-1.31,1.06-2.38,2.38-2.38h13.09c1.31,0,2.38,1.06,2.38,2.38v26.17c0,1.31-1.06,2.38-2.38,2.38h-13.09c-1.31,0-2.38-1.06-2.38-2.38v-7.41c-.18-.13-.39-.27-.59-.43v7.84c0,1.64,1.34,2.97,2.97,2.97h13.09c1.64,0,2.97-1.34,2.97-2.97V2.97c0-1.64-1.34-2.97-2.97-2.97Z"/><path class="cls-1" d="M17.75,1.49c0,.17-.13.3-.3.3h-4.16c-.16,0-.3-.13-.3-.3s.14-.3.3-.3h4.16c.17,0,.3.13.3.3Z"/><path class="cls-1" d="M19.98,19.25l-.59-.02-.74-5.86-.61,3.05-.58.02-.33-1.17-.27.2h-5.65l-.29-.24-.76,4.03-.59-.02-.74-5.86-.61,3.05-.58.02-.33-1.17-.27.2h-3.87v-.59h3.65l.23-.69h.57s.26.92.26.92l.73-3.63.59.02.73,5.79.69-3.65h.58s.25,1.24.25,1.24h5.19l.23-.69h.57s.26.92.26.92l.73-3.63.59.02.73,5.79.69-3.65h.58s.25,1.24.25,1.24h1.54v.59h-1.78l-.29-.24-.76,4.03Z"/><path class="cls-1" d="M14.11,16.06c-1.98,2.73-5.23,4.89-5.98,5.36-1.09-.69-7.54-4.98-7.54-9.4,0-2.2,1.79-3.99,3.99-3.99,1.32,0,2.56.65,3.3,1.75l.24.36.24-.36c.74-1.09,1.98-1.75,3.3-1.75,2.2,0,3.99,1.79,3.99,3.99,0,.76-.2,1.52-.52,2.25h.65c.29-.73.46-1.49.46-2.25,0-2.53-2.06-4.59-4.59-4.59-1.38,0-2.68.62-3.55,1.68-.87-1.06-2.16-1.68-3.54-1.68-2.53,0-4.59,2.06-4.59,4.59,0,5.13,7.65,9.81,7.98,10l.15.1.15-.1c.24-.14,4.32-2.65,6.55-5.97h-.72Z"/></g></svg>